<svg xmlns="http://www.w3.org/2000/svg" width="128" height="128" viewBox="0 0 128 128"><path d="M121.14 25.103c1.575-1.62 3.938-2.447 3.632-5.946-.58-1.842-2.202-2.645-4.953-2.315-.54-.675-2.442.014-2.974-.66-1.005-.207-2.848.423-3.307-.332-.26-3.264.372-7.418-2.646-7.928-2.28.363-3.994 1.29-5.614 2.313-1.423 1.333-1.912 3.598-3.303 4.956-2.357-.724-2.557-3.613-5.62-3.628-.07.256-.276.382-.657.326-1.266.393-1.506 1.803-1.325 3.637.97.28-.196 1.062 0 1.653-.462.422-.203 1.557-.658 1.982-1.966-.667-4.38-.338-5.288.99-.4 3.7 1.61 4.998 2.972 6.936 1.04-.16.745 1.015 1.98.66.21 1.2 1.543-.765 1.65.332-2.677 3.38-5.472 6.64-9.58 8.59-1.008-.242-.97.573-1.978.334-1.28.176-1.614-.594-2.97-.336-4.172-2.545-5.58-7.86-7.603-12.552-.86-.143-.842-1.125-1.32-1.653-.8-.877-2.405-1.767-2.97-2.31-1.4-1.337-3.457-1.685-5.287-2.313-4.625-.437-7.32 1.05-10.907 1.653-.592.836-1.618 1.242-2.638 1.653-2.242 2.385-3.893 5.355-6.28 7.595-.104 1.44-.865 2.216-.99 3.637-.95.593-.294 2.786-.993 3.635-3.37-.07-6.918-.313-8.26 1.648-.583 1.57-.377 4.34 0 5.952.408 1.795.51 3.893.993 5.614-.93 1.27-3.413.992-5.616.99-.755.458-1.75.676-2.645.99-.837.374-1.61.812-2.313 1.324-1.6.93-3.22 1.85-4.292 3.303-.753.462-1.28 1.146-1.984 1.654-1.022.188-.864 1.554-1.984 1.65-.643 1.888-2.643 2.42-2.97 4.63-1.316 1.103-1.676 3.164-2.313 4.948-.562.653-.38 2.045-.993 2.645-.02 1.3-.158 2.485-.66 3.307-.357 4.6-1.154 8.753-.99 13.877.474 2.61.836 5.33 1.65 7.598.506 1.04 1.102 1.984 1.326 3.302.66.875 1.227 1.854 1.648 2.973 1.418 1.67 2.758 3.413 3.967 5.286 1.896 1.188 2.782 3.385 4.953 4.298 2.98 3.186 7.142 5.192 11.567 6.938 4.485 1.792 10.043 2.515 15.858 2.973 2.264-.492 5.127-.374 7.597-.662 1.79-1.072 4.42-1.306 5.95-2.643 2.1-.868 3.932-2.016 5.283-3.63 1.97-1.007 3.18-2.77 4.625-4.297 1.262-1.715 2.8-3.147 3.635-5.285 2.637-3.307 4.085-7.808 5.94-11.89 1.542-4.638 2.802-9.576 2.977-14.867.416-12.31-4.64-20.77-10.57-26.432-1.548-.328-2.09-1.658-3.633-1.984-.99-.992-2.812-1.156-3.97-1.98-1.585-.395-2.95-1.01-4.624-1.323-.79-.2-1.504-.474-2.642-.328-.046-.946-2.266.284-2.313-.665-.202-3.452 1.345-7.744-.99-9.58-1.79-.635-4.64-.206-6.94-.327-.42-.797-2.603.18-2.973-.66-.196-1.744.245-2.84.328-4.3 1.92-3.253 3.93-6.42 7.602-7.928 3.368-.04 5.18-1.643 8.917-1.318 2.26.82 4.47 1.696 5.617 3.632 2.505 4.986 3.745 11.234 7.598 14.867 1.12.424 2.098.987 2.973 1.654.494.056 1.222-.12 1.324.33h6.276c.064-.49.798-.3 1.323-.33 1.688-1.063 3.493-2.013 4.955-3.303.42-.897 1.69-.95 1.98-1.985.763.107.37-.953.994-.984.098-.296.894-1.45.992-.666-.224 1.656.302 2.56.328 3.968-.21 1.755.832 2.254 1.653 2.973 2.843.307 3.093-1.975 5.285-2.313.19 2.01.858 3.55 1.323 5.286.645 1.662.95 3.672 3.3 3.632 1.89-.206 2.173-2.016 2.977-3.302.175-.928.486-1.722.66-2.645.202-.892-.42-2.62.332-2.97 1.557-.022 1.81 1.268 2.973 1.65.964.57 2.3.775 3.96.66.22-.446.706-.62 1.325-.66.74-1.492 1.434-3.545.988-5.286-.785-2.633-2.738-4.09-3.63-6.61 1.588-.843 2.388-2.464 2.973-4.303zM50.437 41.62c.76.563 1.42 1.225 1.98 1.985.22 2.308-.292 3.886-.33 5.944 1.08 1.564 3.6 1.684 5.288 2.644 2.297.46 4.32 1.184 5.95 2.313 1.836.803 3.193 2.087 4.954 2.973 1.653 1.102 2.976 2.534 4.625 3.637.925 1.935 2.368 3.36 2.973 5.615 1.22 1.647 1.58 4.155 2.645 5.945.227 2.86.46 5.71.33 8.923-.75 3.875-1.674 7.576-2.973 10.9-.85 1.462-1.41 3.212-2.31 4.63-.64 1.778-2.028 2.816-2.646 4.62-2.078 1.78-3.73 3.978-5.945 5.617-2.08 1.777-4.912 2.8-6.94 4.63-.693-.69.86-3.43-.992-3.638-1.29.035-1.308 1.338-1.98 1.983-.436.997-1.07 1.795-.99 3.305-.94.494-2.177.69-3.302.99-.11-2.773 1.605-5.03.657-7.595-2.727-.528-2.805 1.6-3.964 2.643-.225.877-.524 1.683-.995 2.313-.128 1.083-.07 2.35-1.65 1.983-1.827-.37.735-3.307-.662-4.296-.472.077-.557.544-.99.658.032.402-.482.203 0 0 .017-1.445.23-3.09-.992-3.3-2.925-.178-2.812 2.693-3.634 4.626-1.387.172-1.845-.575-2.972-.66.066-3.37 3.42-7.983 0-9.914-1.266-.416-2.48 2.108-2.645.66.7-.837.556-2.53.993-3.63.346-1.458.64-2.655.33-3.97-.424-.564-.682-1.297-1.652-1.322-2.192.233-3.034 1.816-3.963 3.307-.72-.322.043-1.905.33-2.31.22-.88.14-2.064.662-2.643.116-1.616 1.652-4.523-.33-5.287-1.698.068-2.082 1.445-2.975 2.315-.483 1.39-1.717 2.027-1.982 3.635-1.262.61-1.054 2.688-2.315 3.302.087.963-.744 1.013-.66 1.984-.75.238-.1 1.88-1.32 1.65-.914-1.508.472-3.16.332-4.956 1.387-1.805 1.587-4.8 2.973-6.605.46-2.418 2.304-4.798 1.653-7.27-1.84-.292-2.357.722-3.303 1.324-.42 1.12-1.835 1.247-1.984 2.64-1.004.538-1.41 1.676-1.98 2.646-.96.688-.832 2.47-2.317 2.643.928-3.367 2.19-6.406 3.968-8.923 1.287-3.003 3.583-5.007 5.285-7.6-.194-.69-.693-1.067-.992-1.65-2.25-.384-2.854.893-3.965 1.65-.717 1.262-2.158 1.805-2.645 3.306-.757-.262.174-1.554.666-1.656-.086-1.18.99-1.207.99-2.308 2.065-1.57 3.548-3.722 5.616-5.286 1.547-2.088 3.652-3.622 4.625-6.28-.372-1.336-2.245-.293-2.972 0-1.064.48-1.85 1.232-2.976 1.654-1.91 1.175-3.477 2.688-5.282 3.962.032.402-.484.203 0 0 .075-1.355 1.12-1.74 1.323-2.974 2.2-2.09 4.63-3.955 6.933-5.944 1.625-.582 2.714-1.696 4.624-1.984 1.23-.974 3.317-1.088 4.63-1.98h2.312c.203-.46 1.272-.054 1.323-.662.083-.687 1.45-.09 1.65-.66 1.28-.705 1.58-2.387 2.645-3.305.862-1.117 1.89-2.07 2.312-3.63-.173-.822-.806-1.18-1.323-1.656-1.865.562-4.316.533-5.283 1.987-.768-1.172-.456-2.14-.334-3.636l11.89-.003zm65.088-12.886c.176 1.173-1.17.816-.994 1.984-.392 3.477 1.707 4.467 2.315 6.937-1.722-.09-3.42-1.035-4.957-.33-.72.05-.71.833-.66 1.652-1.398 1.024-2.156 2.688-2.644 4.63-1.006-1.748-2.464-3.047-2.973-5.292-.38.053-.59-.07-.658-.326-2.214-.344-2.75.99-4.627.988-.25-1.403-.77-2.533-.66-4.294-.27-1.158-.995-1.867-1.317-2.974.732-.59 1.34-1.3 2.973-.992.29 1.027 1.216 1.43 2.31 1.653 1.45-.195 2.14-1.166 2.645-2.308-.31-2.45-1.973-3.537-3.637-4.627-2.887-.136-5.457.047-6.605 1.65-.968-.282.43-.83 0-1.65-.49-.282-.713-.832-.66-1.653 3.146.15 3.002-4.51 1.98-6.605-.058-1.45 1.12.31 1.324.658.556.544 1.486.72 1.98 1.325h2.314c3.398-.79 3.157-5.218 5.946-6.613.378.066.187.333 0 .333v5.62c.235 1.197 1.064 1.8 1.653 2.644 2.26-.066 4.42-.02 6.28.328-.645 1.992-3.04 5.045-1.324 7.264z" fill="#444"/></svg>