<svg xmlns="http://www.w3.org/2000/svg" width="128" height="128" viewBox="0 0 128 128"><path d="M33.893 114.984c.44-1.166 1.58-3.005.642-4.523-3.162-.362-2.738 2.867-4.847 3.558.565-2.556 1.952-4.294 2.912-6.464.768-2.037 2.873-4.072 2.26-6.466-1.793-.39-1.962.84-2.91 1.295-.095.66-.874.634-.97 1.29-.096.29-.87 1.42-.965.652v-3.557c1.47-1.975 2.363-4.533 3.877-6.464.606-2.447 3.01-4.693 2.26-7.43-2.215-.19-2.983 1.396-3.553 2.584-1.313.843-1.543 2.765-2.587 3.878v-5.17c1.192-3.33 3.077-5.973 3.55-10.022-1.408-.222-1.788.584-2.26 1.296-.74.267-.758 2.112-1.618 1.29.267-6.306 2.507-10.64 3.557-16.154-1.22-.14-1.475.686-1.94 1.293-.74.037-1.04 2.156-1.618 1.292-.968-1.287.294-2.57.97-3.232.23-1.493.656-2.795 1.294-3.877.363-2.692 2.8-4.907 1.94-7.758-1.848-.23-2.607.626-2.91 1.94-1.153.733-1.042 2.755-2.26 2.91 1.43-2.446.96-6.796 2.258-9.372.3-1.646 1.135-2.747 1.295-4.523.588-1.037 2.073-2.52 1.292-3.877-2.55-.505-2.197 1.89-3.55 2.58-.558 1.492-1.13 2.966-1.944 4.204-.04-3.835-.697-7.058-.968-10.663.827.034 1.13.59 1.618.968.83.032 1.54.184 1.937.646 1.696-.19 2.447.568 4.2.322.926-.69 1.835-1.4 1.94-2.908-.202-3.68-5.98-1.778-7.434-4.2-.687-1.36-.156-3.936-.32-5.816.688-.82 1.135-1.877 1.934-2.586 2.38-.115 4.443.085 6.464.322 5.892-.896 13.952.378 19.392-.966 5.472-.175 10.874.09 16.157.32 7.41.328 14.603-.624 21.973-.644 2.226-.574 5.367-.235 8.08-.322 1.888-.484 4.123-.616 4.2-2.912.236-.983-.33-1.177-.322-1.93-1.11-1.48-4.328-.85-6.787-.975-1.977.715-5.247.136-7.754.324-6 .57-11.965 1.18-18.74.968-5.646.387-11.094.975-17.132.97-6.56 1.627-15.623.748-23.588.972-1.003-.034-1.544.392-2.264.646-.806-.274-1.73-.424-2.906-.324-2.354 1.735-4.064 4.124-3.878 8.4-.102.762-1.122.6-.97 1.616.14 1.114-.13 1.813-.325 2.586-.352 10.268.49 19.332.648 29.086 1.73 16.582.87 35.755 1.617 53.32 1.015 1.035 1.06 3.03 1.937 4.2 1.216 1.045 2.61 1.912 4.525 2.26 1.314.68 4.292 1.073 5.492 0 .544-.93.904-2.394.322-3.55-.525-.982-2.38-.636-3.224-1.302zm0-84.985c.934 1.276 4.177 2.98 5.49.965.21-1.824-1.288-1.94-2.26-2.584-.242-2.068.375-3.284.32-5.17-3.545-1.348-3.786 3.29-3.55 6.788zm67.538-6.79c-.69.71-2.3.5-2.26 1.94.955.983 2.808 1.067 4.85.97 2.028-.016 4.26.17 4.2-1.938-.998-2.112-4.34-.954-6.788-.97zm11.96 85.637c-.342-1.632.733-1.85.643-3.232-.066-1.547-2.008-1.222-1.617-3.232.346-17.17 1.36-34.944-.97-50.73v-9.05c.353-2.448 1.44-4.164 1.295-7.11-1.597-2.11-3.914-1.79-7.434-1.615-2.757.472-5.333 1.13-8.4 1.29-.315-2.81-.02-6.225-.97-8.398-3.415-2.72-11.04-1.248-16.805-1.617-2.556.89-6.6.29-9.044 1.29-.494 2.31-1.248 4.356-.97 7.436-.87-.746-2.106-1.128-3.88-.97h-9.05c-4.688 1.014-11.214.204-14.538 2.587-.983-.422-.757-2.044-2.584-1.616-1.49 2.284-.82 6.725-1.62 9.694.065 15.282-1.2 30.445 0 44.917.2 2.41.543 4.72.647 7.116.11 2.446-.217 4.904-.323 7.43-.192 4.535.146 9.032 0 13.574.73.885 2.344.888 2.584 2.257 1.843.53 3.615 1.13 5.497 1.62 12.5.163 25.33.47 37.808 0 5.387 1.793 12.56.513 19.064.646.4-.68 1.948-.206 2.263-.968.995-.085 1.453-.7 2.26-.97 1.48-.244 3.182-.268 4.524-.644.416-.778 1.18-1.19.97-2.59.556-.734 1.336-1.245 1.292-2.582-.04-1.685-.598-2.848-.64-4.53zm-6.465-69.803c-.053 2.32-.538 4.205-.645 6.464-1.614-1.188-2.992-2.61-2.912-5.493.048-1.465 2.194-.826 3.557-.97zm-13.9-7.754c.063 2.212.022 4.326-.32 6.14.084 1.056-1.25.683-1.294 1.617-.603.363-.686 1.254-1.292 1.615-.725 1.213-1.326 2.55-2.26 3.556-1.14 2.74-3.086 4.67-4.2 7.43-1.213.945-2.29 2.023-3.232 3.235-.875-.295.33-1.134.326-1.62.555-.194-.02-1.53.645-1.614-.245-.83-.78-1.368-1.62-1.616 4-6.67 8.333-13 12.927-19.068.277-.058.304.128.323.324zm-.32 24.56c-.086 1.093-.513 1.857-.32 3.233-2.98-1.342-.56-4.485 0-6.79.737.556.12 2.468.32 3.557zm-3.553-1.937c-.984-.31-.704-1.885-1.293-2.588 1.123-2.862 3.137-4.83 4.2-7.757.376-.05.576.072.644.323v7.436c-1.87-1.006-2.876 1.352-3.552 2.587zm-9.376 1.612c-.16-.164.237-.41.33-.32.165.165-.236.412-.33.32zm9.698-25.205c-.774 1.92-2.632 2.752-3.232 4.846-1.508 1.186-2.233 3.155-3.552 4.525-.97 1.724-2.044 3.346-3.23 4.848-.794 1.796-2.23 2.946-2.91 4.847-.736-.448-.12-2.248-.326-3.228 3.17-5.344 6.168-10.856 9.696-15.836h3.554zm-13.896 0c.573.238.048.59 0 .97-.576-.236-.045-.588 0-.97zm-.323 5.493c1.365-1.758 2.557-3.695 3.876-5.493h3.56c-.222 1.18-1.223 1.576-1.615 2.587-.818.582-.923 1.882-1.946 2.26-.932 1.866-2.482 3.12-3.225 5.172-.94-.792-.587-2.868-.653-4.526zm26.82 74.328c-1.504.65-1.58 2.732-2.907 3.553h-10.02c-12.656 2.39-28.945 1.043-42.337.326-2.235.127-3.502 1.23-6.135.964-.19-1.696.57-2.445.323-4.2 1.344-.162 1.34-1.675 1.935-2.58.94-2.297.892-5.58 1.293-8.406-1.184-12.925-1.515-26.706-1.293-41.045.256-1.327-.493-1.653-.323-2.906.037-5.747.064-11.483-.966-16.16v-3.552c.274-.06.304.123.324.323 1.632.523 3.388.917 5.17 1.293 5.746-.132 11.972-1.3 17.775-.324 1.81.194 3.06-.17 4.2-.644.157 6.09.21 12.285.648 18.097-.17 3.29.72 5.528.645 8.722-.164 1.787.19 3.046.33 4.523-.022 1.533-.054 3.07.96 3.556.618-.144 1.955.438 1.625-.643.475-.168.81-.48 1.29-.646.937-.465 1.25-1.55 1.942-2.26 1.152-1.646 1.922-3.674 2.907-5.493.738-.555 1.63-.953 2.263-1.616.984-.303 1.01-1.57 2.26-1.614 1.505 1.946 3.545 3.35 4.848 5.493 2.29.945 3.22 3.242 6.14 3.553 2.21-1.016.974-5.49 1.295-8.4-.256-1.334.496-1.66.32-2.913V42.603c.33-1.572-.555-3.09 0-3.877.615.57 2.138.235 3.235.323-.813 6.623 2.763 8.87 6.46 10.986 1.75 17.1 2.01 35.693 2.59 53.968-.074 1.003-1.15 1.008-1.938 1.296-.52.555-1.21.946-1.937 1.29-.738 1.425-2.45 1.862-2.917 3.555zm7.434 3.23h-5.17c1.068-1.62 2.755-2.623 4.2-3.878.378-.05.576.07.647.324-.25 1.54.508 2.082.32 3.555zm-8.402-84.99c1.46 1.21 7.373 2.535 8.078-.323-.08-.89-1.202-.738-1.615-1.29-2.413.244-5.194.266-6.463 1.614zm1.936 2.91c-.238.736-1.845.098-1.618 1.29.46 1.273 3.06.385 4.523.647.835-.56 2.754-.045 2.585-1.613-1.22-1.404-3.49-.092-5.49-.324z" fill="#444"/></svg>