<svg xmlns="http://www.w3.org/2000/svg" width="128" height="128" viewBox="0 0 128 128"><path d="M121.613 65.65c-.82-6.99-1.358-14.258-1.61-21.822-.59-2.94-1.527-5.534-1.922-8.666-.68-1.028-.61-2.807-1.604-3.53-.36-1.458-1.692-1.944-2.563-2.89-2.41-.86-6.492-.82-9.31-.32H92.086c-1.83.1-4.05.768-5.454.32-.944-2.264-.578-5.835-.642-8.985-.683-2.205-1.283-4.49-2.57-6.097-3.313-1.647-9.924-1.568-14.436-.964-4.5.102-8.695.504-13.48.323-1.49.538-4.008.052-5.454.64-.34.728-2.02.12-2.888.32-.858.212-2.005.135-2.57.643-3.754.523-6.49 2.062-8.02 4.813-.472 1.666-.3 3.982-.325 6.098-2.072-1.205-5.312-.613-5.454 1.926.18.78.277 1.648 1.283 1.6.08.996 2.64-.5 2.25.966-5.01.782-10.653-.437-16.37 0-2.27.62-4.96.813-7.057 1.604-2.12 1.305-3.79 3.055-5.137 5.133-.333 6.553-.915 13.568.318 19.253v7.38c1.25 4.463.406 9.034.967 14.12.544.633.984 1.37 1.92 1.605.83.458 1.818.753 1.928 1.926-1.488 8.1.024 17.374-.322 26.315-.357 2.45-1.133 5.334.322 7.06 3.215 1.385 9.067.128 12.835.96 1.527-.187 2.96-.463 4.81-.32 3.845-.97 7.888-1.745 12.2-2.244 22.78.32 44.99 1.218 68.35.96 2.767-.552 5.916-.718 7.705-2.245.444-2.977.977-5.873 1.283-8.986-.608-4.418-.206-9.847-.32-14.76.218-4.966-1.152-9.916-.324-14.44.33-.312.65-.636.962-.96.798.044 1.563.058 1.604-.643 1.074-.428 2-.997 2.57-1.927.493-2.2-1.124-2.3-.96-4.17zM42.35 21.688c2.335-1.408 6.903-.582 9.305-1.927 9.862.762 17.72-2.154 26.955-.963.76 1.445 1.397 4.508.643 6.42-1.78-.112-3.224-.615-4.495.323-1.4.31-1.07 2.352-1.606 3.527-6.75-.12-13.17.096-19.57.32-1.057.016-1.6.544-2.892.323-.768-.197-2.325.402-2.566-.322-1.237.064-.34-2.01-.96-2.564-1.28-.544-3.388-.252-5.136-.323.15-1.562-.336-3.76.32-4.81zm-29.85 50.7c.142-.466.283.033.645 0-.08.406-.64.324-.644 0zm11.553 37.228c-1.627-.02-2.658.55-4.49.32-1.364-.245-3.8.593-4.176-.643-.416-1.385.666-1.264 1.285-1.605.373-.587.84-1.086 1.282-1.604v-4.17c2.976.234 4.733 1.682 6.1 3.53v4.17zm70.923-8.667c.003 1.82-.224 3.41-.64 4.813-1.756.672-3.09-.107-5.137 0-2.162.3-4.396.523-6.42.96h-6.737c-1.112-.254-1.233.48-2.246.325h-27.28c-1.955.39-4.358.346-6.736.322-1.65.485-4.16.12-5.453.96-1.936-.235-3.99.8-5.135.32.16-2.1.35-3.104-.32-4.815-1.252-3.344-4.184-5.016-7.06-6.737-1.172-.216-2.334-.446-3.852-.32.08-6.392-.235-12.384-1.283-17.65 5.677-.744 12.723-.112 18.936-.32 1.11-.257 1.232.475 2.246.32 4.034.03 8.29-.16 11.87.32.732.986.558 2.866 1.605 3.53.742.97 1.6 1.826 2.568 2.57 4.337.66 8.32-.236 12.84.32 3.356-.282 6.32-.952 8.344-2.56 1.7-.874 2.212-2.924 3.528-4.177 1.666-.47 3.98-.298 6.1-.32 7.47-1.187 14.62-2.704 23.103-2.89.515.093.55-.302.96-.322h2.248c1.024 2.187.58 5.84.96 8.665.192 2.912.414 5.797.643 8.667-.985.31-3.58-.17-5.135-.32-1.517.46-2.613.43-4.17.96-.34.117-.73.55-.965.644-.528.208-1.06.066-1.605.32-.892.414-1.675 1.43-2.886 1.926-1.053 1.408-1.51 3.415-2.892 4.49zm-77.34-30.166c.258.17.523.334.964.32.315 1.752-1.265 2.25-1.928 1.285.1-.758 1.115-.6.963-1.607zm18.292 0c1.195.243.176 1.522-.964 1.284-.283-1.028 1.056-.442.963-1.285zm16.69 5.135c.012-2.342 1.57-3.135 1.923-5.136 2.365.23 3.978-.3 5.777-.642 4.073.888 6.747-1.027 10.908-.958.198 1.837 1.35 2.717 1.926 4.168.217 1.82-.29 2.914-.64 4.173-4.35 1.425-9.234 2.32-14.442 2.888-1.483-.23-2.12-1.3-2.886-2.246-1.106-.5-2.24-.97-2.568-2.246zm59.363 29.522c-1.638.866-3.55.048-5.454 0-2.456-.064-5.013.59-7.06 0-.05-3.26 1.89-4.527 3.21-6.42 2.944-.522 6.62-1.514 9.95-.64-.005 2.57.17 5.305-.644 7.06zm-24.063-35.94h-6.42c-.412.017-.445.408-.962.32-1.46.036-1.31 1.684-2.564 1.926-.332-2.66-.92-5.073-1.924-7.06-1.58-1.308-4.082-1.693-6.738-1.925-3.584.373-6.55 1.365-9.948 1.923-2.77.203-4.58-.555-7.38-.32-1.364.456-2.585 1.053-3.532 1.926-.17 1.97.365 4.646-.32 6.098h-2.244c-1.27.41-.78-.936-1.608-.962-1.107.387-2.407.587-3.846.643-1.107-.503-1.39-1.823-1.93-2.887-1.467-.288-1.82.533-2.886.64.075-1.357-.026-2.54-.964-2.886-3.113.634-3.886 3.605-7.06 4.17.11-.746.33-1.38.962-1.602-1.323-.665-1.355-1.513-.64-2.885-1.333-1.022-1.92.923-3.207.96.672-.82.864-2.133 1.28-3.21-.073-.46-.527-.543-.64-.96-2.763-.307-3.003 1.914-5.134 2.243.3-2.01-1.212-2.213-1.93-3.21.363-1.358 1.026-2.403 1.29-3.852-.212-1.428-1.996-.58-2.568-.96.41-1.29 1.632-3.156.64-4.816-1.085-.12-1.37.558-1.925.962-.71-.14-.802 1.93-1.282.964-.037-1.858 1.406-2.23 1.605-3.85 1.013-.55 1.835-2.63.64-3.532-1.888.252-2.556 1.723-3.85 2.565.03.39-.467.2 0 0 .65-1.805 1.46-3.456 2.245-5.133.806-1.4 2.613-2.916 1.603-5.136-1.408-.336-1.052 1.088-2.245.963-.037-.39-.096-.755-.642-.64-1.405-.335-1.055 1.085-2.247.96V38.05c9.06-2.866 22.11-.015 32.412-1.282h5.455c7.182-.523 14.577-.827 22.144-.963 8.78-.53 17.937-.678 27.277-.64 4.012-.565 7.393-.03 11.875-.322 1.39 2.57 1.604 6.315 2.565 9.308-.452 8.263 1.71 13.91 1.604 21.825-8.642 1.515-18.372 1.948-26.953 3.528z" fill="#444"/></svg>