<svg xmlns="http://www.w3.org/2000/svg" width="128" height="128" viewBox="0 0 128 128"><path d="M105.98 91.576c-.42-6.376-.3-13.294-.303-20.083.14-13.734-.156-27.032-.914-39.867-.815-1.013-1.088-2.563-1.827-3.653-.686-1.14-1.062-2.59-2.432-3.042-2.155-.127-3.945.112-5.78.305-1.178-.16-1.488.544-2.742.304-.57.443-2.016.01-2.432.607-3.62.142-7.363 1.406-10.648.914-.154-3.693.955-7.643-.304-10.65-1.806-1.846-6.19-1.853-8.52-2.436-3.13-.782-6.813.593-9.74 0-.39.018-.42.39-.914.305-1.774.052-2.965.688-3.955 1.522-.497 2.04-.716 4.358-.61 6.997-.668.554-.054 2.383-.607 3.042-.158 1.165-.358 2.283-1.216 2.74-7.534-1.324-16.412-1.55-24.043-1.218-1.736 1.512-3.923 2.573-5.178 4.565-.864 5.22-.625 11.54-.91 17.346-.643 17.617-.016 36.5-.91 53.864.258 4.606.817 8.917 3.952 10.65 8.868.416 19.445-.015 28.606-.307 9.275-.665 18.357-1.525 28-1.824 3.38.232 7.966.67 11.26 0 2.056.026 3.875-.184 5.477-.61 2.15.115 4.084.024 5.172-.914 1.08-2.27 1.227-5.467 1.222-8.82.59-2.753.17-6.518.296-9.742zm-56.6-58.123c2.583-.155 4.9-.576 7.3-.913 2.313-.933 2.753-3.74 3.348-6.392.23-2.158-.378-3.475-.306-5.477 1.376-1.263 4.704-.573 6.7-1.217 2.83.107 5.65.232 7.906.91.565 2.897-.422 6.33-.302 9.74.687 1.65 3.72.947 5.478 1.522 2.26.174 5.234-.366 7 .303-.204 3.406-.132 5.376 0 8.827-2.6.526-7.13.464-9.74 0-2.095.54-5.053.22-7.608.303-3.858.606-8.75.175-13.084.304-1.344.078-2.357.484-3.957.303-1.33-.235-2.82.376-3.35 0 .916-2.027.534-5.352.612-8.213zm50.513 4.258c-.66 21.848-.942 45.39-.304 67.56-10.902.768-21.53 1.8-33.17 1.826-1.06-.245-1.173.456-2.133.304-6.242.043-12.91-.053-19.477 0-1.96.02-3.98.112-5.78 0-1.168.058-.112-.245-.307-.91.44-.068.107-.912.61-.912-.006-.957 1.003-1.7.304-2.434-2.453.39-2.61 3.067-4.26 4.258h-3.652c.734-2.308 1.565-4.52 2.435-6.693.284-1.238 1.14-1.903 1.218-3.347.47-.702 1.562-1.87.913-2.74-1.607-.287-1.712.927-2.434 1.522-.494.723-1.093 1.34-1.523 2.127-.968 1.467-2.01 2.86-2.74 4.57-1.168-1.69.91-2.738.61-4.57.703-1.22.82-3.034 1.522-4.258.53-3.325 1.79-5.92 2.435-9.13-.75-1.44-2.368.377-2.737 0 .274-2.97 1.393-5.098 1.82-7.913.592-1.03.63-2.617 1.22-3.65.157-1.467 1.373-1.87 1.22-3.652-.16-.757-.742-1.085-1.217-1.522-3.253-.512-3.84 1.637-4.565 3.656-.698-.623-.11-2.528-.305-3.656 1.867-4.928 3.14-10.453 5.784-14.606-.094-.62-.825-.597-.914-1.216-2.673-.24-3.3 1.568-3.957 3.345-.796-.524.43-1.578 0-2.74-.182-1.295.22-2.015.304-3.043-.136-2.368.542-3.925.304-6.395.883-.23-.28-2.507.608-2.735-.06-1.173-.013-2.243.304-3.044.027-2.1.72-3.54.914-5.475 1.835.008 3.746.094 5.173-.306 4.037 2.453 2.334 10.652 5.477 14 15.74.952 33.01.797 47.776-.913 2.362-3.845-.867-8.464-.913-12.78 2.767-.683 6.67-2.264 9.133-.61.757 1.33.853 4.39.303 6.082zm-32.866-6.085c1.733-.804 3.185-1.888 3.652-3.954.237-1.657-.468-2.37-.912-3.346-1.998-1.148-5.58-.62-6.696.912-.14 1.077-.676 1.756-.605 3.042.858 1.78 2.6 2.673 4.56 3.347zm-6.085 7.608c3.872-.18 6.592-1.522 10.955-1.214 1.61.316 3.09.767 4.868.91 1.335.25 3.65.385 3.654-1.522.52-.128-.065-.395 0-.915-.606-.004-.388-.83-1.22-.606-.384-.732-1.62-.614-2.133-1.22-5.845-.266-10.302.854-15.82.914-1.35-.07-2.218-.622-3.653-.607-.54.693.365 1.888.912 2.435.597.826 1.18 1.66 2.435 1.824zm25.26 23.13c-3.937 2.25-7.34 5.037-10.654 7.914-1.52 1.52-2.733 3.35-4.258 4.868-1.486 1.66-3.047 3.243-4.262 5.173-1.024.494-1.296 1.744-2.737 1.824-.624.9-1.35 1.693-2.434 2.133-.83-.693-1.696-1.352-2.436-2.133-.31-1.31-1.08-2.16-1.824-3.043-1.193-2.053-2.01-4.486-4.563-5.174-2.016.52-4.09.986-5.173 2.434-1.792.846-3.51 1.766-4.873 3.044 1.23 3.232 3.27 5.653 5.175 8.216.804 1.427 2.013 2.453 2.737 3.954.426.08.348.67.61.913.283.326 1.122.096.91.91.813.303 1.006 1.23 1.525 1.825 2.453 1.61 3.856 4.26 6.997 5.178 2.667-2.302 4.826-5.12 7-7.912 1.435-1.104 2.303-2.77 3.65-3.957.428-.788 1.03-1.403 1.52-2.127.468-.996 1.616-1.19 1.83-2.13 2.41-2.557 4.538-5.403 6.997-7.912.887-1.65 2.378-2.696 3.044-4.56 1.335-1.2 1.728-3.346 2.737-4.87.056-2.106.355-2.926 0-4.87-.355.255-.815.403-1.52.303z" fill="#444"/></svg>