<svg xmlns="http://www.w3.org/2000/svg" width="128" height="128" viewBox="0 0 128 128"><path d="M115.192 69.74c-2.308-3.02-4.484-6.17-8.288-7.697-1.702-.858-3.975-1.02-6.22-.592 1.66-3.866 3.482-7.572 4.148-12.432v-8.88c-.472-3.08-1.57-5.533-2.66-7.993-1.535-1.824-3.32-3.395-5.036-5.032-2.31-.946-4.463-2.054-7.4-2.37h-7.402c-.49.496-1.74.237-2.662.297-2.78.768-5.5 1.603-7.993 2.665-2.145 1.506-4.25 3.054-6.217 4.736-.635 1.243-1.885 1.868-2.368 3.254-1.342.633-1.358 2.592-2.663 3.26-.512-1.662-2.464-1.88-3.846-2.668-11.71-1.086-20.62 3.02-26.64 8.584-.29 1.193-1.15 1.813-1.78 2.667-.116 1.067-.394 1.973-.89 2.663v7.104c.342.352.337 1.045.3 1.777.52.76.218 2.348.885 2.96-.244.837.417.768.297 1.48-.04.392.996 1.1.3 1.184-1.95-.072-3.74.014-5.33.296-7.18 3.872-11.188 10.912-13.023 20.126-.133 2.404.128 4.413.294 6.512.483.51.896 1.077.89 2.073 3.275 4.818 8.378 7.805 15.984 8.29 2.258.09 4.293-.047 6.216-.297 1.59.384 3.365.576 5.032.885 17.013.914 33.937-.24 50.912-.292 3.133-1.11 7.776-.712 11.547-1.184.052-.437.714-.273 1.18-.296.196-.395.63-.552 1.183-.59.354-.734 1.013-1.16 1.775-1.484 1.683.203 2.432-.53 3.85-.592 1.72-1.34 3.393-2.722 4.737-4.44 1.43-2.42 2.447-5.25 2.955-8.588.26-6.076-.145-11.488-2.066-15.388zm-78.736-4.442c-.264.183-.533.358-.593 0 .075-.37.59-.3.594 0zm72.226 17.168c-.663.82-1.152 1.808-1.483 2.96-.735.845-1.356 1.805-1.777 2.958-1.715 1.344-2.443 3.672-4.736 4.442.573-.723.285-2.475 0-3.257-.23-.065-.587-.01-.59-.297-3.22-.062-4.227 2.09-4.443 5.032h-4.732c-.656-.646.29-1.207 0-2.366-.585-2.184-.54-4.99-2.073-6.217-4.132.213-5.81 2.873-7.697 5.327-.113 1.692.023 3.13 1.182 3.552-.41.675-2.06.11-2.96.296.198-.99.92-1.448 1.185-2.368-1.246-.875-2.042.794-2.665 1.48H77.6c.016.406-.14.652-.294.89-.463-.078-.206-.652 0-.89h.293c.858-2.1 2.16-3.757 3.256-5.623.91-1.694 3.243-3.413 2.073-6.216-3.466.09-3.91 3.2-6.22 4.442-1.77 1.88-3.482 3.82-5.03 5.92-.25.736-.39 1.586-.3 2.667-7.707.775-16.31.654-24.267 1.18.06-1.486.96-2.8.292-4.143-.23-.068-.587-.01-.592-.296-2.937.32-3.86 2.648-5.035 4.735h-2.07c.468-1.995 1.33-3.602 2.07-5.328-.12-.66.164-1.42 0-2.073-.19-.76-.338-.768-.89-1.182-3.08.667-3.92 3.578-5.917 5.328-.255 1.13-.88 1.883-1.187 2.96-1.094.207-1.267-.508-2.364-.297.133-2.95 3.014-4.64 2.363-7.4 0-.39-.515-.27-.59-.592-2.18.09-3.334 1.203-4.442 2.37-.788-.904.775-1.978.298-3.553-.35-.143-.672-.314-.89-.592-3.666.674-5.415 3.266-6.81 6.216-.994-1.015.413-2.14.297-3.256.744-.736.84-2.12 1.483-2.96.832-2.026 2.15-3.572 3.256-5.327-.162-1.218-1.1-1.66-2.663-1.48-2.292.763-3.482 2.632-4.735 4.44-.656-.484.414-1.74.592-2.37.498-.783.687-1.883 1.184-2.666.79-1.773 2.297-2.83 2.96-4.733-1.455-.576-2.927 1.148-3.847 2.073-.57-.21.058-1.69.594-1.78-.075-1.057.883-1.083.883-2.068 2.597-2.44 5.203-4.866 9.477-5.62 1.09-.008 1.307.86 1.775 1.476.51-.016.757.23.885.593.184.414 1.14.046 1.188.593 1.15-.23 1.664-1.097 2.663-1.48.235-1.344.416-2.736.885-3.847-.08-1.2-.94-1.624-.59-3.255.354-1.62 1.42-2.524 1.774-4.144-.082-1.307-1.566.16-1.775-.592-.117-1.795 1.263-2.093 2.074-2.96.57-1.205 2.037-1.51 2.368-2.96-.016-1.17-.608-1.762-1.778-1.776.615-1.062 1.457-1.9 2.072-2.96 4.37-1.656 13.06-3.987 17.168-.593-.064 3.52-.486 7.394 2.663 7.697 1.428-.053 1.945-1.013 2.074-2.368.344.248.793.39 1.476.295 1.643-.532 2.227-2.116 2.962-3.553.58-1.69 1.907-2.635 2.662-4.145 1.28-.89 2.088-2.254 3.554-2.96.78-1.49 3.383-1.154 3.55-3.257.08-1.367-.97-1.597-1.777-2.074-2.2-.227-2.975.97-4.44 1.484-1.678 1.18-3.138 2.578-4.733 3.846.03.356-.43.18 0 0-.075-1.062.888-1.086.888-2.072.966-.117.917-1.252 1.478-1.777 1.547-.927 2.784-2.154 4.736-2.666.485-.7 1.74-.63 2.37-1.184.93-.35 2.233-.33 2.96-.885.38.405 1.283.29 2.07.294.69-.097 1.22-.356 1.776-.593h5.326c2.995.358 4.98 1.73 6.81 3.257 1.228 1.83 2.132 3.984 2.664 6.51v5.92c-.547 6.068-3.152 10.07-5.035 14.802v2.368c0 .296.242.352.295.593.083.608.795.592 1.187.885 1.1-.31.955.625 1.478.89.836-.153 1.26-.716 2.072-.89h4.734c.252.442.956.43 1.483.594.123.373.383.604.884.593.578 1.4 1.722 2.226 2.37 3.55.714 1.262 1.188 2.757 1.78 4.145.044.35-.054.84.29.89-.463 2.493-1.106 4.81-1.47 7.4zM81.742 33.33c-.014.408.138.65.298.89 1.61-.065 3.558.202 4.733-.298-.245-1.504-3.915-.917-5.03-.592zM70.495 47.538c-1.832.832-2.933 2.394-4.442 3.552-.736 1.746-2.72 3.437-1.775 5.92.66.427 1.425.743 2.66.592 1.398-1.173 1.843-3.292 2.666-5.032.928-1.736 2.457-2.877 2.663-5.328-.56.066-.65-.334-1.183-.297-.006.392-.523.272-.593.592z" fill="#444"/></svg>