<svg xmlns="http://www.w3.org/2000/svg" width="128" height="128" viewBox="0 0 128 128"><path d="M55.484 24.544c1.312.31 2.8.442 3.043 1.824-.446 1.79-1.958 2.51-2.74 3.957-.557 2.05-1.848 4.733-.303 6.39.235.067.597.007.606.304 3.038.398 3.373-1.902 4.565-3.348.94-1.7 2.398-2.877 3.35-4.565.506-1.7.312-4.035 0-5.78-.844-.884-1.668-1.788-2.435-2.742-1.133-.187-1.916-.725-3.044-.91-.835-.588-2.23-.613-2.74-1.522.53-2.11 2.614-2.658 3.652-4.26 1.14-1.5 3.58-1.694 3.345-4.565-.553-1.843-2.66-.928-4.56-.912-2.157 1.698-4.468 3.238-6.39 5.173-.475 1.455-1.494 2.36-1.827 3.956-.235 2.767.97 4.1 2.13 5.476.988.634 2.946.3 3.35 1.52zm20.085 6.39c-.534.684-.726 1.71-1.22 2.43-.395.828-.743 1.694-.612 3.046.56.356 1.035.796 1.525 1.216 3.51-.37 4.115-4.117 3.345-7.91-.794-1.435-2.728-1.732-3.04-3.65.667-1.057 2-1.45 2.127-3.045-1.08-1.292-2.822.143-3.957.61-.52 1.204-1.168 2.278-.91 4.26.646 1.28 2.306 1.548 2.74 3.042zm-35.91 4.565c.462.854 2.17.464 2.434 1.52.953 2.328-1.79 4.442-.61 7 .24.067.6.007.61.303 3.798-.248 3.825-4.926 3.954-8.213-.354-.053-.33-.485-.303-.917-.725-1.3-2.77-1.288-3.044-3.042 1.39-.433 1.58-2.068 1.523-3.954-3.544-.723-5.65 2.41-6.392 5.48.566.65.62 1.813 1.828 1.824zm69.99 42.906c-.37-3.18-1.66-5.44-1.825-8.825-.672-.75-1.283-1.553-1.52-2.736-.774-.75-1.846-1.195-2.436-2.13-4.566-.304-10.672.933-13.09-1.52-.434-3.17.51-7.287-.302-10.65-.648-1.565 1.55-.278 1.218-1.523-.802-.212-.644-1.386-1.52-1.522-.193-.928-1.64-.594-1.83-1.52-1.538-.595-2.635-1.625-3.955-2.436-3.676-1.193-7.063-2.672-11.258-3.347-5.707.326-9.76-.994-15.525-.61-9.082 1.165-17.15 3.338-23.428 7.303-1.036-.085-1.753-.484-3.047-.304-1.71 1.74-2.98 3.917-3.957 6.39-.047.36.053.863-.3.913-.197 13.992.193 27.396 1.823 39.558-.033 9.57.54 18.535 2.433 26.173.433.888 1.675.964 2.435 1.52.768.655 1.594 1.253 2.434 1.828 5.23 1.444 10.997 1.968 17.043 2.432 6.02.467 12.357.768 18.867.608 6.38-1.123 11.407-3.605 15.827-6.695 1.315-1.716 2.59-3.487 3.953-5.172.117-1.602.55-2.9 1.522-3.652.004-1.26-.772-2.888 0-3.957 3.18.336 5.136-.543 7.307-1.217 1.68.155 2.867-.176 4.258-.306 2.046-1.2 4.066-2.426 4.866-4.87-.795-7.762.302-15.533.002-23.735zM36.005 51.932c2.056-.864 4.267-1.87 6.693-1.52 4.706-2.6 10.48-4.13 18.26-3.654 1.088-.33 2.365-.474 3.35-.91 2.388.268 4.647.168 6.996-.305 3.38.064 5.945.95 8.213 2.13 2.774.678 5.258 1.642 6.388 3.956.2 1.72-1.22 1.823-1.22 3.346-1.046.37-1.014 1.824-2.736 1.523.098-1.002.704-2.493 0-3.35-2.285-2.076-6.83-1.888-10.645-2.434h-12.48c-6.25.136-10.763 2.018-17.344 1.827-.95.27-1.42 1.018-2.436 1.216-.416.703-.533 1.698-1.824 1.524-.27.845-.382 1.85-.915 2.432-1.252-.163-2.06-.78-2.737-1.52-.794-.524-1.538-1.095-1.52-2.435 1.383-.325 2.537-1.23 3.957-1.826zm42.298 6.084c-.156-.156.22-.387.304-.303.16.158-.22.39-.303.304zm-2.13.608c-.157-.155.222-.386.306-.302.156.156-.22.387-.305.303zM62.482 54.67c1.63.197 3.25-.86 4.566 0-.75.57-2.084.554-3.044.913-.98.49-2.02.248-2.74-.305-.214-.827 1.436.217 1.22-.608zm6.39 4.563c1.805-.222 3.438-.622 5.48-.608-2.773 1.628-7.69 2.26-11.87 1.522 1.353-1.08 3.988-.88 6.39-.913zm-31.04 61.17c-.956.146-1.186-.433-1.824-.608.283-.65 2.21-.416 1.824.608zm49.604-6.085c-.373.13-.626.39-.608.912-1.44 1.504-3.313 2.566-5.173 3.652-4.823-.552-10.893.28-17.042 0-7.796-.355-15.93-.047-21.91-1.826.81-1.925 2.548-2.93 2.737-5.477-.34-1.174-1.304-.822-2.435-.61-.594.52-1.517.71-1.82 1.522-.58.54-.947 1.286-1.524 1.826-.06.675-.882 2.13-1.525 1.216-1.722-.02-.197-1.93.305-2.432.617-.907.942-2.1 1.827-2.737.934-2.107 2.98-3.106 3.345-5.784-1.57-.935-3.023.534-3.954 1.222-1.61.725-1.81 2.856-3.654 3.346v-3.656c1.754-2.71 3.272-5.653 4.565-8.82.412-.302.61-.816.912-1.22.444-.268 1.175-.246.91-1.22.21-.944-1.744-1.267-2.13-.608-1.064.053-1.53.7-1.826 1.523-.698.42-.98 1.253-1.52 1.826-.377.262-.843 1.96-1.22 1.22.146-1.254-.816.29-.91-.912.444-.26.964-.456.91-1.218v-2.736c1.255-1.792 2.023-4.066 3.35-5.784.767-2.176 2.254-3.627 3.043-5.78-1.158-1.1-2.912-.11-3.654.91-1.024.8-1.872 1.78-2.434 3.044-1.01-.006-.31-1.717-.914-2.13-.688.633-.95 1.687-1.216 2.74-.862-1.07-.557-3.3-.608-5.177 1.094-2.962 1.623-5.113 1.52-8.824-.255-.72-1.567.02-1.825.304-.664-.552-.053-2.383-.608-3.044v-7.608c4.626 2.25 9.475 3.996 17.04 3.653 2.197-.102 4.407-.554 6.694-.306.648-.144.58.433.61.912.245.26.834.18.91.608 8.225.31 14.173-1.656 18.87-4.868 1.65.026 2.528-.718 4.26-.608 1.398-.53 2.4-1.454 3.953-1.826h.304c1.025-.312.476.947.61 1.522-.124.734.554.66.303 1.52.34.876.064 2.374.608 3.046.1 2.334.51 4.36.912 6.387.066 9.8-.968 22.74-.303 33.475.132 2.09.602 4.158.912 6.086-.07 1.037-.764 1.46-.603 2.737zm11.563-10.958c-2.17.363-4.006 1.067-6.39 1.216-.89-1.888.526-3.87.607-5.78 2.443.11 3.965-.7 6.085-.912.41-.706 1.223-1.008.912-2.435.47-.645.877-1.356 1.218-2.13-.096-.704.05-1.17.304-1.523.354-7.354-1.106-12.893-1.218-19.78-.46-1.47-2.656-1.198-3.652-2.13-.507.51-1.78.244-2.736.303-.47.42-1.826.612-2.13.304.245-1.054-.454-1.17-.304-2.13 2.26-.13 3.765.495 5.78.61 2.02.176 3.217-.628 4.865 0 1.627 2.33 1.443 6.47 2.74 9.13-.222 8.56-.2 15.566.304 23.737-1.344 1.288-4.036 1.234-6.385 1.52zm-2.432-26.78v5.478c.352 3.4.52 6.987.91 10.347-1.05 1.178-2.34 2.123-4.258 2.434.085-6.478-.036-12.744-.303-18.868.683-.533 2.29-.15 3.044-.61.913-.306.537.678.608 1.22z" fill="#444"/></svg>