<svg xmlns="http://www.w3.org/2000/svg" width="128" height="128" viewBox="0 0 128 128"><path d="M64.768 29.585c4.094-.117 2.088-7.44 2.133-10.652-.084-1.845.325-4.18-.61-5.173h-.912c-.073.434-.504.512-.61.91-.066.24-.004.603-.302.61-.053 2.218-.632 4.7-.91 7-.3 2.422-.82 4.867.302 6.998.356.05.864-.05.91.307zm-18.87 5.476c1.027-.294 1.52-1.12 2.134-1.823.124-3.98-.85-6.86-1.826-9.74-.742-.168-.648-1.178-1.826-.913-.632-.437-1.005-1.032-1.52-1.52-.057-.05-.242.04-.307 0-.45.36-.47 1.148-.91 1.52v3.044c1.674 2.887-.286 9.41 4.255 9.432zm43.216 3.35c2.022.492 2.55-.678 3.35-1.52.778-.822 1.39-2.262 1.823-3.35.69-.837 1.312-1.9 1.525-2.737.165-.67.613-1.36.91-2.13.257-.658.848-1.328.61-2.13-.065-.24-.255-.353-.61-.305-1.882 1.465-3.284 3.41-5.172 4.868-1.195 1.997-3.972 3.53-3.345 6.393.433.17.74.473.91.913zm-64.818 3.347c.072-1.045 1.973-.258 1.824-1.52-.35-3.1-2.79-4.108-3.652-6.695-1.178-.34-1.557-1.486-2.736-1.824-.42.39-.302 1.32-.305 2.127-.725.697-1.73 1.11-1.828 2.434.266 3.49 1.546 5.964 4.566 6.695.88-.23 1.75-.48 2.13-1.216zM99.154 56.67c-2.06-1.898-4.114-3.796-6.387-5.48-.64-1.592-2.16-2.303-2.74-3.954-1.265-1.07-1.932-2.733-3.348-3.652-4.242-.323-8.082-1.045-12.174-1.52-5.566.086-12.337.01-17.043-.305-.18-.014-.36.065-.304.303-3.033.064-6.256.683-9.128 0-3.035 1.732-6.176 3.358-9.435 4.87-1.36 1.377-2.386 3.092-3.957 4.258-3.328 1.95-5.892 4.66-9.13 6.697-1.126 1.205-1.038 3.63-2.74 4.26-1.54.89-1.2 3.67-1.824 5.478.715 1.52 1.486 2.98 2.432 4.26.956 1.28 1.523 2.945 2.74 3.956 1.23 3.238 3.722 5.212 4.566 8.827 2.293 1.662 3.32 4.59 5.48 6.39.523 1.502 1.756 2.3 2.432 3.653.727 1.298 1.752 2.304 2.432 3.65 3.674 4.342 7.68 8.35 10.652 13.392 3.032 2.648 5.893 5.467 8.827 8.218 2.027.61 3.5 1.77 5.478 2.434.56-.93 1.444.352 2.436 0 4.37-1.312 6.55-4.817 9.432-7.61 2.313-3.366 4.776-6.585 6.997-10.042 1.603-2.833 3.984-5.79 5.48-8.216.175-.286.467-.384.608-.608.248-.39.334-1.114.608-1.525.092-.134.5-.158.608-.303.192-.25.15-.686.304-.91.688-.987 1.29-1.584 1.824-2.436.258-.41.336-1.094.61-1.522.085-.13.504-.164.608-.304.19-.252.145-.688.306-.912.97-1.4 1.722-2.706 2.736-3.957 2.165-5.338 5.25-9.76 5.477-17.042-.364-.757-.443-1.792-.61-2.738-1.002-2.95-2.75-5.16-4.258-7.608zm-73.95 10.954c-.153-.158.225-.388.307-.305.16.16-.218.39-.305.305zM89.42 56.06h.91c.934 1.298 2.04 2.422 3.045 3.652.85 1.278 2.225 2.034 2.736 3.652-2.91 1.65-6.297 2.83-9.13 4.565-2.07-1.078-1.752-4.54-3.347-6.087.688-3.17 4.21-3.504 5.784-5.784zm-39.564-9.436c6.92.992 14.38 1.442 22.52 1.216 2.984.367 6.108.59 8.826 1.22 1.822-.1 3.044.407 4.258.912.91.715 1.307 1.944 2.133 2.74-1.92 2.644-5.16 3.97-7.915 5.78-8.766-3.776-22.645 1.026-32.258-1.824-.45-.56-1.267-.76-1.52-1.523-.65-.366-1.66-.37-1.825-1.216-1.134-.798-2.54-1.317-3.045-2.742 3.418-1.045 6.123-2.805 8.826-4.563zm-4.258 20.693c.452-.258.44-.98.608-1.522.504-1.016.708-2.33 1.216-3.346 9.043-2.322 20.992-1.733 32.256-1.828-.22 3.872 2.133 5.173 2.434 8.52-5.92.673-12.925.26-18.867.914-4.904-1.085-11.036-.934-17.04-.914.24-1.052-.336-1.284-.607-1.826zM27.945 63.36c.232-1.288 1.422-1.623 2.13-2.432.896-.627 1.668-1.376 2.74-1.828 1.475-1.465 3.367-2.515 4.866-3.955-.08-.49.29-.523.307-.912.075.037.24-.048.304 0 2.243 1.632 3.53 3.96 6.39 4.867-.59 1.338-1.33 2.525-2.13 3.653-.486 1.34-1.648 2.002-1.825 3.652-4.173-1.102-8.026-2.524-12.78-3.044zm28.305 44.736c-1.103-1.13-1.967-2.496-3.044-3.65-2.52-6.614-6.374-11.887-10.044-17.348-3.373-5.757-7.25-11.008-10.653-16.736.163-.437-1.185-.74-.304-.912 3.77.693 6.834 2.095 10.044 3.35 2.848 6.584 5.646 13.22 8.826 19.476 1.173 3.488 3 6.33 4.258 9.737.712 1.62 1.723 2.94 2.128 4.868.9 1.436 1.675 2.995 2.13 4.87-1.746-.583-2.068-2.598-3.342-3.654zm13.083 7.304c-1.66-.567-2.208-2.253-3.043-3.652-1.248-.883-1.355-2.907-2.434-3.954-.395-3.46-1.95-5.76-2.432-9.13-.66-1.268-.875-2.98-1.528-4.262-.15-1.672-.94-2.713-1.214-4.26-1.877-5.732-3.813-11.405-6.392-16.432.782-.843 3.458.21 4.262-.608 2.98.366 6.106.59 8.516 1.52H76.94c2.403-.15 4.754-1.573 6.695-1.22.384 2.252-.97 5.025-1.83 7-.852 2.29-1.687 4.6-2.13 7.303-4.587 8.09-7.43 17.925-10.344 27.69zm30.432-45.04c-.363.958-1.026 1.612-1.218 2.742-.475.843-.947 1.692-1.218 2.736-2.156 4.24-4.69 8.096-6.693 12.475-2.373 2.805-3.675 6.673-6.39 9.13-.698 1.945-2.035 3.244-3.045 4.87-1.288 1.247-1.973 3.092-3.35 4.258-.9-.532.178-1.62 0-2.43.338-.577.392-1.44.61-2.134.39-1.433.81-2.84 1.522-3.955 2.894-8.365 8.153-14.367 9.13-24.65 2.636-2.537 6.815-3.53 9.737-5.78h.304c1.378-.28 1.01 2.19.613 2.74zm17.347-23.735c-.05.354-.483.33-.914.305-1.21 1.125-2.736 1.928-3.954 3.043-1.297 1.14-3.584 1.288-3.045 4.26 2.132 1.684 4.06-.628 5.78-1.218 1.36-1.984 3.763-2.927 3.955-6.084-.715.01-.896-.525-1.824-.304z" fill="#444"/></svg>