<svg xmlns="http://www.w3.org/2000/svg" width="128" height="128" viewBox="0 0 128 128"><path d="M121.568 106.127V95.584c-.463-1.645-.267-3.95-.3-6.02-.5-.305-.332-1.28-.604-1.807-1.65-3.15-6.37-4.092-9.936-3.01-.98.292-1.694.157-2.41.298.315-2.21-.566-4.18 0-5.722-.754-.75-.566-2.44-.904-3.616-2.703-.907-6.51-.718-9.333-1.504-7.028-.316-11.944.62-18.068.603-.032-1.875-.504-3.315-.3-5.42 1.8-.306 3.918-.297 5.718-.603 1.315.21 1.696-.512 3.012-.3.915-.19 2.597.383 3.013-.302 1.018.684 1.46 1.95 3.61 1.507.275-.53 1.107-.498 1.206-1.205.37-.538.057-1.752.603-2.11V43.787c.334-1.973 1.36-3.26 1.205-5.72-1.134-2.08-4.34-2.087-6.325-3.316-1.038.132-1.69-.12-2.41-.3-12.41-.063-23.713.98-35.238 1.805.46-2.26-1.405-2.205-2.11-3.312.545-1.56 2.188-2.027 2.11-4.215-.043-.86-1.257-.552-2.11-.602-.338-.565-1.166-.64-1.503-1.205.853-1.05 2.253-1.56 3.31-2.41 1.008-.727 1.184-3.115.606-4.516-3.437-1.275-7.53.5-6.025 4.215-1.566.34-3.293.52-3.01 2.708.07 1.233 1.254 1.355 2.41 1.508.443.962 2.166.64 3.01 1.205-.638 1.868-3.404 1.612-3.613 3.916-.008 1.01.416 1.593.904 2.108.26.37 1.936.834 1.205 1.205-2.78 1.036-6.668.96-9.64 1.804-1.487 3.032-.94 8.092-1.504 12.05v9.936c-.243 2.556-.914 5.845 0 7.83.77.312 2.072 1.087 3.01.3.825.48 1.82.79 3.012.905h15.057c.008 1.894.592 3.22.604 5.12-3.018.105-5.758-.07-8.438-.302-7.484.644-13.434 2.827-21.38 3.01-.05.353-.475.33-.907.3-.572 1.035-2.213.996-2.71 2.112-.308 2.567 1.334 4.62.908 6.322-.94-.367-1.91-.7-3.315-.6-3.15.76-5.632 2.197-7.227 4.515-1.268 4.15-1.967 8.873-1.805 14.458.56.745.31 2.3.905 3.01.17.53-.366 1.77.3 1.807.175.53-.364 1.77.302 1.807.464 2.344.367 5.255 2.71 5.72 3.21-.13 2.268-3.615 1.508-5.72-.418-2.7-.898-5.328-1.51-7.83-.18-4.7.33-8.705 1.51-12.048 1.834-1.472 4.554-2.067 7.525-2.41.574 4.345 1.552 8.29 2.11 12.648-.29 5.105.494 9.138 1.2 13.252.3 1.005 1.57 1.045 1.81 2.11.138 1.167.778 1.83 2.106 1.806 1.452-.053 1.982-1.03 2.113-2.41v-4.818c-.544-.866-.58-2.235-.91-3.313-.074-8.35-.814-16.047-2.107-23.186 5.008-1.013 9.024-3.023 14.155-3.915 4.97-1.16 11.227-1.028 16.566-1.81 10.557-.333 19.936-.71 30.72-.3 2.298 1.013 5.632.992 8.43 1.507.85 8.783-.252 19.524.6 28.31v5.117c.432 1.38.4 3.22 2.11 3.312 1.822-.79 1.462-3.76 1.51-6.328v-23.49c3.45.163 7.997-.77 9.035 1.807v18.973c-.303 1.696-1.005 5.355 1.206 5.423 1.826.123 2.57-.842 2.41-2.712.214-1.49.41-2.997.3-4.814zM30.318 82.03h-.605v-.6h.604v.6zM74.284 69.99c-.9-.435-1.835 1.053-1.803-.302h3.912c-.09 1.9.048 3.567.3 5.12-2.983.576-1.558-3.26-2.412-4.818zm-.302-5.122c-.722.183-2.187-.38-2.41.3-7.367.04-14.134-.522-21.682-.3-1.626.485-4.21.008-5.122 1.205-.843-.303.087-1.28 0-1.806v-7.228c-.136-3.076-.452-5.97-.3-9.335-.345-1.762-.34-3.875-.3-6.02 5.863-.06 10.42-1.426 16.26-1.505 5.916.09 11.6-.048 17.17-.302.483.085.514-.285.906-.3 4.83.287 10.98-.746 14.45.903-1.655 6.556-.67 15.667-.6 23.187-3.736-.018-7.04.39-10.24.907-2.137-.23-3.44.373-5.424.3l-2.71-.003zM87.53 44.99c-.234-.066-.35-.25-.298-.6-.31-.79-1.195-1.013-1.507-1.806-3.904-1.73-7.576.462-8.128 3.915.107 2.2.162 4.452 1.203 5.722 5.13 2.01 9.06-1.842 8.73-7.232zm-3.007 2.41c-.08 2.087-2.192 3.555-4.216 2.71.595-1.895 2.795-6.087 4.216-2.71zm-24.395-1.508c-.864-1.762-3.602-2.928-6.325-2.41-1.152.22-1.913 1.076-2.71 1.506.018.52-.228.773-.6.904.046 1.856-.652 2.965-.6 4.82.443.054.272.726.3 1.204.377.123.612.388.6.904 1.082.622 2.08 1.336 3.615 1.504 1.66.058 2.77-.44 3.915-.902 1.36-1.754 2.023-4.197 1.806-7.53zm-3.313 5.725c-1.216.526-2.89-.05-3.915-.6.27-1.237 1.13-1.882 1.205-3.313.685-.52 1.682-.725 3.01-.603.337 1.356.594 3.59-.302 4.52zM77.9 55.232c-2.14-.648-4.614.46-6.93-.3-2.194 1.183-4.43.522-7.528.6-.643.56-2 .407-2.41 1.204-.893.41-1.317 1.29-1.806 2.108-.18 1.688.16 2.85.604 3.915 1.835 1.487 5.397.727 7.83.3 3.978-.04 8.358.33 10.538-1.505 1.257-1.352 1.333-5.357-.3-6.325zm-12.95 4.82c-.596.486-2.192.967-3.014.3.11-1.7 1.488-2.13 3.014-2.41v2.11zm4.82 0h-1.812c.245-1.046-.444-1.16-.3-2.11.39-.417 1.31-.298 2.113-.3v2.408zm6.622-.303c-.974.614-2.053.66-3.313.3v-2.407h3.31v2.107zm-26.5 38.847c3.732-.882 7.846-1.387 12.044-1.803 1.09-5.323-.144-10.888-3.612-12.648h-5.122c-3.595 1.32-6.645 3.192-9.338 5.42-.22.882-.727 1.482-1.2 2.11-.053.45.105 1.114-.305 1.204.345 2.032-.577 4.128 0 5.422 1.628.936 4.724-.032 7.53.296zm-4.817-3.01c-.203-1.707.272-2.735.6-3.915 1.647-1.86 4.145-2.88 6.322-4.218h5.12c1.298 1.414 1.732 3.693 1.504 6.627-1.068-.255-1.802.872-2.105-.302-.454-.45-1.27-.538-1.504-1.205-1.44-.155-2.587-1.904-4.22-.903-.176 1.083.352 1.455.6 2.108.336.203 1.563 1.003.907 1.205-1.958.65-4.576.64-7.224.603zm50.592-9.636c-.936 1.057-.94 2.58-.603 4.214.802 1.363 3.877 1.534 5.723.907.446-1.06.783-2.228.604-3.914-.93-1.355-3.967-2.515-5.722-1.205zm3.314 3.316c-.782.18-1.085-.123-.902-.904.28.32 1.11.093.903.904zm-14.755-2.112c-.418 1.94-.526 4.523.6 5.724 1.26.747 3.386.632 5.42.602 1.556-1.058 2.708-2.512 2.41-5.422-1.296-2.352-6.52-3.362-8.43-.9zm3.01 2.41c.4-.426 1.708-.426 2.113 0 .163.73-2.357 1.09-2.112 0zm-14.153.6c.508 1.243.495 2.348 1.507 3.015.037.022.666.32.6.298 2.255.676 5.684-.823 6.023-3.313.126-1.533-.464-2.347-.907-3.31-2.793-2.192-7.083.044-7.226 3.31zm3.61-.598v-.904c.387-.416 1.8-.525 1.81.302.085.965-1.318 1.096-1.81.603zm38.55.6c-1.945-1.046-4.032.11-3.31 2.712.664.34 1.002 1.006 1.808 1.205.626-.38 1.267-.738 1.805-1.205-.062-.94.203-2.208-.302-2.713zM22.786 96.49c.954.413 1.007.065 2.112 0 1.053-1.026.91-2.536.3-3.917-2.25-1.295-3.29 2.116-2.412 3.917zm49.696 8.13c-.66.646-2.47.142-3.012.906-1.425-.117-2.515.096-3.616.3-2.7.013-4.783.64-7.528.602-2.184.427-4.82.402-7.232.6-1.513-.207-2.096.512-3.608.302-1.408 0-2.45.366-2.41 1.808 1.002 1.42 3.558.903 5.718.903h6.626c3.05-.465 6.14-.887 9.638-.902.224-.683 1.688-.117 2.41-.302.354-.548 1.567-.238 2.107-.603 1.38-.427 3.216-.398 3.312-2.107-.188-1.115-.93-1.68-2.41-1.504zm11.44 6.025c.547.657 1.014 1.395 2.412 1.203 1.342-.467 1.94-1.675 1.805-3.616-1.275-2.766-4.566-.675-4.217 2.41zm-23.188 1.805c-1.935.17-3.53.69-5.42.904H51.7c-1.062.442-2.817.196-3.613.907 1.43.476 3.19.623 4.818.902h7.23c1.938-.773 5.585.165 5.418-2.71-.965-1.468-3.422-.03-4.82-.002z" fill="#444"/></svg>