<svg xmlns="http://www.w3.org/2000/svg" width="128" height="128" viewBox="0 0 128 128"><path d="M118.933 42.398c-.902-.723-1.45-1.798-2.133-2.738-.453-.355-1.243-.378-1.52-.912-.896-.02-1.714-.11-1.525-1.216-.693-4.533 1.713-8.8-.305-11.87-1.358-1.31-3.22-.367-5.778-.608h-7c-1.66-.163-3.205-.448-4.866-.608-12.32.154-24.535.416-36.825.608-2.618.42-5.245.837-7.91 1.216-.98-1.045-1.39-2.66-2.128-3.953-.64-1.49-1.935-2.325-3.042-3.35-3.844-1.937-10.56-1.004-16.128-1.215-4.388.89-8.203 2.35-13.39 2.434-1.002.523-1.44 1.606-2.438 2.13-.83.69-2.552.486-3.04 1.522-.46.88-1.255 2.684-1.525 3.347-.662 1.664.03 4.032-.606 6.086.015 11.65-.437 23.766 1.52 33.475 1.215 6.787.44 13.902 1.522 20.998.142 3.846.072 7.6.61 10.957.542 3.374 1.798 6.253 3.35 8.517.994.117 1.34.89 2.127 1.218.725.49 1.95.484 2.74.913 2.14.29 4.132.734 6.692.608 4.866.098 9.517-.02 13.694-.608 7.327.23 13.72-.48 20.997-.304 6.888-1.02 14.848-.975 22.823-.912 4.023.843 8.6 1.14 13.39 1.216.67.55 2.167.267 3.04.61 3.596-.056 7.502.195 10.655-.304 1.23-.81 2.133-2.07 2.737-3.044.113-.184.497-.398.608-.608 1.547-2.87 1.528-6.368 2.432-9.74.123-9.108 1.18-17.283 1.525-26.17-.128-9.206.296-18.966-.306-27.694zm-63.605-13.39c7.867-.488 15.99-.395 23.736-.304 7.642.087 15.077.398 21.91 1.52h7.306c.026 2.358-.525 4.144-.304 6.696-4.292-.986-7.59-2.96-13.086-2.74-.745-.573-1.28.054-2.74 0H80.29c-1.26.24-1.565-.466-2.738-.304h-21.31c-.725-.186-2.208.382-2.432-.304-1.227.21-.515-1.515-1.22-1.824.08-1.1-.562-1.47-.606-2.436 1.25.038 1.904-.53 3.347-.304zm58.123 36.517c-.133 3.52-.142 6.475-.605 10.347-.075.65-.14 1.963-.304 3.35-.204 1.727-.412 5.07-.912 7.608v5.173c-.437 4.226-.732 8.597-2.432 11.566-6.693.404-11.683-.897-17.954-.914-.402-1.406 1.41-2.99 1.22-5.173-.417-1.006-.612-2.233-1.825-2.435-2.306-.173-2.735 1.53-3.957 2.435-.3 1.624-1.333 2.522-1.522 4.26h-6.7c1.318-4.467 4.182-7.388 5.178-12.174-.273-.534-.68-.942-1.216-1.217-3.06-.018-3.1 2.987-4.867 4.26-.91 2.034-2.18 3.707-3.044 5.78-.465 1.145-.78 1.97-.306 3.35-3.477-.13-6.415.282-9.438.608.02-1.308.944-2.228 1.523-3.348 1.578-3.05 3.028-6.392 4.867-9.435.74-2.023 2.275-4.25 3.35-6.39.244-.485.32-1.242.607-1.827.66-1.342 2.382-2.912.608-4.562-1.845-.123-2.155 1.294-3.04 2.128-.763.966-1.457 1.995-2.133 3.044-1.132 2.317-2.742 4.155-3.653 6.692-1.574 1.877-2.406 4.495-3.652 6.695-1.13 2.322-2.9 4-3.042 7.303-3.69.405-7.34-.015-11.872.608.616-2.125 1.865-3.613 2.74-5.477.797-1.837 1.85-3.423 2.434-5.48.95-1.687 1.62-3.65 2.737-5.172.193-1.13.86-1.78 1.22-2.737.425-.895 1.604-1.036 1.52-2.434-.257-1.403-2.924-1.005-3.65-.305-.804.822-1.196 2.052-2.127 2.742-.538 1.088-.917 2.33-1.83 3.04-.404 1.224-.784 2.462-1.823 3.046-2.11 4.48-5.36 7.827-7 12.78-2.966-.232-4.997.477-7.91.304 1.45-3.825 3.14-7.41 5.172-10.65.757-1.883 2.17-3.105 2.738-5.176 1.052-1.067 3.025-3.467 1.523-5.173-3.025-.288-3.413 2.067-5.175 3.043-.206 1.21-1.338 1.502-1.824 2.435-.486.835-1.136 1.502-1.52 2.437-1.22 1.523-2.267 3.21-3.045 5.17-1.324 1.313-1.836 3.444-2.738 5.174-.275 1.394.507 1.727.61 2.742h-5.785c-1.423-.02.354-.697.302-1.22.44-.473.404-1.42.913-1.825.2-1.525 1.156-2.293 1.216-3.96 1.263-2.183 2.07-4.823 3.042-7.3 1.24-2.315 1.875-5.23 3.35-7.307.458-1.266.863-2.586 1.825-3.35.258-1.223 1.632-2.6.306-3.65-1.312-.613-2.315.654-3.35 1.218-.842.883-1.45 2.002-2.434 2.737-.38 1.344-1.41 2.042-1.825 3.35-.82.906-1.18 2.27-1.826 3.346-2.1 4.803-4.178 9.622-5.785 14.913-.05.96-.013 1.837.608 2.13-.89.77-1.606-1.22-1.83-2.13-.506-1.013-.55-2.494-.91-3.652-.053-.762.465-.953.91-1.22.63-.08.29-1.132.915-1.215.597-2.752 1.587-5.11 2.435-7.61.896-2.452 1.57-5.122 2.737-7.304.485-2.864 1.75-4.946 2.435-7.608.966-.757.86-2.592 1.824-3.35.106-1.508 1.03-2.6 0-3.65-2.56-.14-3.2 1.966-4.564 3.35-.98 1.655-1.803 3.472-2.738 5.172-1.534 3.644-3.39 6.958-4.565 10.955-.878-.135.272-2.3-.608-2.433-.078-.996 1.18-.645 1.218-1.523.82-.092.546-1.28 1.216-1.523.46-2.378 1.247-4.428 1.827-6.692.893-1.845 1.088-4.392 2.133-6.088.48-2.352 1.54-4.132 2.126-6.39.558-.858.942-1.898 1.216-3.042.862-.46 1.064-1.58 1.22-2.74-.18-.633-.642-.982-.914-1.522-1.62-.203-2.603.235-3.346.914-.09.62-.825.597-.917 1.218 0 .467-.826 1-.605 0 .785-1.346 1.13-3.133 1.523-4.868.752-1.277 1.416-2.638 1.216-4.87-2.194-1.51-3.85-.067-4.87 1.522-.42.65-.985 2.217-1.522 3.043-.975 2.98-2.194 5.717-3.044 8.826-1.17-1.48-.203-3.663.305-5.175-.022-3.47.52-6.376.303-10.04.843-4.94-.248-11.815.608-16.737h4.868c3.435-.32 6.27-1.237 9.74-1.522 3.52.134 7.615-.31 10.652.304.008.3.373.235.606.303 2.778 3.107 3.66 8.11 5.48 12.174.763.658 1.884.96 2.435 1.824.792.12 1.665.158 2.128.612 14.748.358 28.395-1.02 42.606-.305 3.383.47 6.635 1.077 9.434 2.13 2.712 1.04 6.42 1.088 8.82 2.434.603 1.545.093 3.188 0 4.26-.145 6.23.21 11.798 0 17.05z" fill="#444"/></svg>