<svg xmlns="http://www.w3.org/2000/svg" width="128" height="128" viewBox="0 0 128 128"><path d="M101.253 16.7c-3.78-.913-7.78-1.613-12.168-1.92-.996.18-1.39.955-2.243 1.28-5.058 1.026-10.313 1.857-14.093 4.162-4.515 1.572-7.14 5.032-10.572 7.686-.63 1.614-2.23 2.248-2.56 4.163-1.383.967-1.48 3.22-2.563 4.484-.454 1.788-1.173 3.31-1.92 4.806-.747 1.603-2.374 2.323-2.562 4.484-.807 1.34.696 1.427.32 3.2-.4 4.94-1.303 9.374-1.28 14.733-.496.466-.284 1.64-.324 2.563-.45.614-.847 1.287-.958 2.24.037 1.137 1.184 1.165.957 2.563v4.162c.412 1.406 1.642.33 1.923.642-5.235 5.547-11.91 9.658-16.014 16.334-5.107-2.12-12.96-1.22-16.332 1.924-.83 1.736-1.658 3.47-1.925 5.76-.036 2.072.444 5.402 1.28 6.086.1.08-.064.523 0 .643.075.14.506.46.644.64 1.102 1.474 2.543 2.754 3.84 3.523 2.973 1.76 7.486 2.528 11.53 2.244-.278 1.986.5 2.915.96 4.16 2.284 1.778 4.585 3.53 8.01 4.164 3.31.103 6.055-.356 8.967-.643 3.08-2.367 4.957-5.932 4.803-11.53-1.747-3.797-3.902-7.2-6.402-10.248 3-3.51 5.757-7.266 9.608-9.93.528-.54.693-1.44 1.28-1.92 0-1.072 1.29-.85 1.602-1.603 1.184.844 3.43.628 5.446.643 5.65-1.397 11.633-2.464 16.334-4.808 5.168-1.98 10.1-4.206 14.09-7.366 2.04-1.486 3.614-3.436 5.765-4.803 1.695-1.933 3.29-3.972 5.124-5.763 2.233-4.924 5.166-9.144 5.767-15.697v-4.163c-1.972-12.435-7.52-21.305-16.337-26.897zm-48.04 57.01h2.243c.096.737-.928.357-.962.96-1.037-.396-.243 1.04-1.28.64v-1.6zm-14.41 38.433c-.17-.165.23-.41.32-.32.163.165-.232.41-.32.32zm9.602-14.095c-.125 1.515.107 2.672.324 3.844.495 1.423 2.143 1.7 3.2 2.562 1.266 2.36 2.47 4.787 2.883 8.006-.42 2.142-1.28 3.845-2.884 4.804-4.046.096-7.414-.485-9.29-2.56.185-1.46-.564-1.995-.32-3.525.265-1.223-.682-1.24-1.28-1.603 1.413-1.052 2.303-6.023-.64-6.082-1.2.08-1.452 1.11-1.92 1.923-.073 1.212-1.007 1.557-1.283 2.56-1.284.318-1.678 1.528-3.523 1.282-2.045-.195-3.154-1.33-4.48-2.243-1.547-.7-2.546-1.94-3.525-3.204V99.33c.788-1.557 2.15-2.546 3.523-3.525 1.224-.27 2.564-.42 4.16-.32 1.355.355 2.63.79 3.844 1.28 1.81-.216 2.184-1.87 3.52-2.558 1.525-.398 2.23-1.62 3.53-2.244 3.594-3.125 6.647-6.8 10.244-9.928 1.046-1.09 2.623-1.648 3.207-3.202v-1.6c1.365-.008-.226 1.67.32 2.88-.736.448-.12 2.23-.32 3.203.24 1.144.738 2.034 1.92 2.242-3.933 3.97-8.13 7.67-11.21 12.49zm63.097-45.803c-1.1-.14-1.796.128-2.562.324-.175 1.454.165 2.396.96 2.88-1.995 5.375-7.06 7.674-11.53 10.57-1.764-.37-1.868-2.402-3.845-2.56-1.358-.077-1.9.663-2.245 1.6-.006 1.928 1.55 2.293 2.244 3.523-.323.853-1.298 1.056-1.927 1.6-.84.442-1.1 1.46-2.243 1.602-1.26 1.3-2.908 2.214-5.122 2.56-1.263 1.195-3.438 1.475-5.127 2.244-1.278 0-1.923.64-3.2.643-.736.548-2.257.302-2.882.958-1.04-.027-.227-1.908-1.602-1.6.022.45-.93.366-.322.643-.023.873.535.643 0 1.28-2.912.397-4.98 1.636-6.083 3.843H60.89c-.307-1.16 1.383-.325 1.602-.958.452-1.257.22-3.196.958-4.162.224-1.29-1.346-.786-1.28-1.923-.382-.79-1.096-1.252-1.92-1.602.657-1.687 2.57-2.122 2.562-4.48-.2-1.15-2.155-.536-2.88-.323-.416.868-1.643.92-1.925 1.923-.727-.44.512-1.596.958-1.923.125-1.05.94-1.414 1.283-2.243 1.008-1.565 2.54-2.585 3.2-4.162-1.2-1.57-4.248-.175-4.803.962-.877-1.216 1.19-2.22 1.603-3.204.683-1.237 2.157-1.685 2.563-3.203-.81-1.42-3.757-.378-4.165.64-.94-.653.435-1.675.643-2.243.297-.875.98-1.365 1.28-2.24.89-1.458 2.083-2.617 2.88-4.165.68-.818 1.986-1.004 2.245-2.243.277-1.02-.5-.99-.643-1.6-3.77-.25-4.352 2.688-6.405 4.163.307 1.33-.957.064 0 0v-.96c.7-1.114 1.336-2.298 1.923-3.524.82-1.1 1.743-2.1 2.244-3.522 1.107-1.028 2.3-1.97 2.88-3.525.186-1.146-.947-.972-1.922-.96 1.62-3.29 3.45-6.375 7.365-7.367 1.43-.464.34-1.54 1.28-2.243 1.353-.784 2.997-1.276 4.163-2.24 1.19.224 1.374-.55 2.562-.322 2.258-1.267 5.704-1.34 8.647-1.922h5.12c1.46.36 2.43 1.205 3.847 1.6 1.31.032 2.622.064 3.52-.32 1.266-.087.98 1.37 2.243 1.282 1.532 2.208 3.488 3.982 4.804 6.405.275 1.54 1.33 2.3 1.604 3.843.667 1.254.798 3.045 1.6 4.164-.224 1.397.547 1.803.32 3.202.42.86.864 1.7 1.284 2.56.27 2.715-.32 4.576-.63 6.723zm-33.305-20.81c-.7 2.67 2.42 3.666 3.842 2.243.228-2.13-1.996-3.238-3.844-2.244zm17.93 2.56c-.106 2.003 2.473 2.755 4.164 1.922.893-2.883-3.195-3.838-4.16-1.923zm-5.44 10.25c-.244 2.272.606 3.45 2.884 3.203.445-1.45.176-2.856-.643-3.845-.994-.032-1.53.39-2.24.64zm-22.42.64c-1.335 1.16-1.84 6.846.958 6.723 1.613-.843 1.648-3.264 1.604-5.76-.71-.474-1.38-.978-2.563-.964zm9.606 21.137h1.282c1.294-1.38.165-3.377-.32-4.804-3.75-.82-3.26 4.376-.962 4.804z" fill="#444"/></svg>