<svg xmlns="http://www.w3.org/2000/svg" width="128" height="128" viewBox="0 0 128 128"><path d="M115.475 56.35c-1.137-3.804-3.285-6.596-5.152-9.666-2.325-1.973-4.765-3.83-7.416-5.477-3.147-1.26-6.208-2.6-9.984-3.224h-12.25c-2.353.55-4.84.962-7.41 1.29-.587-.815-2.517-.276-3.22-.967-.944-.565-1.228-1.78-1.292-3.22 3.42.733 7.984 1.433 11.926.642 1.493-.975 2.8-2.14 4.194-3.22 1.144-1.324 1.965-2.977 3.22-4.19.84-3.975 3.813-7.242 2.578-12.246-3.95-1.635-9.95-1.22-15.467-1.29-1.002.394-2.044.75-3.547.645-3.704 2.42-6.507 5.74-9.022 9.344-1.413-1.162-2.25-2.903-3.543-4.187-1.75-.828-2.227-2.928-5.152-2.578-1.21-.026-.085 2.283-1.29 2.257-.412.77-1.18 1.184-.972 2.578 2.88 5.71 8.683 8.505 10.958 14.822-4.308-1.276-9.455-1.717-15.143-1.61-7.513 2.26-13.77 5.775-19.66 9.666-.984 1.054-1.62 2.46-2.897 3.22-.02.946-.736 1.198-1.29 1.612-.197.875-.64 1.51-1.29 1.935-.212 1.288-.8 2.208-1.285 3.22-.338 1.28-.75 2.478-1.294 3.545.236.986-.55.95-.32 1.934.044.427-1.085 1.2-.323 1.288-.064 1.547-.496 2.727-.642 4.19v13.21c.5 7.233 2.26 13.213 4.832 18.373 1.477 2.39 2.608 5.126 4.512 7.09 1.852 2.117 3.74 4.205 5.477 6.445 4.203 3.1 7.783 6.822 13.21 8.7 3.773.852 8.626.618 12.894.967 1.548-.282 2.247-1.404 4.188-1.29 1.91-1.425 3.747-2.913 6.446-3.544 2.592-.226 4.38.344 5.8 1.29 1.38-.202 1.315 1.048 2.577.965.104 1.083 2.038.326 2.256 1.29 1.15-.03 2.21-.153 2.577-.967.8.382 1.897.468 2.9.645 1.61-.866 4.067-.878 6.124-1.288 2.287-1.476 5.01-2.51 7.09-4.192 2.263-1.604 4.11-3.63 6.45-5.155 2.59-3.96 6.03-7.072 7.728-11.925 2.243-4.31 3.64-9.463 4.51-15.144V68.6c-.544-4.402-1.138-8.753-2.58-12.25zM66.82 27.99c.518-.548.972-1.172.96-2.253 1.607-1.083 2.584-2.79 3.868-4.192.986.015 1.257-.68 1.933-.966h11.284c-.203 2.81-2.155 3.868-2.58 6.445-1.63 1.27-2.607 3.19-4.51 4.19-4.56.05-9.21.182-12.246-1.29.046-1.026 1.192-.957 1.29-1.934zM27.82 75.043c-1.1-.173-.493-1.552-.32-2.256 1.444-.026-.197 1.192.32 2.256zm81.853 6.123c-.427 2.58-1.312 4.7-1.61 7.413-.95 5.173-3.933 8.316-6.772 11.6-.194.77-.465 1.47-.323 2.577-1.71 1.84-3.387 3.706-5.478 5.156-2.94 1.038-6.594 1.358-9.668 2.256h-3.54c-1.183-.21-2.167-.624-3.545-.643-1.266.025-2.014.565-2.902.965-3.467-.998-7.197.245-10.31.644-1.24.058-.698-1.666-1.937-1.61-2.21-.067-2.414 1.88-3.22 3.22-2.277-.24-2.76 1.32-4.832 1.288.184-1.894.742-3.872-.968-4.512-1.4-.22-1.785.58-2.253 1.29-.61.033-.224 1.065-.968.966-.073.466-.963.11-.97.643-1.603-1.62.588-5.46-.643-7.736-1.87-.362-2.344.667-3.546.97.137-1.534-.466-2.325-.64-3.547-.64-.64-1.842-.203-2.58 0-.204-1.192-.223-2.566-1.29-2.9-3.234-.226-3.595 2.422-4.192 4.833-.732-.445-.117-2.244-.32-3.22.672-.513.11-2.256.648-2.902-.006-.856.12-1.842-.326-2.256.47-2.577 1.453-6.23.646-9.02-2.72-.36-2.514 2.21-3.224 3.866-.917-.734.454-1.888 0-3.22.092-1.093.512-1.852.324-3.225.508-.675.67-1.697.644-2.902.832-.443.072-1.977 0-2.58-2.49.09-2.994 2.164-3.546 4.193-1.536-.852-.02-3.182-.322-4.83.678-3.514 1.675-6.704 2.578-9.994.912-.808 1.024-2.414 1.936-3.22-.213-.865-.925-1.225-1.29-1.934-1.26-.32-1.874.71-2.58 0 .56-1.803 1.12-3.608 1.934-5.158.437-1.813 1.888-2.62 1.936-4.832-.304-1.31-1.33-1.893-3.224-1.61 1.13-2.737 4.448-3.284 6.445-5.158.98.015 1.253-.68 1.93-.963.502-.466 1.51-.43 1.938-.967 1.626-.31 3.215-.653 4.835-.968 5.368.218 11.72-.55 16.11.645.582 1.457.228 3.85.323 5.8-2.072.3-3.787.155-5.8-.322-2.114.034-4.764-.466-4.835 1.61.154 2 1.742 2.558 3.547 2.902 1.22.925 3.213 1.084 4.832 1.61h8.378c3.556-1.06 6.925-2.314 10.315-3.54.9-1.146 1.792-2.293 1.933-4.192-.117-1.277-.933-1.858-1.933-2.256-2.14-.096-3.157.923-4.192 1.933-2.256.103-3.373 1.352-5.8 1.29.02-1.487-.144-3.15.32-4.19 1.966-.244 2.923.514 4.835.323 1.42.128.843-1.736 1.934-1.93 3.95-.897 8.33.145 12.57 0 4.527.948 8.576 2.378 11.922 4.51 1.04-.285.443 1.06 1.29.965.096.656.87.633.965 1.29 1.083.423 1.34 1.67 2.258 2.257.062 1.22.283 2.288.643 3.22-.194 6.96 1.42 12.116 2.577 17.723-.464 2.652-.76 5.472-.966 8.382zm-23.848-6.447c2.27-1.405 2.173-5.608.647-7.733-6.097-1.756-6.63 8.928-.647 7.733zm14.827-6.443c-.305.986-1.568 1.01-1.615 2.254.138 2.55.095 5.275 3.22 4.835 1.48-1.93 1.504-7.008-1.608-7.09zm-6.77 6.443c-4.587-.092-3.098 6.563-2.9 10.315 1.148.036 1.17 1.19 2.577.965 1.157.08 1.185-.966 2.26-.966.768-3.825.43-8.624-1.935-10.315z" fill="#444"/></svg>