<svg xmlns="http://www.w3.org/2000/svg" width="128" height="128" viewBox="0 0 128 128"><path d="M115.52 48.107c-5.44-.96-11.733.213-17.28.32.533-1.6 1.707-2.453 2.56-3.627.96-1.28 2.027-2.347 3.307-3.307-.213-2.667 1.813-3.093 2.24-5.12 0-1.067-.747-1.387-1.067-2.24-.853-.213.107-2.24-.747-2.56-2.987-4.16-7.04-7.147-10.24-10.987-1.6-.853-1.92-2.987-4.373-2.987-2.347.532-3.2 2.666-5.12 3.626-.747 1.28-1.28 2.56-2.56 3.307-.747 1.387-1.28 2.88-2.987 3.307-1.6-.107-3.093-.427-4.053-1.067-.96-2.667 0-6.293 0-9.173.747-1.6 1.6-3.093 1.493-5.547-1.067-1.493-3.52-1.6-6.293-1.493h-8.107c-2.88 1.067-8.213-.427-10.667 1.067-2.667 2.987-1.067 10.24-1.493 15.467-1.493.427-2.133 1.813-3.627 2.24-1.067-2.88-3.52-4.373-4.373-7.36-1.173-.747-1.387-2.56-2.24-3.627-.747-1.173-.96-2.987-2.987-2.987-2.24-.213-2.453 1.707-4.053 2.24-.747 1.28-2.133 2.027-2.987 3.307-2.453 1.813-4.16 4.373-6.613 6.293-.107 1.387-1.387 1.6-1.493 2.987-.32 1.067-2.24.747-1.813 2.56 1.6 5.867 6.507 8.533 8.853 13.547-.747 1.387-.64 3.52-1.493 4.8-2.56-.107-5.44.107-8.107 0s-5.653-1.173-7.36.747c-.747 1.6-.32 4.908 0 6.614v6.613c.32 3.84 1.493 6.827 2.987 9.6 5.76.213 10.347-.96 15.467-1.493-.32 2.347.96 2.88.747 5.12-2.56 3.627-5.972 6.507-9.172 9.6-.533.533-.533 1.707-1.067 2.24-.64.64-1.492.96-1.492 2.24 1.067 4.055 4.16 6.08 6.293 9.175 3.2 2.24 4.8 6.08 8.854 6.932 3.093-1.173 5.12-3.413 7.68-5.12.96-1.067 2.24-1.92 3.307-2.987 1.28-.533 2.028-3.2 4.054-1.813.747.32.427 2.56 0 2.987v4.052c-.107 1.707 1.707 1.493 1.493 3.307.107 2.132.32 4.052.747 5.866 2.453 2.347 6.827 2.773 11.733 2.56 1.813-.427 2.987-1.493 4.8-1.813h5.867c1.493-.747 2.027-2.453 2.987-3.627-.746-3.84.534-7.147.748-10.987 1.493-.214 2.88-.534 4.373-.748 1.068 1.813 2.24 3.627 3.628 5.12 1.067 1.92 2.88 2.987 5.12 3.627 1.493-.32 1.813-1.92 3.627-1.814 2.24-2.24 3.947-4.907 6.293-6.933.853-1.387 1.6-2.773 2.987-3.627.427-1.707 2.56-1.92 2.987-3.627.747-.108.107-1.6.747-1.812.426-.427.426-1.28.32-2.24-.748-2.453-2.56-3.733-4.054-5.547-.747-.857-1.173-2.03-2.24-2.563 0-.747-.96-.427-.747-1.493-.32-.107-1.6-.96-.748-1.067 5.12-.213 7.787.533 11.733 0 .533-.853 1.28-1.387 1.813-2.24-.107-1.493 1.6-1.173 1.493-2.56.64-5.333 1.068-10.987 1.494-16.533-.64-3.733.427-6.613-1.173-8.747zm-95.573 19.84c-.213-.213.213-.427.32-.32.213.107-.213.32-.32.32zm89.6-7.36c-.853 3.2-.213 7.893-1.813 10.24-3.413.107-7.467-.32-10.24.32-.96.213-.747-.747-1.067-1.067-.747-.107-.96-.747-1.813-.747-3.413.213-3.2 4.16-4.373 6.613.854 3.413 2.774 5.867 5.12 7.68 1.814 2.667 3.734 5.013 5.868 7.36-.107.853-1.813.107-2.56.32-2.347 1.28-3.733 3.627-5.867 5.12-.426 1.493-1.92 2.027-2.24 3.627-2.132-1.6-3.092-4.587-4.8-6.613-.96-.213-1.92-.533-2.56-1.067-2.986 1.173-6.826 1.493-9.92 2.56-1.172.427-1.386 1.813-2.24 2.56.428 4.053-.746 6.507-.746 10.24-2.133.107-3.52-.64-5.867-.32.853-2.24 1.493-4.587 1.813-7.36.747-.747.427-2.453 1.067-3.307-.107-1.387.96-2.88 0-4.053-1.493.107-1.92 1.28-2.24 2.56-.427 1.28-1.173 2.24-1.067 4.053-1.28 2.133-1.28 5.547-2.24 8.107h-4.373c-.107-.853.107-1.387.32-1.813 1.067.107.32-1.387 1.067-1.493.107-4.587 2.347-8.853 1.813-12.907-2.56-.427-1.92 2.24-2.987 3.307-.32.853-.747 1.387-.747 2.56-.853.213-.107 2.133-1.493 1.813-.427-2.027-.747-2.56-.32-4.8-.64-2.453-2.88-3.52-5.547-4.053-.213-2.453 1.92-4.373.747-6.613-1.92-.213-2.453.96-2.56 2.56-.747.96-.96 2.453-1.067 4.053-2.667 2.347-5.013 5.013-8.107 6.933 0 .427-.533.213 0 0 .427-3.733 2.773-7.467 2.24-10.987-1.92.427-1.6 3.093-2.987 4.053-.32 2.027-.96 3.733-1.494 5.547-.107 1.173.427 1.813 1.493 1.813-.534 1.387-2.348 1.6-2.988 2.987-.96-.427-1.28-1.493-2.24-1.813.213-1.067.533-1.92.747-2.987-.214-2.987.532-4.8.746-7.36.64-.107.213-1.28.747-1.493 0-.747.96-.427.747-1.493-.107-.747-.747-.96-1.067-1.493-4.267.64-4.16 5.653-5.12 9.6-1.173-.533-1.173-2.24-2.24-2.987 1.493-3.093 4.16-5.12 5.867-8.107.853-.427 2.24-.213 2.987-.747.213-.853.533-1.707.32-2.987-.213-1.173 1.173-.853.747-2.24-.533-3.307-1.28-6.293-2.56-8.853-.64 0-.96-.32-1.067-.747-1.6-.32-2.24.533-3.627.32.427-2.773 3.733-4.16 2.56-7.36-3.307-.32-3.52 2.347-5.547 3.307-.213 1.707-1.92 2.027-1.813 4.053-1.387-.32-1.707.427-2.987.32.96-1.173 1.92-2.56 2.24-4.373.853-1.493 1.707-2.88 2.24-4.8-1.493-1.173-3.627.32-4.053 1.493-.853-.32.747-1.92-.32-2.56-2.027-.747-2.24 1.6-3.307.747v-2.24c2.773.64 7.253.64 9.6-.32 1.92.427 2.773.213 4.8 0 .64-.32 1.173-.853 1.493-1.493.32-1.6-.747-1.707-1.067-2.56 1.172-2.453-1.174-5.013-.32-6.933-.32-1.493 2.026.427 2.56-.747 1.066-.213 1.066-1.387 1.492-2.24-.427-2.56-2.56-3.307-4.053-4.8-1.92-.96-3.094-2.773-5.12-3.627.106-1.387 1.6-1.387 2.24-2.24.532-.853 1.28-1.6 2.24-2.24.532-.853 1.28-1.6 2.24-2.24.852-.747 1.386-1.813 2.986-1.813.533 2.347 2.24 3.627 3.307 5.547 1.493 1.493 1.813 4.267 4.053 5.12h1.067c1.813 0 2.133-1.493 2.56-2.987 1.173-.107 1.387-1.067 2.24-1.493.853 0 1.067.64 2.24.32 3.093-1.493 1.387-7.893 1.813-12.16 2.987.533 5.547 1.493 9.173 1.493 1.92-.213 2.88-1.6 5.12-1.493v7.36c.64 2.24 0 5.867 1.812 6.933 2.133.427 1.28-2.24 2.56-2.56 1.493-.32 1.92.533 3.307.32.96.533 1.066 1.813 2.56 1.813 2.772-.213 3.732-2.133 5.866-2.987 1.707-1.067 2.88-2.453 4.373-3.627 1.92-.108 1.92 1.706 3.306 2.24 1.173.852 2.027 1.92 3.307 2.56 1.067 2.026 2.987 3.092 3.627 5.546-3.84 1.28-3.84 6.4-8.427 6.933-.853 3.626-.747 9.28 2.24 10.24 1.067.106 1.92-.108 2.24-.748 3.093 2.453 9.067.32 13.547.747.107 1.92-.32 5.012-.213 7.146zm-27.52-.747c-.533-1.067-1.173-2.027-1.493-3.307-1.067-1.493-2.56-2.56-3.307-4.373-.96.107-1.173-.533-1.493-1.067-2.027-.747-3.52-2.133-5.867-2.56-2.027-.853-4.907-.96-7.36-1.493h-4.8c-.213 0-.427.107-.32.32h-.747c-.96.533-2.133.747-2.56 1.813-.533.213-.853.533-1.067 1.067-.533.213-1.92-.427-1.813.32-1.067.32-1.813 1.067-2.24 2.24-1.6-.213-1.92.96-2.987 1.493-1.92 3.84-3.093 8.427-2.56 14.72.747 1.173 1.067 2.88 1.813 4.053.853 1.173 1.92 2.24 2.56 3.627 2.133 1.92 4.16 3.947 6.613 5.547 2.986.853 6.186 1.387 9.92 1.493.426-.32.96-.533 1.812-.32 3.84-1.493 7.573-2.987 10.667-5.12.852-1.28 2.24-2.133 2.986-3.627 1.067-1.28 1.707-2.88 2.56-4.373 0-3.733.32-7.573-.32-10.453zM68.053 76.693c-4.267.213-7.893-.213-10.987-1.067-2.133-1.707-4.373-3.2-5.547-5.867-.64-4.268-.534-8.428 0-12.48.64-.534 1.386-1.068 2.56-1.494.106 0 .64.107.746 0 .427-.533 2.667-1.28 4.053-1.493 2.986-.427 6.08.427 9.172.32 1.28 1.28 3.52 1.6 4.053 3.627.747.64 1.707.96 1.813 2.24 1.387-.213 1.173 1.28 1.813 1.813.64 8-2.88 11.84-7.68 14.4z" fill="#444"/></svg>