<svg xmlns="http://www.w3.org/2000/svg" width="128" height="128" viewBox="0 0 128 128"><path d="M118.25 49.344c-1.327-1.18-3.278-1.88-5.497-1.297-2.645-.163-4.626.336-6.797.648H92.373c-1.305-.208-3.44.42-4.203-.325.47-.715 2.112-.256 2.587-.97 1.125-.172 1.722-.865 2.912-.972 1.25-.904 2.388-1.923 3.884-2.586 1.19-1.507 2.654-2.73 3.883-4.205.992-1.702 2.416-2.973 3.235-4.85.617-1.97 1.168-4.007.968-6.796-.378-.052-.352-.51-.32-.967-1.035-2.205-2.995-3.483-4.533-5.177-2.065-.31-3.5-1.248-5.498-1.62-3.332-.097-6.417.052-9.38.323-.556.526-1.18.98-2.262.97-1.14.913-2.197 1.906-3.563 2.59-1.383 1.74-2.912 3.34-4.205 5.173-1.34 1.79-2.194 4.062-3.883 5.504-.206 2.38-1.528 3.648-1.94 5.822-1.31-.313-2.207-1.03-3.88-.974-1.26.264-3.368.995-4.204.648-.783-4.288-2.062-8.078-3.236-11.97-1.483-3.694-3.217-7.134-6.147-9.383-1.444-.276-2.662-.78-4.53-.642-2.685.763-4.982 1.917-7.114 3.232-2.382 2.686-4.483 5.655-4.205 10.997.822 5.003 3.36 8.288 6.145 11.325 2.264 1.402 4.62 2.716 6.795 4.205-3.125.648-7.363.184-11 .322-3.356.632-6.703 1.272-10.348 1.62-1.517.533-3.357.742-5.175.97-.613.358-1.53.413-2.266.645-.793.286-1.866.29-1.94 1.296-.925.047-.593 1.35-.646 2.262.228 1.202-.555 1.39-.322 2.59v5.824c-.73.245-.128 1.816-.326 2.59v2.91c.013 2.035-.205 4.304.648 5.5 1.21.625 2.894.772 4.853.644 1.303.637 3.976-.094 5.178.644-.322 9.493-.683 18.944-.974 28.467.79 3.527.996 7.63 2.915 10.026 3.157.512 7.05.282 10.674.325 17.326 1.438 34.694 2.828 53.697 2.59 3.983.504 9.813 1.267 13.583 0 1.55-2.008 2.138-4.98 2.59-8.085v-29.11c-.477-.063-.297-.78-.323-1.296-.558-.417-.006-1.932-.97-1.94.32-.895-1.84-.913-.652-1.616 2.155.112 4.03.504 6.475.32 1.192-.958 2.747-1.562 3.234-3.23 1.23-7.767-1.198-15.467-.33-22.965zM71.023 43.52c1.003.03 1.543-.397 2.264-.648 2.93-5.8 6.22-11.247 10.353-15.85 1.25-.253 2.11-.908 2.91-1.62 2.175-.302 4.556-.404 7.113-.32 2.898.55 5.184 1.714 6.468 3.882-.447 3.97-2.42 6.42-4.53 8.734-1.293.97-2.32 2.203-3.877 2.912-1.18.97-2.906 1.408-3.887 2.59-2.624.174-4.477 1.125-6.144 2.26-.405 1.608 2.098 1.98 1.617 2.59-4.204-.107-8.118-.507-12.615-.324.64-.87.195-2.825.33-4.203zm13.583 4.527c-.006.315-.395.25-.644.322.008-.318.393-.25.645-.323zm-23.613-1.62c.68-.186.925-.8 1.944-.644.663-.09.644-.864.97-1.29 1.266.316 1.878-.716 2.587 0-.222 1.3.31 1.842.325 2.908h-4.2c-1.092-.204-3.006.42-3.56-.32-.227-.906 1.61-1.37 1.937-.65zm-15.85-8.085c-1.37-2.727-3.36-4.835-2.91-9.38.48-.275.696-.816.644-1.617 1.924-1.67 4.43-4.99 7.76-3.236 2.508 2.996 3.59 7.412 4.534 11.97.36 1.47 1.216 2.448 1.617 3.88.102.76.507 1.215.32 2.267.917-.053-.267 1.99.648 1.94-.988.86-2.546-.462-3.558-.647-1.104-.512-2.443-.792-3.236-1.618-2.46-.663-3.97-2.28-5.82-3.56zM22.824 70.368c-.567-4.472-.49-11.044 0-15.53 5.242.175 9.84-.294 13.91-1.293 7.482.15 14.514-.153 21.67-.324-.74 4.54-.677 9.89-.644 15.203.447 1.06 1.042 1.978 2.59 1.94-.45.737-2.254.118-3.238.326H46.765c-6.877-1.053-16.594-.8-23.94-.324zm34.286 39.467c-.138-1.05.43-2.803-.642-2.915-1.205-.017-.933 1.443-.97 2.592-2.308.04-4.577.046-6.47-.325.282-1.534 1.952-2.542.646-3.883-2.22.157-2.357 2.38-3.558 3.557-.93.44-3.054-.276-4.853 0 .282-2.516 2.115-3.487 2.59-5.823.73-.672.924-1.877 1.613-2.586.514-.785 1.21-1.38.973-2.91-1.966-.746-3.212 1.356-4.53 2.265-.714 1.547-1.87 2.656-2.587 4.203-.664.523-.817 1.557-1.293 2.266-.57.51-.427 1.733-.973 2.264-1.28.208-.422-1.542 0-1.618-.08-.946.733-.994.646-1.938.5-1.233 1.303-2.15 1.62-3.56 1.06-.666 1.232-2.215 1.938-3.235.468-.96 2.054-2.076 1.295-3.234-.755-.843-2.684-.113-3.232.32-.785.512-1.43 1.163-1.94 1.947-.678.62-1.35 1.237-1.62 2.26-1.016.278-.72 1.868-1.94 1.942-.378-4.045 2.044-5.286 2.59-8.414.857-.973 1.06-2.6 1.617-3.883.462-1.06 1.122-3.075 0-3.88-2.056.208-3.154 1.376-3.883 2.912-.816-1.01.107-3.776-.65-4.85V78.45c.24-.99-.556-.953-.323-1.94v-.972c9.096.506 18 1.195 27.82.973-.88 11.314-.116 23.568 1.296 33.64-1.992.16-3.093-.574-5.18-.318zm5.18-55.318c-.106-.752.054-1.242.327-1.618.373.27.866.424 1.614.322-.342.736-.982 1.178-1.94 1.294zM65.53 97.54c-.713-.04-.14-1.377-.322-1.942.352-1.58 1.96-1.92 2.587-3.235.373-.053.576.072.644.328v4.85c-.757.753-2.157.865-2.59 1.942-.712-.043-.135-1.37-.32-1.94zm2.264 3.233c1.005.07.544 1.61.644 2.592-.907-.376-1.683-.376-2.59 0 .05-1.46 1.718-1.3 1.946-2.592zm.322 8.412c.435.098.264.81.322 1.294-.943-.283-.363-.484-.322-1.294zm.322-.97c-.418-.447-1.404-.32-2.264-.325-.178-2.012 1.71-1.956 1.94-3.556.742.66.114 2.686.324 3.88zm0-19.734c-1.806-.078-2.144 1.31-3.56 1.62.655-1.936 2.716-2.462 2.913-4.85-1.014-1.1-1.918.65-2.913.643.098-1.52 1.327-1.91 2.267-2.586-.21-1.287.856-1.303.646-2.592-.296-1.084-.604-.156-1.62-.322.495-1.444 1.693-2.19 1.942-3.88.373-.056.576.067.644.322.075 4.064-.565 7.41-.32 11.648zm0-17.788c.347-.84 1.17-1.205 1.293-2.267.098-.85-.447-1.062-1.295-.97.122-1.527-.025-2.777-1.62-2.59.125-1.6 1.866-1.585 1.62-3.556.24-1.426-1.047-1.327-1.293-2.265-.632-.45-.994-1.166-1.938-1.295.6-1.657 2.067-2.46 2.26-4.527 1.857.08 4.122-.24 5.5.323-.406 5.376-.48 11.46 0 16.82-.966.65-3.055.182-4.53.324zm35.584 5.82c-.11.758-.388 1.336-.646 1.94-.02 1.58.53 3.243.646 4.853.203 2.845-.192 5.784-.326 8.736-.28 6.437.414 13.068-.322 19.086-4.793-.3-9.77-.644-14.878-.644-5.035 0-10.14.725-14.88 0 .064-11.6.006-23.083-.647-33.966 2.617-.078 5.632.238 7.765-.325 3.125.65 7.362.187 10.997.326 2.134-.235 4.22-.523 6.466-.647 1.1-.09 2.627.25 3.235-.33 1.185-.102 2.865.278 3.558-.32h.644c-.252.714-1.13.807-1.615 1.292zm7.762-8.086h-4.853c-8.886 1.675-19.542 1.59-29.76 1.94-.022-5.48-.197-10.804-.645-15.85.183-.467.504-.787.97-.97 10.632 1.47 23.855 1.623 35.58.97-.352 4.718-.572 9.56-1.29 13.91z" fill="#444"/></svg>