<svg xmlns="http://www.w3.org/2000/svg" width="128" height="128" viewBox="0 0 128 128"><path d="M114.816 36.506c-.412-.198-.565-.648-.608-1.21-.678-.737-1.27-1.558-1.813-2.424-.526-.987-1.515-1.515-1.82-2.724-1.536-1.286-2.95-2.7-4.237-4.238-1.552-1.373-3.342-2.51-4.843-3.936-1.43-1.392-3.056-2.596-4.54-3.933-1.583-1.34-2.94-2.913-4.847-3.935-2.165-.352-3.712-1.33-6.052-1.51-2.42-.103-4.224-.824-6.96-.607-4.405-.27-10.675-.63-15.138-.302-.184.014-.352.047-.3.302h-.607c-3.914-.28-6.524.742-9.684 1.21-.196.615-1.416.2-1.515.91-.96-.05-1.012.805-2.12.606-3.863 2.19-7.528 4.576-11.2 6.962-3.965 2.09-6.828 5.28-9.99 8.173-1.247 2.082-2.9 3.756-3.935 6.053-.273 1.44-1.807 1.623-2.117 3.026-1.05.663-1.296 2.132-2.42 2.723-.4 1.216-1.19 2.04-1.82 3.026-.523 1.19-1.08 2.346-1.813 3.33-.31 1.408-.907 2.526-1.515 3.632.15.956-.547 1.07-.304 2.118-.8.11-.27 1.544-.907 1.818-.196 2.73-.57 5.282-.91 7.872.497 3.335.115 7.552.91 10.594.186 3.648 1.307 6.36 1.813 9.685 1.393 2.04 2.224 4.64 3.635 6.66.313 1.4 1.07 2.356 1.818 3.327.352.456.378 1.237.907 1.515.523.388.823.996.91 1.816 8.138 8.512 18.062 15.235 32.087 17.86 14.955 3.04 31.986.13 42.382-5.146 1.453-1.27 3.162-2.283 4.84-3.328 1.65-1.68 2.955-3.708 4.843-5.147.567-1.555 1.726-2.512 2.42-3.934.95-1.274 1.516-2.928 2.73-3.936-.047-.752.155-1.257.604-1.515.164-.538.154-1.257.602-1.515.38-1.03.65-2.173 1.216-3.025.638-2.183 1.346-4.302 2.116-6.357 1.18-4.567 2.176-9.326 2.725-14.528.564-12.072-1.025-21.988-4.54-29.973zm-47.83 29.36c-6.845-.116-14.213.29-20.586-.3-.71-6.716.228-14.267.91-20.585 5.86.798 12.206 1.115 18.464 1.514.184 6.68.666 13.056 1.212 19.374zm-13.02-46.01c1.86-.763 4.385-.863 6.054-1.816 1.12-.192 3.02.392 3.635-.304h.907c-.826 7.568.365 14.974.608 22.402-5.42-.54-11.49-.42-16.653-1.213 1.186-6.987 3.204-13.143 5.45-19.07zM37.322 31.662c.618-.527.593.227 1.213-.3.384-1.03 1.073-1.754 1.51-2.727 1.102-.917 2.392-1.645 3.03-3.027 2.237-1.088 3.564-3.093 6.05-3.934-2.01 5.152-4.05 10.278-5.145 16.347-3.7-.234-5.873-2-9.383-2.422.558-1.664 2.203-2.24 2.725-3.936zM23.09 51.943c.835-1.187 1.598-2.44 1.82-4.238 1.384-.836 1.72-2.718 2.723-3.936 1.028-1.19 1.886-2.553 3.025-3.63.107-.4.533-.48.608-.91 3.44 1.905 7.13 3.563 11.2 4.843-1.117 6.552-1.685 13.654-1.813 21.19-7.06-.206-13.795-.738-19.376-2.42-.265-4.505 1.27-7.206 1.813-10.9zm8.478 40.566c-.63-.58-1.26-1.163-1.512-2.12-1.457-.965-1.867-2.976-3.03-4.24-1.494-3.348-3.018-6.668-4.237-10.29-.182-.786.118-1.09.91-.91-.884-2.044-2.364-3.49-2.422-6.357 5.92 1.545 13.163 1.768 19.674 2.725.113 7.15 1.664 12.866 2.725 19.072-3.293 1.35-6.874 2.41-9.988 3.933-1.115-.198-1.51-1.116-2.12-1.816zm12.41 10.592c-.8-.608-1.695-1.127-2.722-1.513-.555-.864-1.664-1.163-2.42-1.817-.63-.785-1.774-1.056-2.12-2.12 1.373-.24 2.798-.427 3.935-.907 1.155-.46 2.707-.52 3.63-1.212.352-.047.54.067.608.302.597 2.94 1.71 5.355 2.12 8.477-.955-.46-1.82-1.008-3.03-1.21zM46.4 71.317c6.736.328 13.773.352 20.89.3.2 4.54.724 8.758.91 13.32-3.2.64-6.78.89-9.99 1.512-1.186.733-3.356.48-4.542 1.212-1.984-.066-2.797 1.038-4.843.91-.702-5.858-2.148-10.97-2.423-17.255zm16.65 35.416c-1.13.325-.863-.752-1.817-.606h-3.025c-1.71-.5-3.1-.442-4.544-.605-.474-.834-.843-1.78-1.21-2.724-.32-.89-.415-2.005-.91-2.725 0-1.21-.602-1.816-.602-3.027-.523-.69-.288-2.133-.91-2.725.846-1.17 2.826-1.212 4.543-1.514 1.392-.62 3.605-.422 5.144-.907 2.644.22 4.35-.495 6.964-.304.487.085.52-.288.907-.302h.607c1.222-.014.253 2.165.91 2.725-.154 1.358.152 2.268.303 3.33v3.934c.23 1.787.565 3.473.91 5.146-2.002.53-4.826.23-7.27.304zm6.054-87.483c2.645.18 6.022-.373 8.173.303 1.917.503 2.11 2.737 3.63 3.632.73 1.7 2.07 2.78 2.727 4.542 1.522 3.32 3.22 6.467 3.936 10.595-4.915 1.34-10.37 2.142-16.954 1.816-.622-6.844-1.344-13.59-1.51-20.89zm1.813 27.243c6.615.258 12.4-.318 17.26-1.816.35.05.537-.066.607-.303.256-.053.282.12.3.304 1.04 5.82 1.295 12.427 1.21 19.374-6.05.508-11.87 1.248-18.162 1.515-.134-6.63-.79-12.73-1.213-19.072zm16.656 47.83c-.175 1.443-.91 2.32-.91 3.936-1.166 1.96-1.33 4.924-2.724 6.657-2.577.853-6.262.6-8.777 1.515-.538-3.79-1.05-9.992-.91-15.44 4.855.113 9.4-.09 13.925-.303.46.84-.482 2.42-.604 3.633zm2.117-10.29c-5.436.01-10.688.202-15.744.6-.82-4.015-.973-8.708-1.205-13.316 5.898-.563 11.59-1.325 16.95-2.424h.606c-.016 5.233.21 10.702-.606 15.136zm-.303-56.308c-.216-.47-.56-.953-.91-1.515-.282-.45-.555-.9-.907-1.512-.13-.224-.13-.65-.306-.91.068.1-1.995-1.64-.907-1.514 3.16 1.483 5.704 3.58 9.082 4.846 1.45 2.08 4.074 2.987 5.445 5.146-.877 1.14-2.576 1.46-3.627 2.42-1.778.246-2.624 1.417-4.544 1.516-.718-3.1-2.11-5.83-3.328-8.477zm6.656 70.53c-.75-.046-.934.477-1.51.606-.635.377-1.138.88-1.516 1.516-.702-.925.542-2.477.604-3.633.317-1.3.553-2.682.91-3.936-.084-.487.29-.52.306-.907 2.008.31 3.163 1.474 4.843 2.117-.74 1.886-2.48 2.773-3.638 4.24zm13.926-29.06c-.11.903-.48 1.537-.908 2.12-.544 6.822-2.743 11.99-5.146 16.952-2.873-.86-5.19-2.277-7.875-3.33.722-6.224-.138-11.966.306-16.043 5.178-.073 8.853-1.643 12.412-3.33.544.037.635-.37 1.21-.303v3.935zm-7.873-5.75h-6.054c.23-7.694-.657-14.275-1.51-20.888 3.538-1.506 7.088-3 9.986-5.15.244.06.303.306.605.304.922 3.62 2.54 6.545 3.328 10.294.75 3.69 1.467 7.413 1.515 11.805-2.478 1.354-5.323 2.346-7.87 3.633z" fill="#444"/></svg>