<svg xmlns="http://www.w3.org/2000/svg" width="128" height="128" viewBox="0 0 128 128"><path d="M99.358 44.612c-.617-.443-.475-1.643-.956-2.223-.264-.793-.866-1.245-.956-2.22-1.158-1.067-2.116-2.322-3.172-3.492-1.53-.587-3.125-1.106-4.128-2.223-1.477.21-2.035-.5-3.17-.633-.9.26-.824-.448-1.59-.32-.557-.18-1.864.384-1.9-.318.46-1.85.143-3.678 0-4.76-.056-.417.065-.858 0-1.27-.406-2.477-1.58-4.322-2.224-6.03-2.468-1.548-4.352-3.69-7.62-4.442-2.75-1.48-6.72-1.745-10.786-1.906C54.866 16.84 49.976 22 50.16 32.232c.534 1.897 1.828 3.043 2.54 4.762-2.53.644-4.15 2.197-6.664 2.856-1.344 1.723-3.218 2.918-4.76 4.444-.84 2.014-2.12 3.595-3.177 5.395-.6 2.358-1.203 4.72-.948 7.933.483 1.205.92 2.466 1.266 3.806.4.132.65.41.638.954 1.685 1.483 3.695 2.652 5.712 3.808 2.136.296 3.917.95 5.712 1.586 3.24 8.715 5.27 18.64 7.934 27.93 1.085 4.84 2.907 8.945 4.125 13.644 1.06 1.91 1.748 4.18 2.538 6.35.57.91.835 2.123 1.587 2.856.434 1.155.563 2.61 2.222 2.54.79.97 1.975-.332 2.223-.954 1.342-.008 2.048.615 3.173 0 .386-1.093 1.112-1.852 1.59-2.854.375-1.212.842-2.33 1.264-3.49.66-2.51 1.677-4.672 2.223-7.3 1.637-4.606 3.558-8.928 5.397-13.33 3.89-8.703 6.928-18.245 9.207-28.564.277-1.542-.434-2.106-.64-3.174 3.968-3.65 6.624-8.612 6.035-16.82zm-44.115-19.36c.5-.868 1.285-1.465 1.587-2.54 1.136-.554 2.23-1.15 3.173-1.902 3.243.175 5.224-.91 8.567-.636 1.912 1.157 3.762 2.372 5.395 3.808.15 1.02 1.212 1.12 1.27 2.223.763.4.64 1.685 1.268 2.22.11 2.11-.283 4.727.318 6.35-.85.417-1.684.852-2.538 1.268-.606.66-1.133 1.41-2.223 1.59-.5 1.614-1.765 2.463-2.222 4.122-.925-.13-1.03-1.085-1.587-1.584-.388-.67-.88-1.24-1.27-1.906-1.913-1.045-3.668-2.256-6.344-2.54-1.94-.244-2.973.417-4.763.32-.4-3.406-.877-6.737-.63-10.79zM46.99 50.96c.167-.49.33-.022.32.32-.57.084-.653-.303-.32-.32zm-.952-2.222c-.11-1.593 1.405-1.557 1.59-2.86.938-.434 1.283-1.463 2.222-1.903.3-.644.645-1.253.95-1.903 3.15-.763 5.474-2.35 9.522-2.22 1.837.49 3.26 1.393 4.44 2.538.08 1.508.974 2.204 1.273 3.49-.15 1.757.446 4.257-.635 5.078-1.98-1.394.387-3.744-.638-5.71-1.892-.308-1.232 1.943-2.854 1.903-.136 1.135-.8 1.742-1.586 2.222.256 1.102-.475 1.22-.317 2.223-.896-.376-.968-1.574-1.273-2.54-.928-.082-.974.72-1.9.636-1.06-.106-1.41-.918-2.86-.634.725-1.182 2.23-1.584 3.174-2.54-.136-.708-1.565-.13-2.223-.32.133-1.238 1.77-.98 2.86-1.266-.304 1.36.888 1.224.948 2.222.044 1.016.722 1.397 1.91 1.27.632-.424.706-1.41.95-2.224.993.15.895-.796 1.268-1.267-.043-1.44-.666-2.296-.952-3.49h-6.35c-.89.273-.675 1.65-1.266 2.222-.81.14-1.46.445-1.904.952-1.016.272-.98-.5-1.59-.637-1.03.558-1.585 1.59-2.222 2.54-1.178.41-1.02 2.15-2.54 2.222zm13.647 4.76c.507-.234-.07-1.552.955-1.268.083.832-.12 1.365-.956 1.27zm-10.472-3.487c-.165-.164.23-.406.318-.32.163.165-.23.406-.317.32zm-.32.634c-.16-.165.23-.407.32-.32.164.164-.23.405-.32.32zm.638-1.272c-.164-.162.23-.405.32-.317.16.165-.23.405-.32.317zm-.317 13.013c.65-.638.624.14 1.27.316.1.563-1.78.57-1.27-.316zm.637-4.445c-.256-1.1.47-1.22.315-2.22-.13-.93-1.085-1.03-1.59-1.588.556-1.717 2.08-.363 3.493-.32 1.03-.24 2.014-.523 1.903-1.9.517-.092.545.298.954.317-.134.603-.907.573-.633 1.583-1.435.685-2.242 1.995-3.49 2.86-.134.607-.115 1.364-.95 1.268zm1.904 5.398c-.24-1.193 1.213-.693 1.267-1.587.748.1.713.982 1.273 1.27-.237.715-1.78.125-2.54.317zm1.9-7.3c.978-.238.613.868 1.59.634.948-.316 1.586-.95 1.902-1.904 1.067-.008 1.678.437 2.222.956.254-.273.87-.188.955-.636.495 1.088 2.923.248 3.805.955-.192 1.606-1.414 2.182-1.904 3.488-.715-.556-2.387-.15-3.174-.635-1.442-.17-.845 1.693-2.22 1.59.767-.812-.32-1.548-.638-2.225-1.413-.174-2.805-.367-2.54-2.222zm3.493 5.392v1.27h-.636v-1.27h.637zm4.442 22.538c-1.182.018-.914-1.413-.95-2.54.81.57 1.403 1.556.95 2.538zm0-4.126c.64-2.746 2.157-4.608 3.172-6.984 1.075.725 1.845 1.756 2.22 3.177-.62 2.554-1.857 4.484-4.12 5.395-.218-.74-1.057-.853-1.274-1.587zm15.23-5.713c.076 1.296 1.082 1.67 1.27 2.853-1.27.955-1.963 2.483-3.174 3.49-1.082-.08-.898-1.428-1.585-1.902-.36-.694-1.06-1.05-1.268-1.903.614-2.556 2.632-3.716 3.488-6.03 1.03.136 1.006 1.32 1.905 1.586.155.998-.97.72-.632 1.905zm-4.44 9.52c-1.128 1.2-2.12 2.533-3.178 3.808-1.192.24-.69-1.213-1.586-1.27-.213-.63-.966-.727-1.27-1.268 1.023-1.725 2.38-3.125 3.178-5.077 1.344.877 2.26 2.187 2.856 3.808zm-7.3 6.03c-.276-.925-.473-.357-1.268-.32.313-.74.558-1.558.636-2.538 1.338.142 1.41 1.55 2.22 2.22.087 1.253-1.356.97-1.267 2.222-.69.053-.146-1.124-.32-1.585zm1.27 14.282c-1.3-1.214-.357-5.005.953-6.347v-2.223c.81-.67 1.404-1.557 1.903-2.54 1.147.23.907 1.844 2.222 1.904-.286 1.664 1.557 1.195 1.27 2.86-.295.23-.48.575-.638.952-1.112.592-1.045-.242-1.904-.636-1.413.277-1.822 1.562-2.22 2.856-.81.78-1.083 2.088-1.585 3.174zm8.886 1.904c-.448 1.135-.907 2.264-.954 3.806-.796.79-.504 2.67-1.904 2.856.048-1.69.828-3.41-.638-4.124-1.58.643-2.373 2.067-2.54 4.124-1.578-.002-1.407-2.37-.95-3.488.547-1.147 1.104-2.285 1.27-3.81.306-.007.244-.385.317-.637 1.854-1.425 3.045-3.51 4.76-5.077.725-.435 1.195.817 1.27 0-.187-1.135.935-.962 1.904-.953-.785 2.49-1.876 4.683-2.536 7.3zm1.586-9.526c-.853-.376 0-1.653 0-2.22-.98.076-1.232.884-1.903 1.267-1.406-1.446-2.704-3.008-3.492-5.077.825-1.182 1.975-2.048 2.54-3.488.51-.093.546.3.955.314 1.504 2.093 2.086 5.105 4.437 6.35-.177 1.622-2.075 1.52-2.54 2.855zm3.81-4.44c-1.07-.943-1.725-2.296-2.54-3.49.804-1.987-.396-3.25-1.268-4.444.786-1.755 2.624-2.453 3.177-4.448 2.06.484 1.873 3.21 4.444 3.177-1.636 2.703-2.485 6.19-3.81 9.205zm4.442-10.792c-1.267-.95-1.958-2.48-3.173-3.488 2.833-4.3-2.83-6.677-3.807-10.16.49-.674 1.146-1.18 1.586-1.902 1.505-.235 2.186.357 3.49.316 2.112-.164 4.416-1.64 6.662-.635-1.406 5.467-2.866 10.883-4.757 15.868zm5.712-24.755c-1.67 1.712-3.906 2.862-6.344 3.808-4.514.18-8.07-.603-11.424-1.584-.75-.008-.936.547-1.905.317-.235 2.033.39 3.208 1.585 3.808.672.285.94.97 1.904.954.102.747 1.504.19 1.27 1.27-1.27-.178-2.013-1.235-3.178-.635-.228 1.6.432 2.314.637 3.487-1.424 1.54-2.67 3.257-3.81 5.08-1.292-.507-2.018-1.578-2.54-2.855.113-2.003 1.713-2.52 1.272-5.077-2.05.275-3.283 1.368-4.128 2.854-.683-.268-1.08-.822-2.22-.636-.362 1.315.67 1.237.634 2.223-.243 1.34-1.54 1.628-2.22 2.54-.273 1.524-1.317 2.28-1.588 3.805-1.187-1.877-1.583-4.555-2.222-6.984 1.764-.88 4.283-1.003 5.397-2.54 1.997-.54 2.9-2.175 4.443-3.172 1.27-1.795 2.34-3.797 3.488-5.71.26-1.436.544-2.85.957-4.13.103-1.165-.274-2.806.317-3.487-.608-.77-.2-2.554-.317-3.81h1.267c.604-2.993 3.02-4.178 4.763-6.03h2.54c1.004-.264 1.615-.928 2.222-1.587 2.62-.186 4.402.467 6.662.637.053.79-.485.992-.954 1.27-.7.035-.133 1.343-.316 1.9.27.683.78 1.123 1.904.955 1.007.036 2.03-1.542 1.268-2.223.254-.733 1.49.164 1.59.635.812.03.45 1.24 1.268 1.27.4 1.396.83 2.764 1.266 4.124-.373 3.963-1.712 6.964-3.488 9.523zM76.19 46.517c.448.924 1.333 1.412 2.856 1.267.875-.57.745-2.496.317-3.488-1.995-.194-3.364.23-3.17 2.22zm7.934 3.493c.283-.78.736-1.376.632-2.54-1.547-.98-3.153.332-2.856 2.22.41.44 1.38.314 2.224.32zm8.25-.954c.006.32.558.4.64 0-.363.032-.497-.462-.64 0zM73.967 52.23c-.146.992.678 1.013 1.586.952.357-1.284-.974-1.57-1.586-.952zm7.934 3.492c.353 1.022 1.014 1.74 2.542 1.585 1.03-.454 1.426-1.54 1.27-3.175-1.44-1.062-3.798-.512-3.81 1.59zm-6.662 44.43c.303.593-.95 1.06 0 1.268.093-.195.79-1.22 0-1.27z" fill="#444"/></svg>