<svg xmlns="http://www.w3.org/2000/svg" width="128" height="128" viewBox="0 0 128 128"><path d="M101.634 34.032c-.29-2.06-2.674-2.032-5.133-1.925-1.77-.688-3.768-1.15-5.774-1.6 1.61-2.13 3.394-4.093 5.456-5.776.573-1.133 1.323-2.096 1.922-3.208.843-.87 2.183-1.242 2.246-2.887-1.323-2.1-5.13-1.714-7.38-2.89-3.42.003-5.503-1.336-8.657-1.602C78.503 13 72.12 12.43 66.028 11.577H63.14c-.54.425-1.074.85-2.245.642-1.173 3.853-3.25 6.8-5.133 9.94-2.095 2.933-3.74 6.315-6.097 8.983-.757 1.698-1.998 2.92-2.886 4.49-1.09 1.478-2.17 2.962-3.21 4.492-.942 1.517-2.052 2.867-2.886 4.49-.81 1.757-2.466 2.668-2.246 5.454.432.313.644.854.964 1.283.79-.043 1.547-.048 1.925.32 1.454.043 2.208.784 3.53.963 2.18.815 4.82 1.17 6.734 2.244-3.082 4.4-5.796 9.173-8.977 13.474-1.312 2.43-3.032 4.453-4.494 6.735-.905 2.836-3.03 4.45-3.526 7.7 1.248 1.312 3.89 1.237 5.77 1.924 1.908.768 4.96.384 6.416 1.603-1.248 2.6-2.592 5.11-3.848 7.7-2.475 5.332-5.06 10.55-7.7 15.717-.51 2.714-4.097 5.595-1.603 8.34 3.793.922 6.052-2.224 8.662-3.532.95-1.184 2.272-2 3.525-2.884.264-.805 1.124-1.016 1.608-1.604.864-.2.796-1.34 1.923-1.282 4.407-4.254 8.834-8.487 13.472-12.512 1.96-2.315 4.763-3.787 7.054-5.77 2.197-2.193 4.64-4.133 6.74-6.418 4.46-4.2 8.857-8.467 12.83-13.154 1.263-.446 1.866-1.554 2.886-2.244.845-.866 2.42-1 3.205-1.925.175-.467-.373-1.66.32-1.603-.027-1.254-1.564-1-1.603-2.246-5.13-.64-9.02-2.527-14.112-3.208 2.78-2.884 5.21-6.13 8.017-8.98 1.62-1.27 2.67-3.108 3.85-4.812 1.046-1.84 2.513-3.264 3.532-5.134 1.012-.584 1.527-1.682 2.884-1.925.5-.78.665-1.902 1.285-2.565 1.364-.026 2.02-.755 1.923-2.245zm-15.076 32.72h1.28c-1.114.6-1.488 1.935-2.886 2.248-.866.947-1.486 2.15-2.885 2.564 1-2.098 3.098-3.102 4.49-4.81zM88.48 41.09c-2.836 3.15-5.972 6.003-8.66 9.3-1.93 2.028-3.694 4.22-5.45 6.418-.93 1.102-1.793 2.272-2.566 3.53-.48.482-.966.96-1.604 1.282-.23.73-.286 1.64-.643 2.245.666.725 2.383.395 3.21.962.764.63 2.16.62 2.887 1.28 3.078-.08 5.73.26 6.416 2.567.213 3.53-2.7 3.932-4.49 5.454-5.84 4.107-10.083 9.806-15.078 14.756-2.272 2.755-5.107 4.946-7.38 7.7-.844.758-1.932 1.273-2.24 2.565-1.904 1.414-3.237 3.395-5.135 4.812-.962.645-1.586 1.624-2.568 2.244-.76.846-1.274 1.933-2.566 2.246 2.372-4.15 4.65-8.39 7.054-12.512 1.035-2.28 2.357-4.272 3.213-6.734 1.134-2.075 2.497-3.917 2.243-7.38-.533-1.708-2.03-2.458-4.168-2.565-1.39-.75-3.467-.81-5.454-.96 1.136-2.18 2.716-3.914 3.852-6.096 1.565-1.75 2.496-4.128 4.167-5.773.2-1.19.767-2.015.963-3.207 1.252-1.102 2.08-2.624 2.886-4.17-.133-2.01-.19-4.09-.643-5.775-.843-1.404-2.848-1.64-4.49-2.246-1.622-.517-3.036-1.243-5.134-1.283.902-3.48 3.236-5.532 4.49-8.662 1.254-.992 1.562-2.928 2.89-3.85.425-1.71 1.917-2.358 2.243-4.17 2.07-2.315 3.546-5.22 5.13-8.02 1.62-2.65 3.085-5.463 4.49-8.336.172-.26.335-.523.32-.965 4.444.69 8.822 1.442 13.153 2.245 4.83.088 7.694 2.142 12.51 2.246.775.744-.502.857-.645 1.602-.975.523-1.504 1.486-2.242 2.247-.65.666-1.817 1.094-1.927 2.243-1.312.614-1.704 2.146-2.888 2.89-.48.48-.573 1.35-1.283 1.602-.11.744-.206 1.5-1.28 1.282.233 1.623-.882 1.9-.965 3.21 1.355.783 3.4.877 4.815 1.603 1.923.215 3.435.84 5.45.962-.51 1.512-1.83 2.226-2.882 3.205zm.644-7.7c-.01.314-.39.25-.642.323.013-.313.392-.25.643-.322z" fill="#444"/></svg>