<svg xmlns="http://www.w3.org/2000/svg" width="128" height="128" viewBox="0 0 128 128"><path d="M117.02 55.285c-1.25-2.008-3.146-3.375-4.583-5.197-2.417-.64-4.432-1.683-7.034-2.138-2.802-.355-5.9-.418-8.557-.917h-5.5c.532-.996 1.53-1.53 1.834-2.752 1.094-.534 1.097-2.164 2.14-2.75-.178-1.3.217-2.02.305-3.056 1.026-1.013 1.487-2.592 2.445-3.67.6-1.535 2.13-2.145 2.446-3.97.026-3.95-.227-8.175.61-11.31-.623-1.21-1.285-2.384-1.22-4.278-1.868-.99-2.753-2.953-4.892-3.667h-3.67c-3.562 1.325-4.84 4.938-8.554 6.11-3.98 7.84-10.808 12.83-17.12 18.34-2.944 2.96-5.902 5.915-9.166 8.558-1.39 1.564-3.1 2.81-4.89 3.974-1.777 1.28-3.376 2.737-5.502 3.667-.017-2.02-1.27-2.808-2.14-3.974-3.612-.976-6.862-2.312-11.31-2.446-2.74.01-4.99.514-7.948.304-.46.456-1.338.493-2.14.612-.427.49-1.053.782-1.835.915-.582.844-1.297 1.556-2.14 2.142-2.566 5.38-2.425 13.468-3.668 20.173-.34 12.085-.346 24.51-.303 36.98.495.73.59 1.853.916 2.75.688.64.872 1.777 1.527 2.447 1.86.79 3.887 1.412 6.418 1.53 3.503 1.9 9.3 1.5 14.673 1.528 1.355-.378 2.277-1.186 3.667-1.528 1.963.23 2.21-1.254 3.362-1.835.277 1.555 1.464 2.2 2.446 3.057 1.152-1.585 3.06.606 4.584.61 1.333.806 3.633.644 5.195 1.222 6.016.507 11.8 1.243 18.033 1.53 2.64-.518 6.077-.238 9.168-.304 4.333-.666 8.258-1.728 12.224-2.752.642-.484 1.248-1 2.144-1.224 2.437-2.47 4.7-5.5 5.195-10.085.3-2.774-.22-5.796 0-9.168 1.615-1.547 3.61-2.71 5.196-4.28.262-1.06.953-1.695 1.53-2.445.867-4.736 1.572-9.634 2.138-14.67 2.02-2.367 3.835-4.932 4.59-8.557.017-3.38.148-6.875-.614-9.472zM22.58 60.48c.085-1.037-.235-2.477.306-3.056-.073-2.21.667-3.61 1.224-5.195.296.007.237.372.306.61-.667 3.41-1.5 6.65-1.835 10.392-.617-.34-.353-2.365 0-2.752zm18.338-.915c-.55.573-.674 1.568-1.224 2.138-.843 4.557-1.534 9.266-2.14 14.06.018 2.88-.197 4.095 0 6.724-.8 4.254.365 8.667.308 13.144.688 1.555 1.133 3.35 2.136 4.588.258 2.493.893 4.61 1.227 7.03-3.31.22-7.787.677-11.003 0 .05-.974.715-2.252 0-3.058-2.205-.475-2.247 1.216-3.974 1.222.467-1.875 1.67-3.014 2.14-4.89.8-1.205 2.132-3.28 1.53-4.892-1.252-.523-2.828.956-3.668 1.835-1.37.34-1.76 3.013-3.057 2.443v-4.582c.652-.776.733-2.12 1.53-2.752.04-1.284 1.184-1.466 1.222-2.75.753-.672 1.842-1.01 2.14-2.14.047-.76-.48-.945-.612-1.53-.098-.714-1.333-.295-1.53-.916-.932-.22-1.112.313-1.83.307-.445-.165-.748 1.188-.918.303 1.445-10.778-.655-25.104 3.67-33.007.242-.058.3-.305.607-.305.244-.056.303-.306.61-.304 1.35.495 2.67.033 3.668.306.815.208 1.555.482 2.142.92 3.292-.137 4.824 1.49 7.944 1.527-.518 1.317-.65 3.014-.917 4.584zm69.378 6.112c-.873 1.267-1.677 2.6-2.752 3.667-.38 1.045-.655 2.195-1.22 3.054-.36 4.94-.884 9.71-2.142 13.756-1.752 1.404-3.515 2.8-5.5 3.973-.323 1.31-1.042 2.22-.918 3.973-.066 1.19.657 1.585.917 2.445-.585 3.696-.63 7.933-2.447 10.392-1.84 1.725-4.956 2.178-7.944 2.75-1.25-.79-3.18-.896-5.196-.914-1.166.213.317-1.59-.92-1.835-2.19-.256-1.937 1.93-3.665 2.14-1.67.138-2.512-.545-4.286-.305 0-1.94 1.743-2.13 1.53-4.28-.108-.4-.534-.48-.607-.918-3.07.094-4.208 2.112-5.807 3.67-.917-.616-2.883-.175-4.28-.308.123-1.33 1.084-2.302.303-3.667-3.72-.36-3.95 2.773-6.418 3.667.224-1.632 1.884-4.153 0-5.195-1.677-.25-1.303 1.55-2.445 1.832-.782.645-.853 2.002-2.142 2.142-.67-.552-1.252-1.192-2.138-1.53.988-1.967 2.325-3.584 3.362-5.5.774-1.628 2.86-3.957 1.525-5.807-2.66-.118-3.765 1.322-4.885 2.748-.74.48-1.355 1.093-1.835 1.837-.69.533-.702 1.74-1.833 1.835-.773-2.75 2.034-3.898 2.445-6.42.943-.585.854-2.198 1.832-2.75.194-1.266 1.284-2.102.612-3.36-2.784-.242-3.218 1.876-4.89 2.748-.245.98-1.112 1.335-1.532 2.14-.69.534-.702 1.742-1.833 1.836v-5.806c.983-2.38 2.19-4.533 3.666-6.42.932-2.326 3.096-3.422 3.36-6.42-1.08-.532-2.528.833-3.665 1.223-1.12.716-1.866 1.804-3.362 2.143.49-1.136.252-3.008.304-4.587.994-1.04 1.792-2.283 2.75-3.362.377-.64.846-1.19 1.223-1.835.86-.057 1.3-.532 1.22-1.53-.312-.705-1.404-.633-2.446-.61-.644.372-.886 1.15-1.83 1.22.377-2.88 1.023-5.492 1.527-8.25 6.09-3.386 11.518-7.432 16.505-11.92.3-1.225 1.27-1.786 1.528-3.055 3.102-1.995 5.917-4.27 8.555-6.725 2.98-2.112 5.57-4.62 7.95-7.335.355-.256.82-.4 1.527-.304-.22-.933.31-1.113.306-1.834 2.133-1.637 3.258-4.283 5.5-5.807-.133-1.05.12-1.712.306-2.446.544-.272.776-.853 1.835-.61.35-1.452-.713-2.5 0-3.36.494-.09.524.287.914.304 1.23 1.724 1.888 4.02 2.14 6.725.182 1.042.84 1.605.916 2.752-.77 5.037-3.435 8.176-5.805 11.614-.966 1.99-2.197 3.713-3.667 5.194-.843 2.01-2.876 2.83-3.975 4.587-1.372.562-2.472 1.403-3.667 2.14-1.263.572-2.613 1.055-2.75 2.75-.27 2 1.45 2.012 2.446 2.75 2.352.218 3.917-.357 5.5-.916 4.072.62 9.2.173 13.755.307 2.14.31 4.352.537 6.724.61.466.457 1.343.492 2.14.614.38.437 1.053.578 1.836.61.533.89 1.448 1.406 2.14 2.14-.08 2.56.242 5.532-.303 7.636zm-77.322-10.39c-2.793-.486-5.36-.174-7.034 1.222-.526 2.018-1.173 3.916-1.222 6.417.098.717.484 1.148.305 2.138.69.637.878 1.775 1.53 2.446.662.662 1.6 1.054 2.447 1.532 3.706.037 5.728-1.606 7.032-3.975-.14-1.05.116-1.712.303-2.443-.256-.763-.4-1.64-.304-2.752-.705-.518-.408-2.042-1.228-2.447-.363-.955-1.237-1.408-1.83-2.136zm-2.145 7.945c-.847-.373-.567-1.877-.608-3.056.835.34.92 2.524.607 3.056z" fill="#444"/></svg>