<svg xmlns="http://www.w3.org/2000/svg" width="128" height="128" viewBox="0 0 128 128"><path d="M20.2 68.78c1.67 1.02 3.248 1.54 5.005 1.25.424-.067.627-.47.94-.624.42-.206.884-.053 1.25-.313.3-.213.615-.88.94-1.252 1.227-1.407 2.04-2.702 2.187-4.69 3.744.587 9.725.772 11.264-1.877.78 1.41 2.222 2.16 4.067 2.505 3.467.226 5.25-1.22 6.573-3.13.704-3.11-.363-5.746-1.568-7.822 1.092-1.412 2.507-2.5 3.443-4.066 1.388-1.118 1.98-3.024 3.443-4.066 2.08 1.37 5 .064 6.88-.627.766 1.323 1.664 2.51 2.507 3.755.65.388 1.177.91 1.562 1.566.196.847 1.31.78 1.254 1.877-.122 3.665.674 6.415 2.19 8.446 2.288 1.246 5.07.827 7.195-.313.48-.873.95-1.764 1.565-2.5.094-1.975-.05-3.707-.313-5.32 4.018-4.324 7.755-8.93 12.826-12.2.43 1.03 1.658 1.264 2.82 1.564 4.51.236 6.863-1.687 8.443-4.38.502-4.427-.336-8.645-3.44-10.325-2.412.082-3.668-.454-5.947 0-2.29 1.36-3.955 3.344-5.315 5.632v3.127c-2.155 1.915-4.3 3.836-6.57 5.632-1.953 2.325-3.845 4.704-5.947 6.883-.724-.77-2.466-.998-3.44-.627-.27-.772-1.158-.925-1.562-1.565-.324-.82-1.243-1.052-1.566-1.875-1.267-.926-2.315-2.07-3.13-3.442.833-2.354.263-5.85-1.253-6.88-1.097-.588-2.65-.132-4.065-.314-.904-.117-1.664-.7-2.504-.625-1.537.447-2.732 1.235-3.757 2.19-.437 1.854-1.01 3.578-.937 5.94-1.303 1.432-2.304 3.075-3.445 4.694-1.108 1.58-2.16 3.253-3.44 4.693-.897-.98-2.064-1.692-4.067-1.564-3.9.72-5.717 4.725-4.69 9.387-3.082.256-6.56.11-9.386.623-.64-1.237-1.26-2.49-2.816-2.814-3.975-.222-5.586 1.923-8.13 3.128-.717 1.72-1.525 3.672-1.256 5.944.216 1.813 1.414 3.315 2.192 4.378zM96.223 31.55c1-.46 1.736-1.182 3.44-.94.505 1.295.99 3.475.314 5.007-1.067.29-1.84.876-3.445.624-.346-1.323-.363-2.978-.31-4.693zm-20.96 21.275c.72.318.645 1.438.625 2.502-.723-.32-.65-1.44-.625-2.503zM63.06 37.81c-.24 1.01-.866 1.636-1.877 1.877-.166-1.42.462-2.045 1.878-1.877zM44.914 53.764c.755.91 1.627 1.707 1.877 3.13.377-.032.193.454 0 0-.422-.1-.598-.446-1.254-.315-.333-.812-.757-1.537-.622-2.817zM24.267 60.96c1.303.093.55 2.873 0 3.128-1.14-.258-.66-2.765 0-3.13zm93.54-7.82c-5.612-2.156-10.145 1.58-9.388 7.818-4.952 5.274-10.934 9.512-16.583 14.082-.638-.72-2.597-.114-3.752-.313-.064.464-.76.285-1.26.313-.515.518-1.503.576-1.873 1.25-.903.14-.975 1.11-2.187.94-5.216-.84-9.912-2.19-13.77-4.38-.404-1.99-1.068-3.728-2.19-5.005-.78-.158-1.283-.593-1.875-.94h-4.376c-.868.492-1.74.974-2.816 1.252-.39.654-.912 1.178-1.568 1.566-.4.742-.802 1.49-1.25 2.19-.07 1.632.004 3.123.315 4.38-4.437 2.964-8.422 6.385-12.203 10.01-.67.688-.86 1.85-1.564 2.503-1.992-1.115-5.776-.675-7.507.313-2.164-1.38-4.423-2.67-6.57-4.068-1.9-1.65-4.046-3.045-5.946-4.69.235-2.636-.363-4.433-.94-6.258-.522-.083-1.023-.9-1.563-1.252-.036-.02-.698-.333-.625-.313-3.507-1.004-8.27.967-9.7 2.815-.026 1.12-.485 1.807-.622 2.816.06 1.715.578 2.966.94 4.38.77 1.104.814 2.94 1.876 3.755.24.07.612.007.624.313 3.453.22 5.347-1.12 7.823-1.877 1.27.604 1.595 2.156 3.128 2.503.78 1.1 1.786 1.97 3.125 2.505 1.925 1.832 4.94 2.574 6.885 4.38-.2 2.596.33 4.467 1.25 5.94 2.603 2.38 10.1 2.245 10.955-1.56.014-.193.043-.372.31-.314-.057-1.616.19-3.53-.31-4.693.766-.687 1.368-1.546 2.5-1.876.588-.823-.82-1.053.314-1.877 1.02-.54 1.475-1.653 2.505-2.19 1.084-.585 1.45-1.888 2.815-2.192.48-1.187 2.018-1.314 2.502-2.5 1.403-.265 1.723-1.617 3.127-1.88 1.333.022 2.19.522 3.755.313.692-.245 1.22-.656 2.19-.626.34-.704 1.535-.552 1.876-1.253.85-.196.78-1.31 1.88-1.252 4.075 2.494 9.6 3.54 14.704 5.006.843.512 1.488 1.222 1.875 2.187.37.993 1.624 1.09 2.19 1.88 6.062.64 8.91-1.937 8.135-8.13 1.056-1.238 2.778-1.81 3.755-3.134 1.777-.515 2.42-2.168 4.066-2.814 1.09-1.21 2.38-2.21 3.756-3.132.376-.773 1.073-1.222 1.882-1.565.518-.627.837-1.453 1.877-1.565.87.69 1.696 1.434 3.442 1.252 2.062-.23 3.392-1.195 4.69-2.19 2.35-2.947 1.973-10.43-.632-12.824zm-79.15 42.858c-.7-.134-.125-1.54-.314-2.19h.94c.204 1.14-.214 1.666-.627 2.19zm50.367-15.642c-.504.088-.538-.296-.934-.314-.1-.378.902-1.077.934-.314v.627zm25.34-21.586c.428.096.26.784.314 1.252-.722-.09-.715-.836-.313-1.25z" fill="#444"/></svg>