<svg xmlns="http://www.w3.org/2000/svg" width="128" height="128" viewBox="0 0 128 128"><path d="M122.133 24.96c-.853-1.92-4.693-.96-6.4-2.027-1.813-.427-1.813 1.173-3.413 1.067-.32-.853-2.347.107-2.667-.64h-3.413c-.533-.533-2.027-.32-3.093-.32-.96-.213-2.667.427-3.093-.32-12.69-.533-26.987-.533-39.68 0-8 .213-16.32 2.027-25.173 2.027-8.64 0-17.6-.213-25.812 1.067-1.493 1.173-2.027 3.413-3.413 4.8-.427 2.453-.107 5.973-.64 8.64 1.493 16.107 2.347 32.96 3.733 49.28 0 1.387 1.28 1.6 1.387 3.093.213 2.347.747 4.48 1.387 6.4 1.067.32 1.493 1.173 3.093 1.067 0-.427.533-.213 0 0-.32.32-.213.96-.64 1.067-.107 3.2 2.667 3.414 5.12 4.054 2.773.213 5.333.533 8.533.32 2.56.427 5.44.64 8.107 1.067h30.507c7.253-1.066 15.253-1.28 22.4-2.346 8.32 0 15.04-1.387 22.72-2.027 1.6-.32.427 2.027 1.707 2.027.212.853 1.066 1.173 2.346 1.067 1.493-.32 2.133-1.492 2.347-3.092.427-1.387.427-3.2.32-5.12V85.12c.427-6.826.96-13.546 1.067-20.692.747-6.507.32-14.08 1.067-20.693.107-3.52.64-6.613 1.067-9.813-.213-2.027.533-3.093.64-4.8.213-1.6.96-3.093-.107-4.16zM17.92 31.467h23.04c8.853-.96 17.813-1.92 27.84-1.707.533.107.853-.533 1.067 0 .32.32 1.707-.32 1.707-.32v.32c1.067-.107 1.387-.213 2.027 0h.64c.854-.107 1.068 0 2.348 0 0 0 .107-.427.32-.32 0 0 .107.32.32.32.64.107 1.92 0 3.093 0-.106 0 .214-.533.32-.32.428.533 1.814.32 3.094.32 2.133-.107 2.453-.107 4.8 0 7.573 0 14.827.32 21.44 1.387 1.387-.107 0 .533 0 1.067-.427.32-1.067.533-1.387 1.067-.747.64-1.707 1.174-2.347 2.028-2.027.96-3.627 2.24-5.44 3.413-3.627 2.348-7.253 4.694-10.56 7.468-.853-.32-.64.64-1.387.64-.533 0-.64.96-1.387 1.067-.32 0-1.28.747-1.707 1.067-.32.213-.854.533-1.068 1.067-2.24.746-3.413 2.56-5.44 3.412-3.2 2.773-6.72 5.227-9.813 8.107-2.24-1.28-4.268-2.774-6.08-4.374-2.348-.853-4.054-2.347-6.08-3.413-1.708-1.28-3.84-2.24-5.44-3.733-4.374-1.813-8-4.267-12.268-6.08-8.427-3.733-16.213-8.213-24.427-12.267.533-1.173 1.6.213 2.773-.213zm-6.507.32c0-.107.747-.64 1.067-.32.213.213-1.387.96-1.067.32zm11.627 67.52c.107-.747.427-1.387.64-2.027.533.64.747 1.493 1.067 2.347-.853.213-1.387 0-1.707-.32zm13.227 0h-3.733c.853-1.92 2.133-3.52 3.093-5.44 1.28.747.32 3.733.64 5.44zm78.72-58.987c-.64 10.24-1.173 20.587-2.027 30.507V75.2c.32.96-.427.853-.32 1.707v5.12c-.853 3.413.32 8.853-1.067 11.84-2.56-.213-4.16.64-6.827.32-8.32 1.707-18.453 1.6-26.773 3.413.32-2.027 1.707-2.88 2.027-4.8-.213-.96-.533.533-1.067.32-.32.427-.32 1.28-1.067 1.387-.213 1.28-.96 2.027-1.387 3.093-3.308.32-6.4.853-9.814 1.067 1.387-2.56 3.627-4.267 4.373-7.467-1.068-.853-1.814.64-2.348 1.387-.853.747-1.493 1.707-2.027 2.667-.96.533-1.493 1.493-2.667 1.707 0 .854-.533.96-.32 2.028H50.45c0-1.387 1.708-2.347 1.068-3.413-1.813.213-1.707 2.453-2.667 3.413-3.092-.107-5.76.213-8.532.32-.533-2.24-.747-4.907-1.707-6.827-.746-1.492.534-2.132 0-3.092-3.306.427-5.226 2.242-7.146 4.053-.533-.532-.64-1.386-2.027-1.066-2.24.213-2.56 2.133-4.373 2.667.32-1.172 1.173-1.81 1.067-3.41-1.6.105-2.24 1.49-3.092 2.344-.853.96-1.173 2.453-2.347 3.093 0 .427-.106.747-.32 1.067-.106.533.534.853 0 1.067-1.812 0-2.986-.64-4.8-.64.108-.852 1.174-.64 1.068-1.706.96 0 .747 1.067 1.707 1.067 1.387-.532 2.453-1.386 2.667-3.092.96-1.067 1.6-2.453 2.347-3.733 1.492-2.453 3.2-4.693 4.052-7.787-4.053.853-5.44 4.267-7.787 6.827 0 .427-.533.213 0 0 1.173-2.773 2.773-5.12 4.053-7.787 1.067-2.56 4.267-4.587 3.093-8.533-3.732-.11-4.372 2.88-6.4 4.373-1.066 2.667-3.2 4.267-4.052 7.147-.747-.32 0-1.707.32-2.027-.107-1.173.64-1.6.64-2.667.96-1.28 1.173-3.306 2.027-4.8.32-1.812 1.28-2.986 1.707-4.8.533-1.706 1.92-2.56 2.027-4.8-.214-1.066-1.28-1.28-2.028-1.706-1.92.107-2.453 1.6-3.733 2.347-.748 2.56-2.348 4.268-3.094 6.826-.747-.32-.107-2.133-.32-3.093.427-.64.32-1.92.64-2.667 0-1.067.747-1.493.64-2.667.747-.32.32-1.92 1.067-2.348.533-3.52 3.627-6.293 2.347-10.56-2.88-.32-3.733 1.387-4.8 3.093-.747-.213-.107-1.92-.32-2.667-.747-.32-.107-2.133-.32-3.093-.64-5.333-1.173-10.88-1.707-16.32.747.427 1.067 1.387 1.707 2.027 2.56 1.173 4.48 2.987 6.827 4.373 2.56 1.173 4.48 2.987 7.147 4.053 4.373 3.093 9.707 5.227 14.293 8.107 2.773.96 4.907 2.56 7.147 4.053 2.347 1.387 4.16 3.307 6.827 4.373 1.92 1.814 4.8 2.668 6.4 4.8 1.494.534 2.24 1.6 3.414 2.348 1.707.213 2.453 1.387 4.8 1.067 1.387-.424 2.24-1.385 2.667-2.665 2.134-.747 3.52-2.453 5.44-3.413 1.388-1.6 3.734-2.453 5.12-4.053 2.24-.747 3.414-2.56 5.44-3.413 1.71-1.386 3.628-2.452 5.443-3.732 6.613-5.547 14.933-9.28 21.013-15.253.638.96.21 3.307-.11 4.267zM17.6 92.907c.64.32-.213 2.027-1.067 2.027-.32-1.387.533-1.493 1.067-2.027zm99.413-63.467c.107-.427.32-.213.32 0 0 .32-.32.107-.32 0z" fill="#444"/></svg>