<svg xmlns="http://www.w3.org/2000/svg" width="128" height="128" viewBox="0 0 128 128"><path d="M117.12 37.12c-.427-1.493-1.493-2.347-2.56-3.2-1.28-.747-2.133-1.92-3.52-2.56-.64-.853-2.347-1.387-2.88-1.92-.32-.213-.32-.107-.64-.32-1.28-.747-2.347-1.707-3.84-2.24-2.027-1.92-4.48-3.413-6.72-5.12-1.28-.64-2.453-1.28-3.52-2.24-1.28-.64-1.707-2.347-3.52-2.56 0-.213 0-.427-.32-.32-.427.107-.64.427-1.28.32-2.347 1.387-4.053 3.52-6.4 5.12-2.773 1.813-5.547 3.52-8.32 5.44-1.387.747-2.453 1.92-4.16 2.56-.427.747-1.067 1.28-1.92 1.6-.64.32-1.173 1.6-1.92.96-3.947-1.707-7.147-4.267-10.773-6.4-1.387-1.493-3.84-1.92-5.44-3.2-2.24-.64-3.84-2.133-6.72-2.24-2.027-.107-2.88.96-4.8.96-8 5.333-17.813 8.96-26.027 13.973-.427 1.173-.427 2.773-1.28 3.52-.427 5.013-.213 10.24 0 15.253.64 14.293-1.067 30.72.96 45.44.213 2.453-.427 5.653.32 7.68.107.64.853.64 1.28.96.747-.427 1.493.747 1.6 0 .747.853.533 2.56 2.56 2.24 2.027.32 2.453-.96 3.52-1.6.96-.747 1.813-1.6 2.56-2.56 2.027-1.387 3.52-3.2 5.44-4.8 1.813-1.6 3.52-3.2 5.44-4.8.96-.747 2.027-1.387 2.88-2.24 1.28-.427 1.813-1.6 3.2-1.92 4.373 2.133 8.107 5.013 12.373 7.36 2.027 1.28 4.16 2.453 5.76 4.16 1.28.32 2.347.853 3.2 1.6.96-.11.96.745 1.92.64-.107.96.64 1.067 1.6.96 2.453-.96 4.267-2.56 6.08-4.16 2.027-1.387 4.053-2.773 5.76-4.48 2.453-.96 3.624-3.2 6.08-4.16.745-.96 2.133-1.28 2.878-2.24 1.068-.533 1.814-1.493 3.2-1.92 4.268 2.773 7.254 6.933 11.094 10.133 1.067.64 1.493 1.92 2.88 2.24.853.96 1.493 2.132 2.88 2.56 1.067.746 1.067 2.56 2.88 2.56 1.173.64 1.493 2.132 3.52 1.92 1.28-.643 1.6-1.6 1.92-3.2s-.213-3.414 0-5.12c.533-1.176 1.067-2.348 1.28-3.843 1.707-14.08.533-31.04 1.28-46.08.533-2.133.32-5.013.32-7.68-.105-2.45.322-5.118-.105-7.038zM17.6 105.813c-.213-.213.213-.427.32-.32.107.213-.213.427-.32.32zm92.907-52.48c-.747 14.293.107 30.507-.64 45.12-4.267-1.813-7.36-4.8-11.093-7.04-4.16-1.813-6.613-5.227-11.093-6.72-2.666.533-3.946 2.347-6.08 3.52-1.6 1.493-3.732 2.453-5.12 4.16-3.84 2.453-7.04 5.44-10.452 8.32-1.28-.213-1.387-1.6-2.24-2.24-.533-.853-1.813-1.173-2.24-2.24-2.56-1.067-4.16-2.987-7.04-3.84-2.453-1.173-4.693-2.453-7.36-3.52-.747-.96-2.027-1.387-2.56-2.56-.96-.64-1.707-1.387-3.2-1.6-2.133-.213-3.413.427-4.48 1.28-.533 1.28-2.347 1.28-2.88 2.56-1.173.64-1.707 1.92-2.88 2.56-.853.958-1.493 2.133-2.88 2.558-1.6 2.028-3.733 3.52-5.12 5.76-1.067.748-1.707 1.92-2.56 2.88-.213.748-1.067.854-1.28 1.6-.32.108-.96 1.814-.96.32.96-1.28-.427-2.986-.32-4.48-.32-19.623-.96-38.93-1.92-57.917-.107-1.067 1.173-.747 1.6-1.28.427-.32 1.28-.427 1.6-.96 1.387-.427 2.133-1.493 3.52-1.92 2.347-1.28 4.267-2.987 6.72-4.16 2.133-1.493 4.907-2.24 7.04-3.84 1.6-.213 2.027-1.6 3.84-1.6 1.067-.64 2.027-1.387 3.2-1.92 3.2 2.347 6.933 4.373 10.133 6.72 1.6 1.28 3.628 2.133 5.12 3.52 1.92.853 2.988 2.56 5.12 3.2 2.988-.32 5.12-1.707 7.04-3.2 2.028-1.387 4.16-2.667 6.08-4.16 4.268-2.453 7.68-5.76 11.734-8.32.213-.32.533-.533.96-.64 1.92 1.6 3.52 3.413 6.08 4.48 2.133 1.387 4.267 2.773 6.72 3.84 1.173 1.6 2.88 2.667 4.48 3.84 1.387 1.28 2.773 2.56 4.48 3.52-.427 4.693-.853 9.493-1.067 14.4zm-17.494-8c-1.813-1.813-2.24-5.013-4.48-6.4-1.92 0-2.24 1.6-2.56 3.2.213 2.133 1.387 3.307 1.92 5.12-1.813.747-3.84 1.28-6.4 1.28-.853 1.067-2.667 1.173-2.56 3.2.533.64.747 1.067 1.6 1.28s2.24-.213 3.2 0c2.027-.533 3.84-1.173 6.08-1.6 1.493 1.28 2.133 3.413 3.2 5.12 1.173 1.6 1.493 4.053 4.8 3.52l1.28-1.6c-.533-3.52-2.667-5.333-3.84-8.32 1.707-.107 2.88-.96 4.48-1.28 1.493-.427 2.88-.96 2.88-2.88-1.173-4.373-6.613-.853-9.6-.64zm-5.76 7.36c-1.28 1.493-4.8 2.347-3.52 5.44 1.493.747 2.347-.747 3.52-1.28.96-.853 2.347-1.28 1.92-3.52-.64-.213-.96-.747-1.92-.64zm-41.386.32c-2.027 1.28-6.507 2.773-4.48 6.08 2.027.107 2.987-.853 3.84-1.92 1.493-.427 2.133-1.707 2.56-3.2-.533-.427-.747-1.173-1.92-.96zm8.64 7.68c-.107-.747-.853-1.387-1.28-1.92-.533-.64-.96-1.6-1.92-1.6-1.067-.107-.96.96-1.6 1.28.213 1.707 1.387 2.453 1.92 3.84 1.067.96 1.28 2.667 3.2 2.88.107-.213.213-.32.64-.32 1.067-1.28.107-3.413-.96-4.16zm21.973 1.814c-.213 1.173-1.28 1.493-.96 3.2.32.107.533.32.64.64 1.493.64 2.773-.853 3.84-1.6 1.173-.96 2.453-1.813 2.56-3.84-2.027-2.347-4.693.64-6.08 1.6zm-40.427-1.28c-1.707 1.493-4.373 2.027-4.48 5.12 1.28 1.493 3.093 0 4.16-.64.747-1.28 2.24-1.813 2.24-3.84-.64-.213-.853-.853-1.92-.64zm36.907 6.4c-.64-.213-1.173-.533-1.92-.64 0 .32-.533.32-.96.32-1.173 1.067-2.667 2.133-3.84 2.88-.107.107-.213.533-.32.64s-.533-.107-.64 0c-.107.107-.213.853-.32.96-.213.427-.427.64-.32 1.28 1.067 2.24 3.947.853 5.12-.32 1.173-1.493 3.627-1.707 3.52-4.48-.32-.107-.427-.213-.32-.64zm-47.467 4.16c.64.32.533 1.387 1.6 1.28 1.707-.64 3.093-1.493 3.2-3.84-1.92-1.6-4.8.213-4.8 2.56zm32.214-3.2h-.64c-.32.427-.32 1.173-.32 1.92.96 1.6 2.773 4.48 5.12 2.88.427-1.92-.747-2.24-1.28-3.2-1.173-.427-1.067-1.92-2.88-1.6z" fill="#444"/></svg>