<svg xmlns="http://www.w3.org/2000/svg" width="128" height="128" viewBox="0 0 128 128"><path d="M96.533 27.413c0-2.56.96-4.053.64-6.933-.533-1.6-.747-3.413-1.28-5.013C94.4 13.12 92.586 11.2 90.24 9.814c-2.24-.533-4.907-.747-7.893-.64-1.387.427-1.813-.213-3.093.32-.533-.96-3.2.32-3.733-.64-5.652-.213-10.452-1.28-16.64-.96-.106.213-.212.32-.64.32-3.732 0-7.36 0-10.346.64-3.947-.213-7.467.107-10.027 1.28-.107.213-.213.32-.64.32-.96 1.387-2.88 1.707-3.093 3.733-1.173 1.173-1.813 2.987-2.56 4.693.213 8.96-.96 18.027-.96 27.093 0 9.28.427 18.347.96 27.307-.427 4.16-.32 8.853-.32 13.547s-.213 9.387.32 13.547c-.107 3.413 0 6.507.64 8.853.533.533.96 1.173.96 2.24 1.493 1.387 2.453 3.2 4.373 4.053 1.813 1.173 3.733 2.133 5.973 2.88.213.107.64 0 .64.32 6.08.32 12.053.747 17.92 1.28 6.187-.213 11.84-.853 18.56-.64.32-.64 2.027 0 2.24-.96 1.067.107 1.067-1.067 1.92-1.28.96-1.173 3.307-.96 4.693-1.6 1.28-2.56 3.947-3.627 5.333-5.973 1.813-8.427.96-19.52 1.6-28.267.427-9.813.853-19.627 1.28-29.547-.64-8.107-.533-16.533-1.173-24.32zM34.24 105.067c-2.133-.32-.96-3.627-.32-4.693.747.96.213 3.2.32 4.693zm.64-5.974c.213.213-.213.427-.32.32-.107-.213.213-.427.32-.32zm0 6.614c-.32 0-.107-.427 0 0 .533 0 .96.107 1.28.32-.107.747-1.173 0-1.28-.32zm5.653 9.386c-.853 0-.747-1.493-.32-1.92.64-.107.853.213 1.28.32.32 1.28-.64 1.067-.96 1.6zm5.334-16c-.533-.213 0-.533 0-.96.64.213.107.64 0 .96zm1.92 6.294c-.747-.96.747-2.453.96-3.413.533 0 .64-.427 1.28-.32-.533 1.387-1.92 2.027-2.24 3.733zm3.84 6.613c-.107-.32-.32-.533-.64-.64-.213-1.813 1.813-2.88 2.88-1.6-.107 1.493-.853 2.24-2.24 2.24zm1.173-10.027c0-.32.427-.213.64-.32 0 .213-.32.213-.64.32zm-.853-2.24c-.853.32-1.6.747-2.56.96-.32-2.88 3.307-2.24 5.333-1.92-.427.853-1.707.853-2.773.96zM60.053 112c-.853-.64-1.6-1.6-2.88-1.92-.213-.853-.64-1.493-1.28-1.92v-5.013c1.387-2.667 5.12-3.093 7.893-4.373 1.067.427 2.24.64 3.093 1.28.96 2.133 2.026 4.267 2.24 7.253-.64 4.053-4.374 5.547-9.068 4.693zm19.2-6.293c-.533-1.6.427-4.587 2.56-3.413-.32 1.6-.747 3.307-2.56 3.413zm6.934-4.694v-.64c.32.107.32-.107.32-.32.64-.107.427 1.387-.32.96zm-.32-13.226c-.96 1.28-2.24 2.133-3.2 3.413-6.613.213-13.973-.32-20.16.32-3.627-.213-6.187.533-9.707.32-1.28.32-2.987.32-4.693.32-1.813.107-3.413 0-4.053-.96-1.067-.107-1.28-1.067-1.6-1.92-.533-.64-.64-1.6-.96-2.56-.747-3.84-.107-7.68-.32-11.627 0-.213-.32-.32-.32-.64.107-.533 0-.427 0-1.6-.427-10.347.32-21.653 0-32.747.107-1.707.747-2.773.96-4.373-.107-1.813.107-3.2.32-4.693-.107-3.52-.107-7.04.96-9.387 3.947-.427 8.107-.747 12.267-.96 3.84-.533 8.534-.213 12.908-.32.533.107.853-.533.96 0 4.693-.533 11.413-.533 16 0 1.067 2.347.64 5.653.64 8.853v9.387c0 6.187.853 11.52 1.6 16.96-1.6 9.813-1.6 20.907-1.6 32.213z" fill="#444"/></svg>