<svg xmlns="http://www.w3.org/2000/svg" width="128" height="128" viewBox="0 0 128 128"><path d="M109.024 89.003c-1.837-1.43-4.222-3.96-6.45-4.514-.415-.104-.685-.252-.968-.325-.413-.105-.683-.25-.966-.32-1.6-.4-2.475-.163-4.192-.325-.717-.068-1.52-.35-2.254-.324-.95.032-1.84.608-2.908.323-1.34.805-2.997 1.3-4.188 2.254-.723.352-1.617.533-2.255.968-1.037.15-1.138 1.227-2.26 1.29-2.333-1.968-5.18-3.417-7.415-5.48-1.51-.643-2.8-1.503-3.872-2.58-1.506-.642-2.798-1.502-3.868-2.58-2.92-1.378-5.123-3.48-8.062-4.84-.978-1.172-2.688-1.608-3.87-2.578-1.223-.925-3.04-1.26-3.87-2.58.323-.86.665-1.7.646-2.9.66-1.488 2.63-1.667 3.544-2.9 1.634-.627 2.59-1.93 4.192-2.582.94-1.21 2.653-1.648 3.548-2.9 1.606-.652 2.56-1.953 4.192-2.58 2.32-2.086 5.075-3.74 7.74-5.483 1.21-1.046 2.658-1.855 3.87-2.902 1.85-.41 3.1-1.412 3.87-2.9.994 1.58 2.727 2.43 4.19 3.546 2.23.56 4.48 1.11 7.094 1.288 2.72-.365 5.1-.63 7.09-1.613 2-.985 3.44-2.47 4.838-3.87 1.4-1.398 2.895-2.895 3.87-4.837 1.038-2.062 1.392-4.373 1.613-7.093-.14-1.58-.43-3.008-.642-4.514-4.55-7.544-11.835-13.89-24.51-12.253-.274.478-.812.693-1.61.644-3.634 3.354-5.826 8.15-6.45 14.51-2.342 1.632-4.86 3.096-7.093 4.838-2.688 1.397-4.808 3.358-7.736 4.512-.9 1.14-2.602 1.483-3.547 2.578-1.58.464-2.4 1.683-3.87 2.258-1.03 1.01-2.516 1.568-3.547 2.58-1.465.573-2.288 1.79-3.87 2.256-1.322-1.36-3.23-2.145-4.837-3.225-3.412-.67-6.98-1.184-11.283-.968-.06.48-.78.3-1.29.325-.275.477-.81.69-1.612.643-1.04.787-2.01 1.648-3.227 2.257-3.614 3.8-6.373 8.456-7.413 14.834-.078 3.725.235 7.072.642 10.315 2.297 7.06 7.49 11.22 17.09 10.97 2.845-.38 5.198-1.252 7.09-2.582-.287 2.013.593 2.848 1.616 3.55 1.717.707 2.41-.29 3.872-.644 1.144.79 1.91 1.955 3.22 2.58.957.975 1.865 2.004 3.225 2.58.595 1.34 2.266 1.603 2.9 2.898 1.55.386 1.953 1.918 3.547 2.257.79 1.148 2.13 1.743 3.226 2.58 1.107.83 2.117 1.755 3.547 2.257.888 1.047 2.323 1.547 3.546 2.257 1.245.797 2.88 1.203 4.194 1.934v8.06c.707 1.12 1.088 2.565 1.933 3.548.754 1.182 1.792 2.08 2.9 2.9 1.917 1.85 5.087 2.446 8.387 2.905h5.803c8.94-1.698 15.14-6.14 16.768-15.153V97.71c-.5-3.69-2.282-6.1-3.868-8.705zm-12.9-49.014c.196-.773.464-1.47.323-2.58 1.137.046.92 1.445 1.29 2.257-.778-.13-.7.59-1.612.322zm-2.9-18.057c.634-.672.245-2.14 0-2.9 5.888.127 8.315 3.722 11.605 6.45.32 1.076 1.025 1.77 1.292 2.9.227 4.096-1.97 5.77-3.548 8.058-1.472.682-2.162 2.137-3.872 2.582-.783-1.9-1.368-4.002-2.255-5.805-.98-.014-1.255.683-1.933.97.032.388-.47.197 0 0 .518-1.612.346-3.555-.645-4.514-.985-.235-.95.555-1.934.32.636-2.268 1.603-4.203 2.9-5.803-.14-1.152-.812-1.77-1.612-2.26zm-.648 16.446c.635.145.58 2.26-.643 1.61.14-.613.697-.81.644-1.61zm-40.3 13.54c1.018.052 1.076-.856 2.254-.644.676.186.92.8 1.937.643 1.85-.515 2.805-1.92 2.9-4.193 3.315-1.845 6.028-4.288 9.676-5.803 1.16-1.422 3.41-1.745 4.512-3.224 1.712-.76 3.29-1.653 4.512-2.9h.968c.092 1.517 1.317 1.903 1.613 3.22h-2.58c-2.527 1.124-4.524 2.782-6.772 4.194-1.935 1.606-4.333 2.756-6.127 4.512-1.27.555-2.316 1.337-3.222 2.258-1.45.27-1.776 1.664-3.224 1.933-.63 1.198-2.195 1.46-2.904 2.58-1.3.417-1.776 1.665-3.22 1.936.253-1.864-.467-2.756-.32-4.515zM29.703 75.78c.168-.475.477-.813.642-1.288.752.22.864 1.07 1.613 1.288-.385.868-1.682 0-2.257 0zm4.836.323c.442-.848 1.36-1.222 1.61-2.256.537.326.353 1.368.65 1.933-.42.445-1.404.32-2.26.323zm11.93-15.8c.055 1.134-1.09 1.06-1.292 1.935-.1 1.285-.016 2.382.646 2.9-.996 3.732-2.522 6.94-5.158 9.03-1.432-2.548-1.017-6.94-3.227-8.705-1.27.56-2.894.763-3.545 1.933-.53-.22-.11-.603 0-.966.096-.325.167-.79.32-1.29.056-.172.62-.844.645-.966.09-.41-.07-.875 0-1.29-.357-1.042-1.024-1.77-2.58-1.612.11-1.182 1.28-1.3.967-2.9-.302-1.263-1.627-.278-2.578-.325.867-1.816 3.218-2.155 3.868-4.19.02-1.957-1.37-2.502-2.9-2.9.703-.8 1.874-1.137 2.578-1.936 4.102-.234 7.44.3 9.995 1.614.292.57.722.997 1.292 1.288.143.825.452 1.483.966 1.936v6.445zm9.997 21.926c-1.944-.726-.165-3.043-.323-4.833.676.395 1.255.888 1.934 1.288-.313 1.404-1.118 2.318-1.61 3.544zm3.22 2.26c.463-1.046.815-2.202.972-3.548 1.196.845.625 3.456 1.287 4.835-1.058-.123-1.423-.943-2.258-1.288zm19.35 9.993c-.658.69-1.277-.09-1.933-.323-.504-.467-1.507-.43-1.934-.966-1.347.072-1.525-.526-2.58 0-1.26-1.317-3.225-1.938-4.51-3.224-1.97-.612-2.836-2.325-4.84-2.904.61-1.75-.127-3.324-.32-5.157.274-.063.302.123.32.32 3.02 1.82 5.9 3.775 8.708 5.805 1.373.988 2.918 1.806 4.192 2.9 1.147.972 3.98 1.343 2.897 3.548zm5.164 13.865c-1.126-.164-.474-2.105-.65-3.22 1.266.772 1.394 1.86.65 3.22zm21.924-2.578c-.222.376-.33.384-.647.643-.107.088.085.53 0 .644-.573.76-1.67 1.61-2.578 2.255-1.023.733-2.24 1.528-3.548 1.615-.687-1.14-1.067-2.587-1.93-3.546.433-.95.4-1.996-.325-2.58-3.45-.04-5.088 4.77-3.225 7.093 1.23.555 2.016-.955 2.258-.32.043 1.333-2.245.333-3.22.644-1.283-.12-3.09.29-3.87-.325-.112-3.01 1.37-4.43 1.932-6.773.613-.897.88-2.13 1.61-2.902.604-.904 1.44-1.576 1.62-2.904.022-1.1-1.198-.955-2.26-.964.5-2.082 2.187-2.976 2.9-4.837-.355-1.496-2.605-1.995-4.188-1.29.03.39-.47.2 0 0 1.154-1.235 2.608-2.044 4.512-2.257 2.313-.256 6.18.245 6.773.965.076.1.527-.055.643 0 .382.19.702.86 1.287.648 1.383 1.412 2.52 3.067 3.548 4.832.262 4.04-.17 7.43-1.294 9.36z" fill="#444"/></svg>