<svg xmlns="http://www.w3.org/2000/svg" width="128" height="128" viewBox="0 0 128 128"><path d="M122.667 17.28c-1.28-1.6-4.373-1.493-6.293-2.453-.427 0-.533.427-1.067.32-1.28.213-2.027.96-3.2 1.387-.853.747-2.453.853-3.2 1.707-2.453.64-4.587 1.708-6.72 2.774-2.56.64-4.373 1.92-7.04 2.453-2.027 1.067-4.587 1.707-6.72 2.773-5.013 1.28-9.067 3.627-14.08 4.907-4.8 1.6-9.173 3.413-14.4 4.587-.853.64-2.453.64-3.52 1.067-1.173.534-2.56.64-3.84 1.068C50.24 38.72 48 39.575 45.227 40c-1.92 1.28-5.013 1.28-7.04 2.454-1.6-.107-2.347.747-3.84.747-.853.748-2.773.534-3.52 1.388-5.44.853-9.493 3.2-14.72 4.267-1.173.427-2.133.96-3.52 1.067-.747.853-2.667.64-3.52 1.387-1.6.106-2.667.64-3.2 1.706-.96.747-2.027 1.173-1.707 3.2 2.133 2.453 6.187 2.987 9.173 4.587 2.667 1.92 6.613 2.56 9.493 4.267 3.627.853 6.187 2.987 9.813 3.84 1.172 1.067 3.092 1.387 4.16 2.453 1.066.107 1.6.747 2.452 1.067.32.853 1.92.427 1.707 1.707-.534 6.507-1.174 12.907-1.388 19.627.213 3.733-.533 6.4-.32 10.133v5.227c-.427 2.24 1.173 2.56 2.133 3.52 4.587.64 5.44-2.56 7.68-4.267.533-1.387 1.813-2.133 2.453-3.52.747-1.387 1.92-2.347 2.453-3.84 2.348-2.027 4.588-4.267 6.72-6.72 1.28-.853 2.028-2.347 3.2-3.52 1.6-.747 2.028-2.667 3.84-3.2 4.588 2.24 9.6 3.947 14.08 6.293 2.454.96 4.8 2.027 7.04 3.2 2.348.96 4.374 2.453 6.72 3.52.854 1.067 2.24 1.493 2.774 2.773 1.28.64 1.6 2.347 3.84 2.133 1.493.213 1.92-.64 2.775-1.067.426-.96 1.812-1.068 2.452-1.708.32-1.813-.64-2.667 0-3.84 3.09-5.12 4.158-12.267 5.225-19.307 1.6-6.72 2.773-13.867 3.84-21.12 0-1.92.747-3.2.747-5.227.747-1.387.533-3.733 1.387-4.907.108-1.92.748-3.2 1.068-4.906.533-1.6.64-3.52 1.387-4.907-.107-2.133.853-3.2.747-5.227.747-.32-.107-2.24.747-2.453.212-.853-.428-2.56.32-2.773 0-.96-.214-2.347.32-2.773.212-.852-.428-2.56.32-2.772.32-2.133-.534-3.52-.854-5.227zm-97.28 40.747c-2.88-.533-4.8-2.027-7.68-2.453.64-1.173 2.987-.427 3.84-1.387 1.707.107 2.453-.853 4.267-.747.213 1.92-.64 2.773-.427 4.587zm8.746 3.84c-1.813-.853-3.947-1.387-4.907-3.2v-6.293c2.027-.107 2.987-1.173 5.227-1.067-.213 3.307-.427 6.827-.32 10.56zm3.947 1.813c-1.173-3.947-1.067-9.173-2.453-13.013 2.027-.213 3.84-.533 5.227-1.387.427-.107.64.107.747.32-.32 4.8-1.066 11.52.32 15.787-1.6-.32-2.56-1.173-3.84-1.707zm16.853-18.347c1.387-.213 2.56-.747 3.84-1.067.107 3.413-.64 7.68 2.453 8.107 2.56 0 2.24-2.987 2.453-5.227-.108-1.387-.214-2.773-1.068-3.52 1.707-1.067 3.627-1.493 5.653-2.133 1.707-.533 3.093-.96 4.587-1.387.427-.107.533-.32 1.067-.32.32 0 .212-.32.32-.32 1.92-.64 4.052-1.067 5.972-1.707 2.027-.748 3.84-1.814 5.973-2.134 0-.427.533-.213 0 0-4.907 3.84-10.133 7.467-14.72 11.627-2.56 1.813-4.907 3.947-7.467 5.867-1.067 1.173-2.347 2.133-3.52 3.2-1.387.853-2.24 2.24-3.84 2.773-.853-1.707-1.493-3.627-1.707-5.973v-7.787zm-9.493 2.88c1.707-.64 3.84-.853 5.227-1.707.427-.107.64.107.747.32 0 4.373-.96 8.747 0 12.267.32.64.853 1.067 1.067 1.707.64.107 1.494.107 1.388 1.067-2.24.853-3.307 2.773-5.653 3.52-2.773-1.92-2.56-6.827-2.453-11.627-.427-1.493-.427-3.52-.32-5.547zm17.173 35.84c-1.067.32-1.387 1.387-3.2 1.067-2.027 2.027-3.733 5.12-5.653 6.72-.32.32-1.067.32-1.387.747-.533.533-.853 1.493-1.387 2.133-.64.747-1.6 1.067-2.133 1.707-.107.107.107.533 0 .747 0 .107-.64.213-.747.32-.853 1.173-1.387 2.347-2.133 3.52-1.067-.747.32-2.027 0-3.2V85.76c.747-4.692 0-9.066 1.387-12.692.96-1.173 2.88-1.387 4.267-2.133.96-1.173 2.56-1.707 3.84-2.453 2.347-2.027 4.267-4.373 6.72-6.293.64-.64 1.92-.64 2.773-1.068 3.093-2.56 6.08-5.12 9.173-7.68 1.6-1.28 3.2-2.347 4.587-3.84 1.813-1.173 3.52-2.347 4.91-3.84 1.28-.107 1.492-1.28 2.452-1.707 1.067-.427 1.707-1.173 2.453-1.707 1.707-1.067 3.2-2.347 5.227-3.2 1.387-1.387 3.52-2.133 4.907-3.52 2.24-.747 3.306-2.56 5.652-3.2 0-.427.533-.213 0 0-7.255 8.32-13.656 17.493-21.442 25.28-.32 1.6-1.92 1.813-2.453 3.2-1.28.747-1.92 2.133-2.773 3.2-1.28.533-1.493 2.24-2.773 2.773-.532 1.494-2.026 1.92-2.452 3.52-3.947 3.734-6.08 9.494-9.813 13.654zm8.107-2.88c.533-.747.96-1.6 2.133-1.707-.32 1.28.427 1.707.32 2.773-.853-.32-1.387-.96-2.453-1.068zm39.36-26.666c-1.28 8.533-2.56 16.853-4.587 24.533-.32 1.387-1.067 2.133-1.707 3.2-.427 4.8-1.067 9.493-2.453 13.333-1.493-.427-2.24-1.493-3.52-2.133-1.175-.64-2.56-1.173-3.52-2.133-2.99-.64-4.8-2.453-7.68-3.2-.533-1.28-.32-3.2-1.387-3.84-2.027-.427-1.707 1.28-2.773 1.707-1.92-.533-3.307-1.6-5.227-2.133-.64-2.24-1.707-4.052-2.453-6.292.853-2.88 3.733-3.733 4.907-6.293 1.813-1.813 3.093-4.16 4.907-5.973 2.987-4.373 6.933-7.787 10.133-11.947 3.842-3.52 6.933-7.787 10.56-11.627.213-.747.96-.853 1.387-1.387.853-1.066 1.387-2.026 2.453-3.2.213-.32 1.067-.426 1.067-1.066 0-.533 2.133-2.453 2.775-3.2.96-.96 1.707-2.347 2.453-2.773.213-.106.427.214.32.32-1.816 8.32-4.482 15.468-5.656 24.108z" fill="#444"/></svg>