<svg xmlns="http://www.w3.org/2000/svg" width="128" height="128" viewBox="0 0 128 128"><path d="M114.632 101.97c-.15-9.7.336-20.022-.316-29.217-.31-4.557-1.146-8.593-.953-13.657.254-2.568-.452-4.827 0-6.667.437-1.304-.768-2.595 0-3.177.43-1.39.04-1.632-.32-2.86-.653-.824-1.408-1.548-2.86-1.586-.69-.787-1.732-1.227-2.536-1.905-2.022-.94-3.526-2.4-5.4-3.492-1.55-1.41-3.443-2.48-4.76-4.128-1.89-1.184-3.19-2.948-5.4-3.81-1.606-1.362-3.278-2.65-5.08-3.812-1.427-1.54-3.59-2.336-5.4-3.49-1.756-1.208-3.893-2.034-5.4-3.494-2.02-1.05-4.527-1.61-5.714-3.493.032-2.146.155-4.384-.634-5.714-1.212-1.016-2.307-2.14-4.764-1.908-.43.102-.61.454-1.27.318-3.053 1.923-5.172 4.782-6.036 8.893-1.72 1.347-3.76 2.377-5.714 3.49-4.69 4.52-10.157 8.268-15.88 11.75-5.714 3.494-10.667 7.753-16.514 11.116-1.525.644-2.706-.34-4.125.317-1.65 3.328-1.952 7.997-2.223 12.704.49 17.394.35 35.423.95 52.71-.38 2.71.618 4.044 1.59 5.4 1.323.61 1.74.5 3.174 0 .826.655 2.29.673 3.81.638 8.48.732 18.308.11 27.31.316 1.662-.245 3.29-.52 5.082-.636 2.822.357 5.988.365 9.21.32 1.415.273 2.6.785 4.124.953 2.95-.194 5.26.246 7.938.318 4.59-.284 8.806-.936 13.656-.954 4.526.453 9.646.304 14.607.318 2.47-.917 5.784-.992 8.576-1.587.252-1.35.534-2.835.637-4.446.107-1.686-.08-3.393 0-5.083.21-1.485.498-2.888.635-4.446zM60.964 15.276c.603-.704 1.416-1.795 2.542-2.224.416-.156 1.404-.393 1.906-.315.053.005 1.26.685 1.585.95.416.335.66.908.955 1.27v2.86c-.843 1.514-3.06 2.862-5.08 2.222.07.023-.604-.3-.635-.317-1.184-.832-1.39-2.067-1.274-4.446zM34.607 39.093c2.935-1.83 5.875-3.654 8.893-5.4 2.837-1.926 5.536-3.99 8.26-6.034 2.146-2.617 5.497-4.03 8.575-5.715 1.703.413 3.06 1.173 5.394.953 1.802-.213 2.604-1.423 3.493-2.54.27-.058.3.124.317.317 2.517 2.46 5.083 4.867 8.576 6.352 3.522 1.344 6.246 3.488 9.21 5.397 2.958 1.91 5.847 3.89 8.573 6.033 2.29 2.58 5.52 4.22 8.572 6.034-.44.726-2.21.12-3.174.32h-9.532c-4-.552-8.894-.21-12.702-.954-6.05.34-11.59-.46-17.78 0-3.218.237-8.85-.22-13.02.317-1.166-.207-1.22.69-2.222.636H25.718c2.882-1.988 6.093-3.65 8.89-5.718zm-14.287 8.89c8.2.693 17.643.14 26.357.317 5.565-.523 12.208-1.478 18.1-.634 6.74-.027 11.854-.096 17.467.634 5.355-1.312 13.353.018 18.417-1.587 2.18-.06 3.98.256 4.766 1.587h2.54c1.298-.15.048.853-.315.954-.56.286-.927.768-1.588.954-.707.877-1.993 1.18-2.54 2.222-1.22-.256-1.542-1.42-3.176-1.27-24.105-.287-46.64.993-70.178 1.27-1.437.574-4.115-.093-5.082.953-1.57-.228-1.5-2.1-2.54-2.856-.543-.408-1.247-.657-1.27-1.587-.623.15-1.628-.858-.956-.955zm79.39 57.476c-10.403 1.04-20.403-.658-31.123-.32-6.477-.718-12.875-1.52-20.32-1.27-6.553.54-13 1.184-20.325.956.16-4.71-.427-8.675-.954-12.704V73.39c0-6.098-.373-12.24 0-17.782-.024-.448-.05-.9.316-.954 23.89 1.133 47.463-.002 72.722.32.02 8.54.713 17.056 0 25.403-.798 8.373.133 16.58-.318 25.088zM17.78 49.885c-.06.36-.32.176-.316 0 .06-.358.32-.174.317 0zm.954 60.018c-.912.037-.552 1.355-1.59 1.27-.43-2.107-.31-4.77-.315-7.306.536-.99-.09-3.203.636-4.13.177-.224.65-.213.637-.635.15-1.21-1.472-.645-.956-2.223.576-15.09.175-31.157 1.273-45.728.267-.06.3.124.317.318 1.018.57 1.085 2.09 1.907 2.86.252 1.332 1.7 1.47 1.906 2.854-1.263.962-.222 4.227-.955 5.717-.04 9.098-.46 17.126 0 26.042.784 4.928 1.056 10.376.955 16.192-.155 1.756-1.613 2.2-2.542 3.18-.213.737-1.056.85-1.27 1.588zm70.816 3.493c-4.98.928-10.288 1.073-15.883.636-5.458-.43-11.06-.24-16.51 0-3.195.14-6.23-.427-9.21 0-1.457.29-1.537-.794-2.857-.636-8.088.273-16.616.107-24.45.636.522-1.488 1.773-2.245 2.54-3.493 1.21-.69 1.732-2.077 3.174-2.54 2.447.302 4.832.67 7.304.952 5.41-.213 11.1-.317 16.826-.317 5.77 0 11.38.085 16.512 0 5.227-.58 11.024-.32 16.832-.32 5.712 0 11.37.245 16.512-.316.177-.46.493-.78.954-.954.254.058.317.316.635.314 1.133.98 2.29 1.946 3.178 3.18.733.334 1.1 1 1.586 1.586.416.5 1.18 1.116 1.267 1.905-5.367-.978-12.16-.537-18.41-.635zm20.96-13.02c-.437 2.735-.52 5.834-.956 8.575.055 1.39-1.072-.3-1.27-.638-.927-.02-1.177-.725-1.586-1.267-1.408-.5-2.404-1.408-3.493-2.226.197-4.882.22-9.944.64-14.607-.368-9.33-1.4-20.795 0-29.847-.026-1.352-.53-2.222-.318-3.81.325-1.368 1.61-1.78 2.856-2.223.6-1.093 1.946-1.44 2.86-2.224.283-.14.564-.278.634-.635.267-.06.305.124.316.318.43 5.795-1.09 12.568.324 18.1v30.483h-.004zM39.694 73.07c.254 1.542 1.688 1.91 2.54 2.856 1.558.437 3.84.437 5.4 0 2.412-1.257 4.397-5.346 3.493-9.205-.013-.054-.258-.087-.32-.32-.24-.952-.555-.668-.635-1.586-1.702-1.685-4.215-2.56-7.938-2.222-.194.017-.376.047-.317.317h-.637c-.988.496-1.667 1.298-2.542 1.905-.6 1.52-1.402 2.834-1.272 5.082.437 1.362 1.037 2.56 2.224 3.174zm6.987-7.305c1.308.834 2.2 2.076 2.223 3.492.02 1.233-.595 1.867-1.27 2.54-.21.21-.397.812-.634.954-1.238.735-3.335.812-4.765.32-.5-.874-.885-1.866-1.27-2.858.033-3.353 1.718-5.056 5.716-4.446zM95.9 94.347c-.627-.54-.856-1.476-.955-2.54-2.997-2.932-4.235-7.623-7.622-10.162-1.11-1.853-2.628-3.3-3.81-5.083-1.32-1.643-1.296-4.634-4.13-4.763h-.32c-.465.162-.796.468-1.265.636-1.704 1.89-3.023 4.17-4.446 6.35-1.684 2.022-2.84 4.57-4.77 6.35-1.51-1.027-2.34-2.733-4.44-3.177-1.9-.202-4.406.148-5.082.316-.407.103-.672.245-.952.32-.81.2-.846.405-1.27.636-.345.184-.675.154-.955.318-2.8 1.656-4.236 3.84-5.4 6.667-1.212-.798-2.113-1.905-4.127-1.905-4.126.21-6.525 2.155-9.207 3.81-2.155 2.185-4.926 3.756-5.713 7.308.763.732.483 1.024.315 2.22 3.99-.09 8.016.82 11.75 0 14.306-.72 30.712.652 43.506-1.586h6.35c.78-.6 1.553-1.2 2.86-1.27-.312-1.277-.392-2.788-.317-4.447zM32.384 100.7c-.28-1.02 1.05-.438.956-1.27 1.02-.28.437 1.045 1.27.954-.14.707-1.566.128-2.226.316zm4.13-1.59c-1.198-.332-.93-1.437-.32-2.223.713.14.132 1.568.32 2.224zm3.177-4.126c.32-.004.232-.395.316-.635.203-.575.324-.556.638-.955.37-.05.565.067.636.32-.17 2.285.092 4.14.633 5.713-2.818.593-2.158-2.29-2.222-4.444zm5.08 4.128c-.753-.2.05-1.954-.632-2.224v-5.08c.968.23.93-.547 1.904-.32-1.074 1.98-1.04 5.738-1.273 7.624zm4.448-.638c-1.413-.28-.813-2.573-.954-4.125-.17-.257-.333-.516-.32-.955.87-.233.64.632 1.274.634-1.01 1.39.59 3.58 0 4.445zm2.86-2.22v-1.27c.074-.98.88-1.232 1.265-1.904.05-.79-.164-1.318-.636-1.587-.096-.734.92-.352.955-.954.74.08.18 1.394 0 1.585v3.493c.245.815.316 1.8.952 2.22-1.308 1.185-2.28-.67-2.54-1.584zm5.712.634c.95.067-.303 1.32 0 0-1.58-1.173-1.344-4.156-1.907-6.35.056-.795-.484-.99-.95-1.268.89-1.124 1.932-2.09 3.49-2.542-1.172 2.763-1.486 7.067-.633 10.16zm21.274-19.686c.72.975 1.61 1.78 1.906 3.175-1.973.675-3.02 2.275-4.128 3.81-.722-.23-.95-.956-1.27-1.587.89-2.076 2.444-3.488 3.492-5.397zm.32 16.827c-.964.016-1.236-.67-1.902-.95.48-.896 1.502-1.25 1.266-2.863.57-.036.672.39 1.272.32.032 1.41-.892 1.867-.637 3.492zm-5.72-9.526c.633 1.173 1.73 1.877 1.596 3.81-.63-.22-.85-.845-.955-1.586-.32-.672-1.408-1.414-.64-2.223zM72.72 89.9c.37.056.34.505.32.955.947.064-.305 1.32 0 0-.373-.053-.348-.5-.32-.953-.69.058-.144-1.124-.317-1.587.69-.053.143 1.13.318 1.59zm-.637-3.49c.268-1.007.42.563.32.954-.266 1.01-.42-.562-.32-.95zm11.752 10.795c-6.333 1.395-14.61.848-22.23.956.657-.89-.4-2.182-.634-3.176.413-2.795-.72-5.557 0-7.622.366-.93-1.523-1.18-.633-1.59 3.054-.513 4.136.947 5.08 2.542.186 1.355-.23 2.1-.318 3.18.453 2.51.11 5.81 2.86 6.03 2.862-.847.593-4.45.63-6.986 1.07-.115.532 1.376.955 1.904.304.648.65 1.26.955 1.907.695.89 1.267 1.906 2.86 1.903 1.017-.043 1.396-.72 1.268-1.904-.384.03-.198-.466 0 0 1.146.76 1.803 2.004 3.493 2.22.998.15 1.298-.395 1.587-.953 1.03.184 1.477-.218 2.223-.32.267-.79.416-1.7.317-2.86.472-.48.512-1.393.637-2.223.435-.442.685-1.566.32-1.905-.414-.89-1.515.146-1.59.64-.946-.012-1.078-.83-1.904-.958.422-2.333 1.49-4.02 2.225-6.033 1.035-.086.672 1.23 1.584 1.268-.055 1.116 1.077 1.043 1.27 1.906.983 1.133 2.028 2.206 2.542 3.81-2.85.113-2.876 3.054-4.13 4.763v2.224c-.097.564 1.49.99.63 1.275zm5.08-.634c-.134.71-1.567.13-2.222.32.78-.956.41-1.417.32-2.86.256-1.325.62-2.556.634-4.128.977.506 1 1.963 1.91 2.542-.69.704-1.5 2.942-.64 4.128zm3.494.318h-1.59v-2.222c1.02-.28.438 1.045 1.27.954.18.648.957.624.32 1.27zm-28.9-6.986h-.953c-1.84 2.766-.023 9.266 3.174 6.987-.21-1.06-.99-1.552-1.27-2.54-.417-1.378-.09-3.506-.952-4.448z" fill="#444"/></svg>