<svg xmlns="http://www.w3.org/2000/svg" width="128" height="128" viewBox="0 0 128 128"><path d="M91.52 60.693c0-1.387-.64-2.027-.64-3.413-.533-.96-1.28-1.707-2.133-2.453-2.347-.853-4.587.213-7.253 0-2.24-6.4-3.84-13.44-5.547-20.48v-2.773c.32-.853-1.173-1.493-.32-1.707 3.2-.427 5.653-1.813 7.573-3.413.107-.213 0-.64.32-.64 1.067-2.987 1.067-9.173-.32-11.733-1.28-1.386-2.773-2.452-4.48-3.412H73.6c-3.2 1.173-7.787.747-11.093 1.707-5.12-.213-9.067.64-14.187.32-.64.427-1.173.853-2.027 1.067-.213.747-2.027.107-1.707 1.387-.96.64.213 3.412-.747 4.16v5.226c1.28 2.027 2.666 4.053 4.8 5.227 1.066-.107 1.492.64 2.772.32.96.213 2.773-.427 3.093.32-1.707 8.107-4.373 15.253-4.16 25.28-2.133-.32-1.813 1.6-3.84 1.387-.107.747-1.707.107-2.453.32-.107.747-1.707.107-2.453.32-2.134 1.493-4.054 3.307-5.868 5.227 0 2.347-.64 4.053-.32 6.613.427.107.427.533.32 1.067 1.28 2.133 2.133 4.587 4.16 5.867 3.307.64 8.107.427 11.093-.32h4.16c1.173.213 3.2-.427 3.84.32v5.547c.853 6.4 1.92 12.588 2.453 19.414.427 3.093.64 6.507 1.707 8.96.64 3.093.96 6.4 4.16 6.933 3.733-.32 2.667-5.44 2.773-9.387.64-6.4 1.067-14.4.32-21.12.64-3.093.213-7.467.32-11.093 5.12.107 9.707-.213 14.187-.747 2.453-1.493 5.44-2.453 6.933-4.8.213-.64.213-1.387.747-1.707 0-2.987.107-5.973-1.067-7.787zm-43.2-42.24c.32-.32.107-1.28 1.067-1.067-.427.427-.213 1.28-1.067 1.067zm5.44 6.294c-.533-.533-.32-1.813-.32-2.773.107-1.173-1.067-1.067-1.387-1.707 0-1.6 1.6-1.6 1.707-3.093 8.533.427 15.04-1.067 23.573-.747 1.387 1.28 1.493 3.84 1.387 6.613-1.387.533-3.093.853-4.48 1.387-1.173 0-1.6-.96-2.773-1.067-5.867.213-11.84 2.133-17.707 1.387zm16.64 26.24c-2.88 0-3.52 2.24-4.8 3.84-1.067-.747.64-1.6.64-2.453.533-.853 1.173-1.6 1.387-2.773-.213-1.28-2.027-1.172-3.093-.64.213-1.812 2.133-2.026 2.027-4.16-.106-1.812-2.026-1.812-4.16-1.706.214-1.92 2.56-3.307 1.388-5.547-2.773.107-3.627 2.133-5.227 3.413 0 .427-.532.213 0 0 .64-2.24 2.24-3.627 3.094-5.547-1.6.107-1.92 1.493-3.413 1.707.32-1.813.214-4.16 1.068-5.547 4.267-.427 9.173-.213 13.12-1.067-1.92 8.533.427 17.493 2.453 24.213h-5.546c.533-.96 1.28-1.92 1.067-3.734zm-24.213 11.84c.64.96-1.067 2.667-1.067 4.16-.747-1.067.213-3.52 1.067-4.16zM65.92 89.493c-.533-.747-.64-1.92-.64-3.093-.32-.747-.213-2.133-.747-2.773-.213-2.133-.747-3.84-1.387-5.547v-2.133h3.093c.212 4.8 0 9.173-.32 13.547zm20.8-22.186c-8 .107-15.573.533-23.893.32-.32-1.173.64-1.493 0-2.027-1.707 0-1.813 1.6-2.773 2.453-.853 0-1.067.64-2.133.32.108.96-1.92-.32-1.706.64-1.173-1.493.853-4.267-.32-5.867-2.027 0-2.133 1.813-3.093 2.773-.212.96-.106 2.132-.746 2.774.213 1.387-1.067 1.173-2.027 1.387-.427-2.772 1.92-5.226.32-6.932-2.347.427-2.667 2.667-3.093 4.16-.213.533-.107 1.92-1.067 1.707.427-3.093 2.027-4.907 2.453-8h-1.067c0 .427-.533.213 0 0 .107-.427.427-.533.64-.747 4.267-.64 8.747-.32 13.547-.32h13.867c1.387 0 1.707 1.067 3.093 1.067 1.6.213 2.027-.747 3.093-1.067h3.84c.32 2.558 1.387 4.158 1.067 7.358z" fill="#444"/></svg>