<svg xmlns="http://www.w3.org/2000/svg" width="128" height="128" viewBox="0 0 128 128"><path d="M28.395 49.49c-.456 1.864-2.3 2.34-2.085 4.873.578.698.93 1.62 2.084 1.74 1.97.344 1.93-1.315 3.136-1.74.644-1.09 1.056-2.42 1.734-3.483v-5.568c-.288-.402-.456-.932-.347-1.74-.944-1.753-1.598-3.47-2.432-5.22-.773-1.617-2.12-3.286-2.09-5.57.743-1.575 2.207-2.43 3.828-3.134.506-1.36 2.667-1.113 3.48-1.74.306-.236.267-.922.697-1.044-.023-1.713-1.432-2.048-2.784-2.435-3.856 1.247-7.174 3.035-9.4 5.915-.337 1.4-.426 3.05-.344 4.873 1.606 4.66 4.99 7.544 4.523 14.272zm9.4 4.178c.5.194.85.544 1.042 1.045 3.86-.203 5.75-2.38 6.613-5.573.11-3.59-1.8-5.16-1.74-8.702-.183-1.69 1.48-1.536 1.393-3.132-.668-1.2-1.816-2.09-3.482-1.742-.093.02-.543.644-.692.693-.21.07-.485-.05-.696 0-.64 1.568-.933 3.483-1.045 5.573.497 2.054.882 4.22 1.045 6.613-.816 1.74-2.745 2.363-2.437 5.222zm-24.368-4.874c.625 1.23 2.187 1.53 2.784 2.786.513 1.696.748 3.66 3.135 3.48 1.47.075 1.227-1.557 2.087-2.087.416-4.01-2.06-5.133-3.134-7.66.77-.506.69-1.86 1.742-2.085.832-.443 1.42-1.136 1.392-2.436-.422-2.096-3.57-2.71-4.87-2.09-.17.08-.222.56-.698.348-1.736 2.093-3.587 4.066-3.134 8.354.47.23.646.743.697 1.392zm111.733 5.92c-3.09-1.616-9.873-1.188-13.923-.698-6.266-.228-11.525.544-16.708 1.392-2.777 1.634-6.25 2.566-8.355 4.87-1.69.513-2.49 1.92-3.83 2.788-1.3.9-2.157 2.248-3.48 3.133-3.202 4.22-6.357 8.49-10.44 11.83-3.094 4.334-7.183 7.67-12.882 9.4-1.864-.687-5.195.09-6.26-1.392.172-2.725-.19-4.917-.35-7.31-.907-3.04-1.69-6.204-2.437-9.4-.387-1.58-.818-3.126-1.045-4.872-.847-1.243-.218-2.51-1.044-4.178-1.374-.36-2.046-1.43-3.826-1.39-2.013.272-2.976-.505-4.873-.35-1.79-.644-3.824-1.046-5.917-1.39-6.084-.054-11.925.138-16.36 1.74-1.498 1.286-2.357 3.208-3.477 4.873.39 5.977-.173 10.06-.35 16.014.355 1.387.508 2.973.694 4.523.616.67.738 1.813 1.045 2.787.815.576.896 1.888 1.393 2.782 1.198 1.59 1.93 3.64 2.786 5.568 1.377 1.643 3.396 2.635 4.178 4.875 1.47 1.663 2.9 3.365 4.177 5.22 1.152.122 1.51 1.043 2.09 1.74 2.783 1.158 4.9 2.986 8.353 3.483 2.997 1.056 7.595.523 11.136 1.043.448-.48 1.515-.344 2.435-.348 5.682-1.86 10.42-4.66 15.662-6.96 4.753-2.787 8.256-6.828 12.878-9.748 5.587-6.248 11.637-12.032 16.36-19.142 2.78-1.635 4.974-3.843 8.006-5.222 2.33-.576 4.117-1.685 6.96-1.74.842-.668 2.8-.22 4.178-.348 1.544.034 2.042-.976 3.827-.695h5.572c2.347.373 3.075-.873 4.527-1.393 0-1.163 1.13-1.19 1.044-2.437V60.28c.23-2.67-.762-4.115-1.74-5.566zM19.347 63.066c1.42-.107-.06.482.348 1.392-.297 1.11.547 1.077.698 1.74 5.957-.607 12.86-.43 18.095.698-.597 1.138-2.005 1.472-2.784 2.434-6.944.22-11.307-2.15-18.096-2.088.032-1.424-.048-2.74-1.397-2.784.5-1.013 2.065-.957 3.137-1.392zm82.49.347c-1.575.047-2.395.85-3.828 1.045-1.58.856-3.075 1.797-4.524 2.784-1.406.913-2.523 2.115-4.177 2.782-3.043 3.224-5.52 7.01-8.355 10.446-3.087 3.18-6.155 6.38-9.05 9.746-2.983 1.888-5.857 3.887-8.005 6.61-1.705.502-2.592 1.82-4.173 2.438-1.336.875-2.93 1.483-4.18 2.435-2.867 1.424-5.884 2.7-9.05 3.828h-6.96v-3.133c.09-1.018-.657-1.202-1.045-1.74-1.824.493-1.616 3.028-2.784 4.175-1.714-.023-2.894-.587-3.825-1.394.217-3.982 4.207-5.965 3.13-10.095-2.804-.138-3.092 2.246-4.874 3.134-.694 1.507-1.825 2.585-2.433 4.178-1.42-.702-2.26-2.065-.7-3.134.34-1.518 1.205-2.507 1.742-3.83.98-.868 1.102-2.606 2.086-3.476.493-1.045 1.61-2.83.698-4.178-3.055.163-4.085 2.773-6.267 4.176-.325.95-1.07 1.485-1.393 2.432-.817.34-.58 1.746-1.74 1.744-.054-1.227-1-1.557-1.046-2.784.083-1.58 1.318-2.822 2.09-4.176 1.09-1.91 2.907-4.01 3.827-6.615-1.845-.91-3.534 1.017-4.872 1.745-.73.43-1.312 1.01-1.74 1.74-.73.002-1.308 1.896-1.744 1.044.22-2.595 3.26-3.74 2.436-6.27-.63-1.61-2.968-.927-4.176-.345V73.85c5.946 1.134 13.44.717 20.192 1.045 1.803-.747 3.18-1.924 4.52-3.132.7 1.04.728 2.752 1.045 4.178.606 1.13.434 3.044 1.043 4.172-.092 3.112.01 6.025.693 8.355.123.46.612.55.7 1.045 2.292 2.926 7.04 3.4 12.53 3.132 2.51-.853 4.72-2.007 6.96-3.134 5.744-4.117 10.275-9.446 14.97-14.62 1.988-2.883 4.307-5.436 6.957-7.656 2.403-2.472 5.784-3.966 8.7-5.916 1.67-.072 2.55-.933 4.53-.7.817-.11 1.308-.547 2.435-.348.608.203 2.043-.42 2.086.35.676 2.415-1.535 1.95-2.438 2.786zm8.355-1.74c-1.168.357-.542-1.084-.695-1.74h1.045c-.192.507.405 1.8-.35 1.74z" fill="#444"/></svg>