<svg xmlns="http://www.w3.org/2000/svg" width="128" height="128" viewBox="0 0 128 128"><path d="M117.227 88V65.6c.107-1.067-.533-1.173-.32-2.24.32-7.467-1.173-13.12-2.56-18.88-.213-.107-.32-.32-.32-.64-1.387-1.6-3.733-2.347-5.44-3.52-3.413-.213-6.613-.64-9.28-1.6h-4.16V27.733c.213-4.48 1.493-10.24.64-13.76-1.387-1.387-3.627-1.707-5.76-2.24-12.16.32-25.92-.853-36.587.96-6.293 0-12.48.213-17.92.96-1.813.32-2.027-1.6-3.52-.64-.853 1.067-.96 2.88-.96 4.8v6.08c.747 4.693.32 10.667 1.6 14.72-2.027.427-4.587.427-6.4.96-.747-.533-1.387-1.173-2.88-.96-3.413.96-5.333 3.413-7.68 5.44-.213 1.387-1.493 1.707-1.6 3.2-.747.853-1.173 2.027-1.92 2.88-1.6 12.693-1.707 28.8-.64 41.387.96.533.853 2.133 1.28 3.2 3.307.747 7.787.107 11.52.32 1.707-.533 4.267-.213 4.48-2.24.32-1.493-.32-2.027-1.28-2.24-.213-1.173.96-2.24-.64-2.24-1.387-.107-.533 2.027-1.92 1.92-1.067-.427-2.24.747-2.56 0 .32-1.92 2.24-3.733 1.6-5.44-1.92.213-2.347 1.92-3.52 2.88-.427 1.707-1.067 3.2-3.2 3.2 1.28-2.56 2.667-4.8 3.2-8-1.173-.64-2.027.427-2.56 1.28-.427.32-.64.853-.96 1.28-.213.32-.64 1.813-.96.96-.32-3.52 1.28-5.12 1.92-7.68.533-2.24 2.88-4.267 2.24-6.72-.96-.427-1.813.107-2.56.64-.96 0-1.067 2.347-1.92 1.28.427-4.373 2.88-6.72 3.52-10.88-.64-.64-1.28.427-1.92.64-.427.32-.853 2.027-1.28 1.28-.32-5.12.427-9.173 1.28-13.12 2.133-2.027 3.413-4.907 6.4-6.08 2.773-.533 6.4-.213 9.6-.32 1.067-.427 2.453-.533 3.52-.96 4.8-.427 10.133-.32 15.36-.32 3.52-1.28 9.387-.32 12.8-.32 2.133 0 3.947-.533 6.08-.32 5.76.427 13.12 0 17.6 1.28h8.96c2.987.64 5.12 2.133 8.64 2.24 1.92 2.027 2.773 5.12 3.2 8.64.32 11.413.107 23.467.96 34.347h-4.8c-2.453.747-7.147-.64-6.72 2.88.96 2.027 4.48 1.493 7.36 1.6 1.707.427 3.947.32 6.08.32 1.387.107 2.88.64 4.16 0 1.173-2.027.747-4.48.747-6.827zm-23.36-69.653c0 1.387-.747 2.027-.64 3.52-.853 1.813-.427 4.907-.96 7.04-.213 3.093.427 7.04-.32 9.6-2.88-.32-5.973-.533-8.32-1.28-15.787-.427-32.747.213-48.427.96.107-.96 1.067-1.067 2.24-.96.747-.213.853-1.067 1.6-1.28 0-6.08-1.067-11.093-1.28-16.96h6.4c5.867-.747 12.267-.747 18.24-1.28h14.08c5.227-.213 10.24-1.92 15.36-1.28l1.28-.64h.32c1.067-.32 1.067.533.64.96.213.747 0 1.28-.213 1.6zm9.6 37.226c.427-.32.96-.747.96-.96 0-.32.213-.213.32-.32.533-1.067.213-2.88.32-4.48-2.133-2.667-7.573-1.173-8 2.24-.107 4.053 4.267 4.907 6.4 3.52zm-10.88-4.48c-2.987-.96-3.2 2.987-1.92 4.16 3.2.853 3.413-2.88 1.92-4.16zM95.467 72c-.107-.533-.427.107-.96 0-.32.107-.533.32-.64.64-4.16-.96-9.173 0-12.8.64-16.213 0-32.427-.107-48.107.32-.64 1.28-2.133 1.707-2.24 3.52-.747.213-.107 1.813-.32 2.56v3.2c.213 3.733.533 7.467.64 11.2.32 3.627.533 7.36.64 11.2-.107 2.027 0 3.84.32 5.44-.853 2.027.427 3.093.64 4.8 7.147 1.067 14.08-.533 21.227-.64 2.347-.107 3.947.533 6.4.32 1.813.107 2.133-1.28 3.84-1.28 6.187-.213 12.267-.533 17.6-1.6 2.773 0 5.867.32 7.36-.958 1.6-.213.533-3.093 1.6-3.84 1.387-.853 2.133-2.347 3.52-3.2.64-1.707 2.987-1.707 3.2-3.84.32-10.242-.64-19.31-1.28-28.587h-.64V72zm-3.2 28.267c-.107.427-.533.533-.64.96-.853.32-1.067 1.28-1.92 1.6-.533 1.28-1.173 2.453-2.24 3.2.107.96-.853.853-.96 1.6s-1.6.107-2.24.32c-.427-2.88-.64-5.973-1.28-8.64 3.413-.213 5.973.533 9.28.32.96-.32.427.64 0 .64zm-11.947-4.16c-2.027 2.88-.32 8-.32 11.84-5.227-.213-10.24-.427-15.68-.32-6.08.747-11.627 2.133-18.667 1.92-3.2-.533-6.72-.747-9.6-1.6-.747-4.693-.107-10.773-.32-16-.96-4.373-.213-10.453-.96-15.04H82.24c1.6-.32 3.307-.533 4.8-.96h6.4c.32 6.613.533 13.333.96 19.947-4.48-.107-10.133-1.28-14.08.213zM47.893 84.16h8.64c.96-.107 1.173.533 2.24.32h13.76c1.28-.427 3.2-.213 4.48-.64h3.84c.853-.64 2.667-.107 2.56-1.6-.533-2.667-4.373-1.813-7.36-1.92-.427 0-.427.427-.96.32-10.453.427-20.693 1.067-31.36 1.28-1.173.213-3.413-.64-3.2.96 1.28 1.92 4.587 1.28 7.36 1.28zm34.347 2.88c-.427-.533-1.6-.32-2.56-.32-1.173.32-2.667.32-3.84.64h-6.08c-4.267.533-9.067.64-13.12 1.28-2.24.213-4.587.32-6.72.64-1.813.64-5.12-.213-5.44 1.92.64 1.493 2.987 1.28 5.12 1.28 2.347.213 3.84-.427 6.08-.32 3.733-.64 8-.747 11.84-1.28h7.36c1.707-.32 3.52-.533 5.44-.64.96-1.067 4.053 0 3.84-2.24.107-.96-.96-.96-1.92-.96z" fill="#444"/></svg>