<svg xmlns="http://www.w3.org/2000/svg" width="128" height="128" viewBox="0 0 128 128"><path d="M77.86 38.116c1.212.196 1.225-.806 2.432-.608 1.175-.757 2.936-.923 3.96-1.827 1.587-.335 2.288-1.565 3.954-1.823 1.736-.192 3.41-.446 3.654-2.13.65-1.2.3-3.648-.304-4.565-.113-1.408-1.32-1.723-1.525-3.043-.554-.867-1.727-1.11-2.126-2.13-.46-.455-1.283-.545-1.525-1.217-.8-.317-1.866-.366-3.043-.305-.6.516-1.88.35-2.432.912-.62-.904-.235-2.812-1.22-3.35-.583-.835-1.183-1.652-2.132-2.128-5.237-.644-9.95-1.818-16.128-1.522-.354.05-.542-.067-.606-.304h-.307c.066.284-.128.252-.303.303-1.358.392-2.5 1.136-3.042 2.43-1.152.678-.282 3.374-1.525 3.958-5.31-.237-9.062 1.08-11.255 3.957-.192 2.52 1.59 3.075 2.737 4.26 1.17 1.163 2.6 2.063 4.26 2.738 1.346.988 3.04 1.628 4.258 2.74 1.263.64 2.92 2.258 4.87 1.215 1.506-3.55-2.013-4.387-3.346-6.084-1.28-.346-1.973-1.275-3.044-1.826-.456-.355-1.246-.378-1.522-.913-.27-.177-1.732-.64-.91-.912h3.347c.926-.19 2.624.39 3.043-.302 1.344-.396 1.248.017 2.13.61.483.75 2.132.122 2.74 0 .796-.822.796-2.834 0-3.654-.3-.757-1.712-2.453-.304-3.042 2.52.32 5.237.44 7.912.608.037.672 1.29.128 1.824.304.363.35 1.083.345 1.83.304 1.355.066 1.253 1.587 2.128 2.13.555 1.05 2.287.458 3.352.305.2 1.216 1.506 1.33 3.043 1.216 1.1-1.078 2.016.606 2.432 1.22.83.595 1.664 1.18 1.83 2.434.235 1.453-1.902.533-2.13 1.52-1.078.145-1.668.77-2.436 1.217-1.994.444-3.27 1.598-5.172 2.13-1.648.16-2.394 2.575-1.525 4.262 1.135-.112.798 1.237 2.133.917zm31.648 62.386v-6.39c-.422-3.834-.614-7.903-1.216-11.562-1.522-2.737-1.98-6.542-3.653-9.13-1.266-3.003-2.69-5.836-4.566-8.22-1.252-3.007-3.38-5.137-5.173-7.607-2.35-1.907-4.257-4.26-6.388-6.39-2.15-2.143-4.697-3.778-7-5.78-1.3-.83-2.913-1.347-4.26-2.133-1.317.205-.82-1.41-.91-2.432.208-1.224-.294-1.74-.305-2.74-.16-.244-.32-.493-.305-.913h-.912c-.6-.512-1.9-.33-2.738-.608h-3.344c-1.858-.373-4.136-.328-6.392-.302-1.777-.516-3.104.843-5.478.608-1.33-.213-1.713.518-3.043.302-1.273.323-2.065-.64-2.74 0-.817.402-1.618.82-2.434 1.22-3.79 1.284-4.91 5.233-7 8.217-2.125.614-3.61 1.864-5.477 2.74-2.116.624-4.835.64-4.563 3.65.44.372.46 1.16.912 1.522.717-.006.896.523 1.824.304.95-.472 2.547-.293 3.044-1.218 2.192-.747 3.883-2 5.78-3.043.45-.157.77-.45 1.22-.61 1.81-1.94 2.834-4.672 4.56-6.693 1.84-1.44 5.313-2.768 8.524-1.827 1.01-.208.49.632.3.914-.564.042-1.012.2-1.215.61-.765.45-1.676.756-2.128 1.52-1.57.864-2.938 1.933-3.96 3.35-2.734 2.13-4.724 5.01-6.996 7.604-1.91 2.96-4.115 5.623-5.78 8.826-1.694 3.18-3.454 6.286-4.87 9.74-1.43 3.44-2.262 7.476-3.348 11.26-1.003 1.433-1.003 3.863-2.13 5.172-.02 2.41-.857 4.014-.912 6.39-.008 2.444-.216 5.09.913 6.39.546 1.888.935 3.933 2.434 4.87.925 1.505 1.992 2.868 3.346 3.953.608.61 1.44.997 1.828 1.827.478.638 1.696.535 2.13 1.218.943-.028 1.45.373 2.13.608.794.12 1.668.155 2.13.608 1.84-.145 2.71.533 3.956-.303 1.628.005 3.368.12 4.26-.608 1.737.9 3.254 2.016 4.563 3.35.933.383 1.6 1.034 2.435 1.522.723.494 1.75.685 2.432 1.218 1.714.213 3.045.81 5.178.605 2.347-.18 4.593-.476 5.78-1.824.503-.715 1.777-.66 3.04-.608.857-.363 1.75-.688 2.74-.912 4-.87 6.603-3.134 9.435-5.173 1.074.036.082.442.61 1.218.034.776.443 1.18 1.218 1.22.988.635 2.206 1.04 3.346 1.522 2.937.697 5.636.768 8.828.608 2.09-1.086 4.028-2.513 5.777-3.957.555-.46 1.105-.496 1.525-.912.344-.347.49-1.004.912-1.52.665-.814 1.824-1.37 1.827-2.74.377-.84.887-1.543.91-2.737.053-2.194-1.013-3.258-.61-5.792zm-77.6-5.478c.702.923.107 3.14.307 4.565-.15.96.547 1.073.303 2.13-1.222-1.212-.34-4.528-.61-6.695zm.61 7c.45.257.653.767.608 1.52-.448-.258-.655-.765-.608-1.52zm5.476-7.608c.032.368-.44.187 0 0-.29-1.264.91-.062 0 0zM70.25 44.203h-2.43c-.044-1.29 2.38-1.092 2.43 0zm-7.605-4.26c.528-.825 2.15.654 2.434 0 .945.58-.478 1.322-.305 2.13-.183 1.095.928.895.913 1.823-1.032-.085-1.747-.482-3.044-.302.55-1.376.706-2.368 0-3.652zm23.13 72.428c-.224-.83.602-.613.604-1.217.742.192.167 1.536-.605 1.218zm16.43-4.87c-.722.496-1.75.687-2.434 1.218-4.515-.11-7.828.373-11.564-.304-.413-1.003-.608-2.23-1.827-2.432-3.1-.366-3.455 2.02-4.867 3.35-.944.067-1.184.846-1.824 1.218-.93-.015-1.185.644-1.83.91-1.22.607-2.432 1.22-3.648 1.827-5.62.14-10.064-.896-14.304-2.13-1.348-.127-2.138.303-2.74.912-1.327-.7-1.858-2.198-3.043-3.045.096-1.11-.048-1.98-.302-2.735-.48-.736-1.088-1.348-1.824-1.83-3.276-.825-5.16 1.523-4.566 5.482-.47-.645-1.1-1.133-1.522-1.824.312-.8.363-1.87.303-3.045.198-1.626.984-2.667 1.218-4.26-3.115-.945-4.196 2.674-5.173 4.867-.912-.512-1.445-1.392-2.13-2.128-.206-5.582 2.02-8.73 3.04-13.088-.873-.786-1.792.228-2.434.608-.288.346-1.48 2.257-1.52.91.948-1.08.852-3.202 1.826-4.258.312-1.613 1.14-2.715 1.52-4.26.757-1.17 1.056-2.8 1.83-3.954.434-1.18 1.45-3.086.604-4.565-3.147.1-3.975 2.517-5.173 4.565-.89-.258.184-.98 0-1.523-.047-.757.48-.942.608-1.52.165-1.157.954-1.69.914-3.045.453-.256.44-.98.61-1.525.45-.256.65-.766.606-1.52.574-.747 1.15-1.488 1.218-2.737-.198-.91-.65.288-1.218 0 2.136-4.156 4.915-7.666 7.61-11.26 2.7-3.49 5.894-6.48 8.217-10.348.516.014.79-.224.913-.608 2.837.408 5.57.922 8.215 1.522 1.163.363 2.643.403 3.653.914 1.2.218 2.464.376 3.35.91.676-.236 1.187-.64 2.132-.607 2.357 1.188 3.808 3.285 6.082 4.563.695 1.84 2.648 2.42 3.347 4.26 1.9.635 2.362 2.71 3.953 3.653.125 1.194 1.34 1.3 1.525 2.434.623.594 1 1.436 1.52 2.13 1.027 1.408 1.844 3.03 2.74 4.565 1.028 1.506 1.67 3.4 2.738 4.865-.117 1.33.866 1.564.912 2.737.817.405.512 1.92 1.216 2.434.203 2.333 1.62 3.452 1.525 6.085.652 1.782.372 4.496.91 6.39-.238 5.144.67 11.43-.913 15.22zM73.298 77.07c-1.945.12-2.767-.883-4.87-.608-.1-2.025-1.154-3.102-1.213-5.173-.896-.124-.245-1.787-.914-2.132-.3-.813-.63-1.604-.608-2.737 3.54-.62 8.725.406 8.825-3.65-.888-3.212-7.69-2.23-10.65-1.523-.457-1.267-.342-3.106-1.827-3.347-.064-.24-.254-.355-.608-.306-.324.69-.69 1.34-1.216 1.826.003 1.316.706 1.93.608 3.35-.576.334-1.436.385-2.133.607-.964-1.568-.516-4.553-2.735-4.87-.678.64-1.623 1.013-1.52 2.432.16 1.258.445 2.396.607 3.655-.923 1.408-2.392 2.272-3.65 3.346-.387 1.036-.91 1.934-1.523 2.74-.054.454.108 1.123-.303 1.216v4.565c.334.577.757 1.068.91 1.828 2.24 1.817 5.474 2.645 9.133 3.044.864 2.38 1.483 5.006 2.432 7.3.622 2.73 2.013 4.688 2.437 7.61-3.318.863-7.02.636-10.043-.304-.785 1.312-.612 2.87 0 4.26 1.882 2.81 8.663 2.41 11.868 1.523 1.265.56 1.064 2.59 3.35 2.132.604-1.425 0-4.06 2.13-3.957 1.444.683 1.354 2.906 2.128 4.26.497 1.63.71 3.55 2.738 3.65 1.58-3.23-.54-6.865-.913-10.04 1.137-.79 2.263-1.592 3.35-2.435.688-1.14 1.25-2.4 2.127-3.35-.14-1.76.512-2.736.608-4.258-.597-5.803-4.765-8.023-8.523-10.656zM60.21 68.853c.455-.357 1.244-.38 1.524-.913.352-.048.544.066.608.306.475 2.972 1.813 5.082 1.826 8.52h-2.133c-.294-2.95-1.7-4.79-1.824-7.913zm8.524 26.17c-1.298-1.34-1.715-3.558-2.435-5.477-.63-2.01-1.577-3.7-1.825-6.088-.36-.048-.256-.555-.304-.91.716.095 1.142.476 2.13.3 1.3 3.877 2.772 7.58 3.953 11.567-.542.17-1.26.158-1.52.608zm5.78-2.737c-.946-.068-.953-1.08-1.22-1.827-.608-.406-.678-1.35-.91-2.13-.647-1.282-.86-2.995-1.523-4.26-.058-.26.118-.29.303-.305 1.904.427 3.696.97 5.175 1.83 1.34 2.38-.043 5.595-1.824 6.69z" fill="#444"/></svg>