<svg xmlns="http://www.w3.org/2000/svg" width="128" height="128" viewBox="0 0 128 128"><path d="M115.595 33.766c-1.912-1.133-5.31-.78-7.915-1.216-2.86-.186-5.666-.42-8.218-.914-2.172.62-4.39.21-6.692.303-2.278.09-4.683.302-7 .302-14.847 0-29.162.333-43.21.61-1.71.32-3.667.393-5.483.607-1.23-2.824-1.66-6.454-2.13-10.042-.246-1.788-.63-3.424-.91-5.173-.59-.427-.46-1.576-.916-2.13-.327-.79-1.095-1.132-1.215-2.13-1.717-.006-2.517-.934-4.567-.608-.352.256-.815.402-1.52.303-3.397 1.27-6.115 3.216-9.432 4.565-3.46.497-6.194 1.717-7 4.867-.082 1.703.053 3.192.91 3.957.203 1.423 1.62 1.63 2.432 2.433h3.66c.044-.563 1.027-.19 1.215-.608.072-.533.52-.693 1.218-.61-.114-1.333.87-1.566.912-2.737V21.59c3.92.067 4.78-2.928 8.827-2.737 1.626 10.24 4.353 19.38 6.08 29.518 2.145 9.73 3.945 19.796 6.088 29.52-1.754-.128-2.9.347-4.26.608-1.235 1.2-2.784 2.086-4.26 3.043-1.452 1.086-2.59 2.483-3.65 3.958v5.175c.734.585 1.206 1.427 1.825 2.13.736.583 1.913.724 2.435 1.522 9.365 1.96 19.83-.704 28.3-2.434 8.188.64 17.244.406 25.563.913h13.39c.423.693 2.12.112 3.045.304h3.35c2.268.038 3.96-.5 4.26-2.432.163-2.4-1.173-3.296-3.045-3.654-6.866-.03-13.952.157-20.386-.304h-27.39c-2.193.34-4.08.994-6.388 1.22-1.59.944-4.686.385-6.09 1.52-2.744-.21-4.558.513-7.3.302-2.557.023-5.224.153-6.087-1.52.647-1.985 2.986-2.29 3.954-3.958 1.067-.25 1.83-.803 3.044-.91.032-.575 1.005-.21.91-.913.265-.446.457-.964 1.217-.915.444 1.12 1.592-.233 2.435.613.42.794 1.115 1.312 2.434 1.216 13.742-.212 26.77-2.57 40.474-1.828 1.832-.397 3.846-.615 5.78-.91h7.304c2.93.3 6.92 1.245 9.133-.304 1.368-1.62-.003-4.398 1.824-5.784.04-2.798.897-4.782.913-7.61 1.013-1.724 1.327-4.148 2.13-6.087.935-1.903 1.364-4.316 2.434-6.082.83-7.035 1.395-16.857-2.432-21.003zm-39.26 4.26c.15 2.185.512 4.157.608 6.39.15 1.067.454 1.98.305 3.35.73.383-.168 2.4.608 2.736-.13.68-1.5.125-2.128.304h-2.432c-3.482.377-6.99.725-10.96.61-1.203-4.475-2.803-8.56-3.65-13.39h17.65zM42.25 55.372c-1.445-6.055-3.146-11.863-4.257-18.256 5.605.688 11.547 1.032 17.956.913-.144 5.416 1.85 8.697 1.52 14.304-4.044.012-7.114 1.004-10.958 1.217-1.504.526-2.784 1.272-4.26 1.824zm9.436 22.52c-1.59.336-3.193.66-4.565 1.22-1.422-6.894-3.103-13.533-4.257-20.694 4.835 1.406 10.138-.143 15.52 0 1.12 4.962-.016 12.188 1.216 17.042.96.262 1.285 1.15 2.434 1.22 4.946-.72 2.428-8.434 2.737-13.09-.372-1.855-.884-3.577-.91-5.78 4.452-.62 9.18-.962 14.304-.912.15 6.443.493 12.693 1.216 18.562-9.195.85-18.206 1.88-27.695 2.432zm41.084-3.345c-3.255.5-6.475 1.035-10.347.912-.288-6.205-.975-12.008-.913-18.56h11.87c.412 5.317-.954 11.394-.61 17.65zm1.216-23.738c-3.968.798-8.478-.43-13.085 0-.127-4.535-.998-8.33-1.22-12.78 4.907-.547 9.568-.093 14.608 0-.388 3.97-.313 8.404-.302 12.78zm17.955 3.958c-2.154 3.22-2.83 7.922-4.865 11.26-.146 3.204-.732 5.967-1.22 8.823-2.972-.373-6.166-.528-9.435-.608 1.355-4.932 1.28-11.3 1.827-17.04 3.74-.724 8.637-.292 10.648-2.74-2.253-2.008-6.29-2.234-10.344-2.435V37.72c4.47.296 8.716.822 13.39.914 1.053 4.672.69 11.413 0 16.13zM51.08 95.543c-2.996.147-4.954 1.333-7 2.432-1.154 1.486-2.502 2.773-2.738 5.173-.187 2.016.646 3.006 1.22 4.26-.943 1.32.496 2.42.302 3.956 1.34.688 1.755 2.302 3.35 2.74 2.88.82 5.742-.38 8.212-.912.21-.603.813-.814 1.525-.914 2.244-2.32 4.492-4.638 4.867-8.823v-1.827c-.59-2.556-2.14-4.15-3.653-5.784-1.954.02-4.146-1.323-6.084-.303zm3.04 9.434c-1.137.483-1.35 1.89-2.737 2.13-1.756-.88-3.83-1.444-5.173-2.74.4-3.476 5.298-4.925 8.825-3.346.224 1.846-.294 2.95-.914 3.958zm48.39-9.133c-1.098-.33-3.828-.625-4.87 0-1.73-.105-2.61.636-4.26.61-.987.74-2.154 1.297-3.346 1.826-.587 1.24-2.1 1.553-2.436 3.043-.604 1.835-.177 4.69-.302 7 .54.575.82 1.41 1.518 1.827.256.86 1.394.838 1.523 1.824 1.35-.33 1.515.518 2.435.608 2.513.082 4.71-.157 6.39-.91.98-.238 1.796-.638 2.433-1.22 1.137-.186 1.237-1.4 2.435-1.522.953-2.296 2.387-4.107 2.434-7.303-.21-1.312-.9-2.14-.91-3.653-1.412-.31-1.598-1.85-3.045-2.13zm-5.175 10.35c-2.005-.432-5.062.192-4.565-2.737.25-.968 1.306-1.13 2.13-1.52.576-.54 1.948-.286 2.434-.914 1.675.117 2.112-.33 3.346 0 .113 2.95-1.624 4.053-3.347 5.173z" fill="#444"/></svg>