<svg xmlns="http://www.w3.org/2000/svg" width="128" height="128" viewBox="0 0 128 128"><path d="M81.48 39.765c3.246.096 6.3-.002 8.474-.98 1.233-2.676 1.757-6.067 1.958-9.778-.604-.048-.2-1.103-.654-1.306-.096-.66-.88-.637-.977-1.3-.874-.54-1.443-1.382-2.282-1.957-2.296-.528-4.555-1.096-6.843-1.63-2.68.145-5.984-.335-8.153.326-8.28-.133-12.635 3.66-16.623 7.822-.076.254-.012.644-.332.65-1.816 5.194-.395 11.845-.646 18.256.312 1.43.34 3.136.646 4.563-3.157.97-6.992 1.265-10.754 1.633-1.003 1.06-.562 3.563-.65 5.54.268 1.906.878 3.467 1.305 5.214.665.632 1.883 1.298 2.606 1.632.206.093.226.268.325.322 1.598.875 4.588.026 7.17.328-.434 6.468.805 12.804 0 18.578.018 1.07.927 1.248.653 2.608-.003 3.15-.21 6.51.655 8.8-.907 1.488-1.568 3.216-1.31 5.87.384.052.358.513.33.976-.236 1.538 2.034.573 1.63 2.283.512 1.493-1.352.603-1.304 1.63v2.933c1.675.933 4.62.597 7.17.65 2.87-1.37 6.912-1.564 8.802-3.91 1.45.77 2.893-.044 3.912-.652-.053-1.03.867-1.088.65-2.283-.012-1.074-.547-1.62-.324-2.933V94.2c-.65-7.5-.15-16.152-.975-23.472 2.807-.344 6.058-.245 8.148-1.305 1.13-1.474 1.192-4.023 1.63-6.194.56-.74.697-1.91.65-3.26.604-.698.218-2.386.33-3.584-.445-1.947-.532-4.252-2.61-4.562-2.792-.77-6.458 1.947-9.454.977.156-3.71-.926-7.66 0-11.082 2.362-.576 4.574-1.293 6.848-1.952zM69.415 55.41c.373.83.803 1.588 1.308 2.282.25.075.642.008.65.326 3.768.184 6.95-.224 9.782-.977.002 3.265-.856 5.668-1.634 8.15-2.09.15-4.634.98-6.188.65-.873.54-1.175 1.654-1.958 2.284-.155 1.443.448 1.62 0 2.605-.638.447-.175 2-.65 2.606v4.893c.27.916-.46.84-.325 1.623v11.41c-.27.918.46.844.324 1.63v9.78c.2.882-.416 2.584.325 2.93-.225 1.19-1.302-.067-2.607.326-1.67.396-2.925 1.206-4.89 1.305.37-1.152 1.01-2.032.98-3.586.154-1.245-1.155-1.02-1.63-1.63.61-2.106 1.775-3.654 2.28-5.866.625-1.68 2.26-4.245.977-5.87-1.65-.343-1.646.963-2.608 1.307-.072.254-.006.643-.325.652-.075.253-.008.642-.323.65.032.396-.478.204 0 0 .07-.252.006-.642.323-.65.075-.253.006-.644.325-.65v-.98c1.163-1.88 2.117-3.97 2.608-6.517.606-.917.896-2.148 1.305-3.264.494-.855 1.074-2.842.33-3.908-1.633.11-2.513.966-2.937 2.283-1.013-.622.512-1.42.33-2.283.436-.757.536-1.85.976-2.606.64-1.35 1.787-4.262 0-5.216-1.38-.078-1.933.676-2.283 1.626-.675.627-1.357 1.252-1.63 2.285-1.18-.23-.447-2.378-.65-3.585-.213-1.7.387-2.944 0-3.91-1.77-2.613-6.403-.344-10.105-.978-.344-1.003-.702-3.218-.328-3.912 3.302-.288 7.832.658 10.105-.65.077-.255.01-.646.328-.652.3-2.366-.858-3.272-1.627-4.565.734-2.635.128-6.607.326-9.778.738-.46 1.037-1.355 1.628-1.956.352-3.122 2.126-4.827 2.278-8.15-.86.004-1.917-.18-1.954.652-.954-.376-1.205 1.564-1.627.65-.356-1.766.78-2.047.975-3.26 1.894-1.367 3.832-2.685 5.87-3.91 5.5-.8 14.687-1.47 19.23.648.16 2.014-.906 2.792-.652 4.893H81.16c-3.45.784-6.28 2.197-9.455 3.26-.757.218-.873 1.083-1.627 1.303-.117 1.298-.713 2.114-.98 3.26-.255 4.703.415 8.49.32 13.037z" fill="#444"/></svg>