<svg xmlns="http://www.w3.org/2000/svg" width="128" height="128" viewBox="0 0 128 128"><path d="M116.017 67.07c-.284-2.254-1.88-3.196-1.824-5.784-.51-2.125-.95-4.328-1.525-6.39-1.207-3.964-2.537-7.81-4.565-10.954-1.536-3.634-3.563-6.782-6.08-9.435-2.086-3.19-5.096-5.457-8.22-7.608-.67-.45-1.64-.595-2.13-1.217-1.212.096-2.246.016-2.74-.608-.956-.464-1.484-1.357-2.735-1.522-.067-1.355-1.483-1.358-2.13-2.13-6.388-.31-10.65-2.74-17.957-2.13-.063.237-.253.354-.605.303-1.74.087-3.053.6-4.264 1.22-1.4.527-3.348.498-4.562 1.215-3.424.432-5.59 2.12-8.825 2.742-3.727 3.168-8.16 5.632-11.87 8.823-1.922 1.528-3.984 2.912-5.474 4.868-2.036 1.515-3.508 3.59-5.174 5.477-.17.544-.157 1.264-.61 1.52-.18.633.378 2.002-.304 2.134-.264 1.254-.953 2.09-1.216 3.346-.862 2.182-1.51 4.576-1.828 7.303-1.1 4.984-.922 11.25-.91 17.347 1.465 9.707 5.866 18.658 10.65 24.954.75.988 1.602 1.85 2.434 2.74 2.083 2.222 4.203 4.54 6.394 6.085.422.298 1.054.452 1.214.607.248.24.28.093.608.305.445.286.81.965 1.22 1.216.256.16.7.21.91.305 1.485.688 2.733 1.506 4.26 2.13.54.22.915.534 1.22.61.89.22 1.5.51 1.825.607.46.136.932.23 1.22.303.387.098.643.238.91.303 4.572 1.144 9.806 1.402 15.52 1.22 2.593-.652 5.684-.812 7.913-1.827 2.236-1.01 5.344-1.15 7.915-1.827 1.9-1.244 4.274-2.016 6.085-3.347 2.206-1.042 3.73-2.76 5.784-3.957 1.443-1.804 3.562-2.93 4.867-4.867 1.632-1.616 2.916-3.578 4.565-5.173.34-1.28 1.44-1.806 1.824-3.045.888-.736 1.138-2.107 2.13-2.74.958-2.287 2.15-4.343 3.347-6.388 1.877-4.61 3.133-9.845 2.737-16.736zm-86.73 17.954c.057-.346.306-.17.304 0-.058.346-.308.17-.304 0zm1.218-3.957c-.13 1.09-.808 1.624-.608 3.045-1.583-2.26-.45-5.528-.304-8.52.74 1.49 1.3 3.16 2.13 4.565.27.978-.995.427-1.218.91zm3.957 13.088c-.98-.14-1.05-1.184-1.525-1.824.008-.91.794-1.037.912-1.828.206-2.638-.536-4.333-.606-6.692-.37.032-.19-.442 0 0 .95 1.18 1.485 2.778 2.434 3.955-.006.91-.794 1.037-.914 1.828.18 1.803-.53 2.71-.302 4.563zm-.615-23.738c-.48-1.646-.734-3.524-.605-5.78 5.988 1.62 14.053 1.162 21.608 1.215 4.572-.7 7.86-2.685 11.563-4.26.224-.284.552-.46.913-.607 1.267.757 1.067 2.987 2.126 3.957-.994 1.135-2.737 1.52-3.955 2.432-1.298.832-2.637 1.626-4.264 2.13-2.51 1.645-5.344 2.973-7.608 4.868-1.32.81-2.46 1.803-3.65 2.738-1.29.74-1.794 2.263-3.346 2.74-.677 1.455-1.89 2.373-3.045 3.346-.377.638-.885 1.144-1.522 1.523-.533.48-.63 1.4-1.52 1.52-2.894-4.61-6.947-8.063-6.698-15.822zm11.264 34.997c-.554-.867-1.67-1.17-2.433-1.827 1.917-1.446-.465-3.68-.304-6.086 1.46 1.076 2.432 2.64 4.26 3.35-1.018 1.704-.053 4.307 1.214 5.477-.81.785-1.707-.92-2.738-.914zm32.868-5.78c-.292 1.505.814 1.62.913 2.734-2.02 1.024-4.377 1.71-6.693 2.434h-7.305c-1.847-.285-3.29-.968-5.173-1.218-1.91-1.338-4.385-2.108-6.092-3.652-1.325-.293-1.678-1.563-2.736-2.13-1.093-.528-1.78-1.464-2.737-2.13.45-1.475 1.797-2.054 2.738-3.044 1.043-.783 1.952-1.698 2.738-2.737 1.113-.712 2.017-1.636 3.045-2.433.846-.98 2.25-1.405 3.046-2.434 1.11-.31 2.084-.754 3.045-1.216 1.25-.878 2.653-1.605 3.344-3.045 2.396-.95 4.64-2.06 6.998-3.043.357.05.542-.067.608-.304.26-.058.288.117.304.303.26-.057.288.116.306.303 1.328 3.44 2.54 6.997 3.648 10.65-.653 3.478.306 6.94.004 10.96zm32.258-20.086c-.665 2.276-1.794 4.088-2.74 6.084-1.026 1.915-2.45 3.435-3.348 5.478-1.544.686-2.112 2.355-3.043 3.65-1.85 1.598-3.576 3.323-5.175 5.174-.62-.22-1.202-.956-1.824-.302-.725.19.047 1.87-.608 2.127-2.085 1.57-4.544 2.765-7 3.96-2.158 1.495-5.27 2.028-7 3.956-1.57-.663-4.328-.14-6.392-.306-1.286.072-1.144-1.29-2.432-1.216-1.547.336.178 2.9-.304 3.042h-3.653c-1.024-.192-2.825.39-3.35-.303-.564.016-.64-.235-.302-.608-.157-.452-.448-.768-.605-1.22-1.26-.64-2.862-2.317-4.565-1.52-1.37.484.235 2.38-.304 2.738-2.434-.405-4.426-1.252-6.696-1.827-.05-.757.48-.94.61-1.52-.953-1.18-2.024-2.24-2.434-3.957 1.57.66 2.893 1.57 4.26 2.434 4.972 1.312 10.333 2.244 17.044 1.824 1.92-.51 4.026-.837 5.474-1.824 1.03.085 1.75.482 3.044.303 1.488-.335 2.23-1.42 3.346-2.13 1.3.224 1.33 1.714 3.35 1.216 1.748-.776.918-4.86-.307-5.477-1.162-.52-1.898.902-2.13.306-.354-2.285-.336-4.94-.3-7.612-1.63-7.3-2.96-14.897-6.09-20.69-4.42 1.866-8.977 3.596-13.087 5.78-1.792 1.448-3.827 2.665-5.475 4.26-2.257 1.088-4.466 2.233-6.087 3.957-1.382.237-1.6 1.643-2.737 2.13-.63 1.095-1.805 1.642-2.435 2.736-1.764 1.583-2.935 3.76-4.258 5.784-.914.877-1.06-.728-2.432-.304-1.075 1.235-.584 4.114 0 5.478.365-.03.184.444 0 0-.42.015-.672-.143-.917-.302-.74-1.285-.735-3.322-1.213-4.867.1-2.128-.848-3.215-.914-5.174.815.707 1.426 1.62 1.824 2.74 1.416-.72 2.38-1.88 3.045-3.35 2.594-2.074 4.49-4.843 7.304-6.692 1.152-1.184 2.635-2.034 3.65-3.35 1.648-.687 2.478-2.19 4.267-2.736 4.917-4.41 12.91-5.75 17.647-10.347-1.952-4.234-4.53-7.846-6.086-12.476-2.415.934-3.872 2.827-6.39 3.652-1.988 1.464-4.69 2.208-7.306 3.043-7.314.042-9.61.18-16.434 0-.994-.08-.642 1.18-1.52 1.218-2.404-.13-5.377.304-7.302-.305-2.146.9-1.38 4.71-1.523 7.61.165.946.25 1.98.607 2.736-.053 1.457-.53-.52-1.52 0-.762-.054-.956.466-1.22.91-.625-.263-.607 1.548-.91.61-.662-4.007-.673-8.662-.61-13.39.466-1.665 1.068-3.194 1.823-4.566.518-6.48 2.947-11.05 5.784-15.215 1.08-1.052 2.438-1.825 3.35-3.044 1.642-.49 2.25-2.01 3.954-2.435 2.438-1.823 5.653-2.868 7.61-5.172 5.18-3.44 11.073-6.172 19.777-6.085.892.078.94-.69 1.83-.608 6.268.12 10.375 2.403 16.735 2.432 3.733 1.948 7.298 4.066 10.04 7 1.18 2.777 3.314 4.598 4.87 6.998 1.477 2.58 3.235 4.883 4.26 7.913 2.905 5.213 4.382 11.847 5.176 19.173v4.564c.55 2.187.213 5.267.303 7.915zM82.848 37.854c.866-2.683 2.955-4.145 3.346-7.307-1.365-2.39-4.555-2.95-7-4.26-2.162.236-3.395-.458-5.48-.303-4.464.606-9.732.412-12.778 2.435-.74-.678-1.726-1.116-3.346-.915-.736.958.546 1.933.608 3.044.864.554.885 1.95 1.827 2.433.82 2.12 2.323 3.56 3.648 5.173.955 1.99 2.5 3.385 3.35 5.478 1.432 1.515 1.866 4.02 3.348 5.477 2.252-1.704 4.765-3.146 7.002-4.867 1.88-2.07 3.39-4.523 5.475-6.39zM71.584 44.85c-1.168-2.482-2.608-4.692-3.954-6.996-1.402-2.253-3.237-4.067-4.264-6.697 1.8-.33 4.12-.144 5.786-.608 2.36-.176 5.436.368 7.302-.304 2.45.693 5.105 1.184 6.693 2.737-1.648 2.712-3.947 4.776-5.778 7.304-1.006.68-1.842 1.653-2.738 2.434-.913.787-1.838 1.66-3.046 2.13zm-14.912-9.734c-.62-.092-.595-.825-1.214-.914-.335-1.393-.91-2.542-1.83-3.346-.355.146-.688.323-.91.608-4.125 1.248-5.978 4.777-9.74 6.39-.746.57-1.377 1.258-2.433 1.52-.005.605-.83.386-.605 1.218-.755-.046-1.48-.058-1.525.606-1.838.904-2.82 2.656-4.26 3.957-1.078 3.078-3.082 5.237-3.044 9.435-1.41.213-2.222 1.024-2.43 2.434.857 1.867 3.89 1.875 5.78 1.523 1.645.483 3.77.49 5.48.912h8.82c2.785-.532 6.062-.822 7.914-1.524 1.947-.732 3.922-1.265 5.787-1.824.15-.77.166-1.36.607-2.434.89-.227 1.493-.736 2.13-1.216.644-.476 1.69-.547 1.825-1.525-2.165-5.843-5.74-10.283-9.127-14.912-.188-.517-.917-.498-1.218-.91zm2.438 16.43c-.983.54-2.13.913-3.35 1.217-2.333.712-4.972 1.116-7.607 1.525h-6.697c-1.856.37-4.13.326-6.387.303.825-5.97 4.703-8.884 7.607-12.778 3.01-2.16 6.105-4.243 9.13-6.392.073-.33.604-.206.61-.608 3.946 4.474 6.82 10.016 10.042 15.217-.805.816-1.985 1.262-3.35 1.518zm28.91 13.09c5.264-.936 10.454-3.532 16.737-2.435-.71-5.887-2.917-10.27-5.173-14.604-.427-1.2-1.476-1.77-2.133-2.74-.473-1.246-1.158-2.288-1.825-3.346-1.252-2.094-3.03-3.664-4.565-5.48-1.374.064-1.662-1.077-2.434-1.216-.015.388-.384.42-.302.91-1.056.265-1.054 1.583-1.824 2.134-.655.766-1.144 1.696-1.826 2.432-1.07 1.77-2.066 3.62-3.656 4.87-.996 1.84-3.002 2.675-4.258 4.258-1.675 1.165-3.893 1.785-5.173 3.35 2.45 4.142 4.285 8.906 6.694 13.085 3.073-.585 5.806-1.5 9.744-1.216zm-7.91-4.87c-.54-.278-.558-1.068-.915-1.523-.597-1.13-1.317-2.133-1.824-3.346-.03-1.352 1.58-1.056 1.825-2.133.725-.49 1.344-1.09 2.13-1.52 1.298-1.85 3.003-3.285 4.26-5.173 1.614-1.53 2.526-3.76 3.652-5.78v-.913c4.608 4.216 7.322 10.325 8.216 18.26-5.557 1.034-11.013 2.17-16.128 3.65-.98.066-.74-1.085-1.216-1.52zm21.298 9.13h-14.91c-.45.156-.768.452-1.22.608-.503.414-1.773-.25-3.042 0-.344.67-2.01.02-2.13.91 1.592 2.567 2.433 5.888 3.956 8.52.765 3.4 2.176 6.147 2.434 10.044-.06 1.328-1.446-.363-1.22.913.45 1.684.84 3.422 1.22 5.174v3.044c-.227.94.836.587.608 1.525-.177.18-.713 1.442 0 1.52 3.08-1.69 5.216-4.32 7.915-6.39 1.66-.67 2.228-2.43 3.953-3.043.478-.736 1.088-1.348 1.824-1.827.695-.523.97-1.465 1.828-1.824.384-1.342 1.163-2.292 1.828-3.35.36-2.987 1.225-5.467 1.52-8.52v-3.656c-.02-1.195-.15-2.286-.608-3.043-1.245 1.58-2.632-.415-3.957-.605zm-.912 13.998c-1.287 2.466-2.48 5.028-4.258 7-.813 1.015-1.8 1.85-2.435 3.043-.878.034-.527 1.296-1.523 1.216-.107.4-.533.478-.608.912-.273.188-.544.37-.61 0 .69-9.307-2.016-15.225-4.56-21.3 3.87-.798 8.732-.6 13.39-.61.795 2.65.587 6.307.605 9.738z" fill="#444"/></svg>