<svg xmlns="http://www.w3.org/2000/svg" width="128" height="128" viewBox="0 0 128 128"><path d="M118.757 42.233c-.976-1.58-3.92-1.195-6.072-1.6h-4.794c.61-1.52 1.476-2.787 2.24-4.156.238-1.888 1.093-3.164.96-5.433.556-.718.756-1.797 1.275-2.558.446-.622 1.045-2.056.32-2.875-.22-.95-1.27-1.07-2.557-.956-.378.156-.725.338-.956.64-1.93 1.867-3.357 4.37-5.437 6.07-.04.035-.267 0-.32 0-.373.02-.14.202-.322.32-.63.42-1.11.656-1.59.96-1.228.76-2.36 1.92-3.84 2.237-2.284-.91-4.993-1.403-7.99-1.595-4.992.44-9.934.928-13.104 3.194-3.93 1.51-6.37 4.494-9.27 7.033-.213 1.382-1.475 1.717-1.597 3.196-.02.194-.05.377-.32.32.187 1.037-.218 1.485-.318 2.236-.002.573.86 1.86 0 2.24-3.544-.515-6.406-2.717-9.27-4.158-3.095-1.554-6.333-2.603-8.948-4.79-3.087-1.39-5.432-3.52-7.67-5.755-.895-1.344-2.337-2.136-2.88-3.837-1.63-.71-.753-3.934-3.193-3.835-1.36-.185-1.486.862-1.917 1.6-.304.975-1.557 1.002-1.6 2.236-.018.197-.047.38-.32.322-.733 4.698-2.274 8.592-2.237 14.06.555 1.79 1.507 3.186 2.556 4.477-1.803.22-3.087.958-3.836 2.24-.256 4.63 1.63 7.106 3.2 9.904.578 1.66 1.515 2.954 2.556 4.155.075.99.89 1.243 1.276 1.92.08.454.528.538.642.958-.173.46 1.245.78.317.956-1.78.56-4.38.303-5.43 1.6-.47 1.202-.47 3.592 0 4.793.147 1.024 1.216 1.127 1.278 2.237 2.155 1.794 4.666 3.22 7.035 4.796 2.48.715 5.227 1.165 7.99 1.597-.442 1.478-1.458 2.377-2.557 3.195-3.364 1.645-7.973 2.044-11.83 3.196-2.39.162-4.12.992-6.708.96-1.433.548-3.68.323-4.794.958-.526.296-.437.416-.96.956-.578 1.773.48 3.19 1.916 3.837-.02 1.088.942 1.192 1.6 1.6.384.79 1.094 1.248 1.918 1.597 2.35 2.016 5.468 3.27 8.312 4.796 3.577.79 7.11 1.624 10.867 2.237 3.864.504 8.2.537 12.144.957h4.155c2.204.57 5.31.235 7.99.32.41-.437 1.39-.316 2.24-.32 2.25-1.158 5.156-1.66 7.03-3.194 2.476-1.04 4.265-2.77 6.714-3.836 3.735-3.3 8.353-5.71 10.864-10.23.885-.82 1.515-1.894 1.92-3.195 1.14-.674 1.662-1.96 2.556-2.877 1.744-1.77 3.046-3.986 4.475-6.074 1.376-2.14 2.485-4.548 3.838-6.71-.043-1.748 1.316-2.09 1.277-3.84.834-.973.763-2.855 1.602-3.833-.146-1.1.125-1.79.317-2.558.202-5.525-.204-10.448-1.28-14.7 2.533-.667 5.092-1.3 7.035-2.557 2.267-.797 4.305-2.507 3.51-5.432zM104.06 59.81c-.662 3.708-2.657 6.08-4.478 8.63.252 1.634-.448 2.32-.317 3.836-.683 1.344-1.237 2.81-1.6 4.472-.875 1.15-1.433 2.613-2.236 3.836-1.583 2.364-3.357 4.53-5.116 6.714-1.632 2.417-3.936 4.16-5.757 6.39-1.813 2.127-4.064 3.818-6.07 5.754-2.04.732-3.834 1.712-5.434 2.877-1 .386-1.995.774-2.874 1.28-.765.624-2.156.618-2.88 1.275-4.69.638-9.924.733-15.34.64-4.445-.454-9.12-.683-13.106-1.6-3.98-.815-6.52-3.07-9.91-4.472.662-1.042 2.74-.667 4.158-.957.133-.717 1.698-.01 1.915-.64 1.11.256 1.23-.477 2.24-.32 2.43-.867 5.307-1.3 7.352-2.557 1.215-.594 1.748-1.87 2.875-2.557.143-.818.446-1.472.956-1.92.207-1.182.87-1.902.64-3.515.48-.907 1.292-1.477 1.28-2.878-.32-.634-.554-1.365-1.28-1.6-.11-.843-1.626-.288-1.915-.955-1.1.14-1.794-.128-2.557-.324-.66-.187-2.1.396-2.237-.32-3.63-.097-5.604-1.852-7.988-3.19 1.854-1.127 4.448-1.518 5.75-3.2 2.226-.33 4.56-.554 4.796-2.875 0-3.09-3.326-2.852-5.75-3.518-3.338-2.844-5.153-7.207-7.673-10.866 1.027-.677 2.435-.973 3.194-1.916 1.957.25 2.33-1.082 2.877-2.24.08-2.105-1.435-2.61-2.558-3.516-1.116-.907-2.05-1.995-2.876-3.194-.013-3.53-.093-7.125.32-10.23.27-.06.302.125.318.32.976 1.904 2.41 3.342 3.517 5.113 2.292 1.544 3.99 3.68 6.71 4.798 1.953 1.78 4.782 2.677 6.716 4.474 2.592 1.135 4.997 2.457 7.35 3.834 2.887.843 4.554 2.904 8.628 2.557.858-.417 1.7-.857 2.557-1.28 1.113-1.964-.25-4.65.64-7.028 1.098-2.842 3.44-4.448 5.433-6.392 1.25-.668 2.39-1.446 3.517-2.24 1.498-.42 2.91-.928 4.156-1.597 1.62-.083 3.075-.334 4.476-.64h5.434c1.05.226 2.044.515 3.194.64.9.59 1.637 1.348 2.874 1.597 3.403 2.992 5.475 7.315 6.077 13.107-.532 2.09.225 3.773 0 6.392zm1.273-24.29c-.555 1.467-.996 3.047-2.558 3.515-.073-.456-.523-.54-.636-.958-.052-.902.903-.8 1.276-1.278.704-.366 1.058-1.072 1.917-1.28-.03-.387.467-.2 0 0zM81.683 48.62c.7.58 1.222 1.336 2.238 1.6.434.953 1.356 1.41 2.56 1.597.202-.65 1.49-.21 1.595-.958.75-.1.717-.99 1.28-1.28-.08-2.37-.557-4.34-1.6-5.752-3.268-1.824-7.228.17-6.072 4.794z" fill="#444"/></svg>