<svg xmlns="http://www.w3.org/2000/svg" width="128" height="128" viewBox="0 0 128 128"><path d="M80.42 77.66c3.45-.1 5.437-1.654 8.207-2.433 2.255-1.387 5.93-1.355 8.203-2.73 2.987-.664 4.8-2.497 6.987-3.95 2.052-1.596 3.99-3.302 6.08-4.864 1.474-2.578 3.39-4.707 3.947-8.207V47.58c-.516-3.534-1.55-6.556-2.43-9.726-.61-.398-1.025-.998-1.215-1.82-1.038-.784-1.95-1.697-2.734-2.732-1.387-.544-2.62-1.237-3.347-2.434.686-.222.12-1.707.303-2.428.69-.227.12-1.71.304-2.432.87-.043-.264-2.084.606-2.128-.235-1.256.47-1.562.31-2.736.548-2.74 2.435-6.71.604-9.113-.39-.42-1.323-.3-2.13-.305-.358.146-.69.325-.91.608-1.24.48-1.862 1.58-3.04 2.13-.8.916-2.148 1.294-2.733 2.43-2.085 1.457-3.595 3.49-5.775 4.86-1.396-.077-1.89.744-3.038.91-1.298.017-2.227.408-3.345.612-2.304.323-4.597.67-6.99.91-1.045.132-1.7-.12-2.43-.305-.956-.15-.69.93-1.82.61-3.015-.395-7.382.25-11.246 0-1.21-.313-2.593-.446-3.95-.61-1.556-.97-2.95-2.112-3.95-3.65-2.532-.804-4.308-2.368-6.988-3.036-1.553-.47-1.653-2.398-3.95-2.127-2.58.152-2.853 2.613-3.643 4.558.07 4.683-.524 8.357 0 12.764-.112 1.005-.912 1.313-1.52 1.823-.545.572-.827 1.403-1.52 1.822-.912 1.318-1.537 2.923-2.433 4.252-.156 1.873-.745 3.31-.913 5.163v7.6c.608 1.03.328 2.25.608 3.342.032.13.547.74.608.914.16.45.2.91.306 1.213.3.89.573 1.466.604 2.128.016.302.27.194.305.304.576 1.685.835 3.408 1.52 4.86.272.58.822 1.196 1.217 1.825.51.82.65 1.06 1.216 1.515.1.085-.087.507 0 .613 1.054 1.286 2.59 1.96 3.342 3.34 2.546 1.198 4.752 2.738 8.507 2.734.224.682 1.702.114 2.432.3.44.47 1.552.27 2.426.306 1.493.434 3.19.66 5.17.605-.696.828-1.346 1.693-2.13 2.433-.573 1.043-1.898 1.34-2.128 2.733-.96.864-.54 3.104-1.52 3.95-3.39.148-6.386-.097-8.506-1.22-2.933-3.24-4.23-8.12-8.203-10.33-3.037-.55-6.134.234-9.42.303-1.283 1.042-2.968 1.692-4.254 2.73-1.547.785-3.328 1.337-3.344 3.648 3.108 2.322 5.702-1.925 9.12-2.126 1.995-.073 3.31.535 5.468.304 1.285 1.65 2.23 3.642 3.04 5.77 1.054 1.275 2.17 2.49 3.04 3.952.757-.053.946.467 1.213.91 2.155 1.09 4.562 1.92 7.595 2.128h4.56c1.574 1.74 1.874 4.317 1.516 6.987-.06.467-.44.998-.604 1.523-.306.936-.435 1.73-.61 2.426-.27 1.08-1.273 2.01-1.217 3.04-1.952 1.49-3.54 3.34-6.99 3.345-2.087-.038-2.055-2.197-4.554-1.827-.273-1.144-.424-2.41-2.13-2.125-1.3.533-1.455 3.107-.912 4.56.5 1.526 1.243 2.806 1.824 4.246 2.34 1.917 6.997 1.516 11.243 1.524.64-.58 1.446-.98 2.432-1.218 2.153-2.608 4.027-5.49 6.075-8.203.215-1.404 1-2.24 1.214-3.644.354-.99 1.568-2.307 2.432-1.822.593 4.47.184 9.936.303 14.885-.67 1.05-.938 2.51-1.518 3.646-1.698-.082-2.813.43-3.648 1.218.3 1.728 1.298 2.754 2.432 3.642 3.17.337 4.926-.745 6.686-1.82.843-1.895 1.632-3.837 2.125-6.075.115-3.85-.064-8.44 0-13.064.41-1.727.91-3.348.913-5.47.644-1.487.04-4.212.91-5.47.068 1.955.486 3.564.307 5.772 1.056 6.944 4.82 11.18 6.984 17.016 2.145 2.012 4.236 4.073 8.204 4.252.26-.453.98-.442 1.522-.606.712-1.007 1.468-1.977 1.214-3.947-.238-.068-.352-.256-.3-.612-.838-1.795-3.457-1.81-4.865-3.037-.84-2.702-2.504-4.587-3.646-6.99-.74-2.297-1.334-4.742-2.436-6.684.09-1.605-.782-2.25-.603-3.947-.628-.078-.08-1.333-.607-1.52-.226-1.04 1.234-.387.914-1.52 1.27 1.254 1.756 3.302 2.43 5.16 1.978 2.99 3.8 6.127 6.682 8.206 2.385 2.683 5.52 4.61 9.724 5.472h3.947c.05-.56 1.033-.188 1.217-.608.203-.41.653-.565 1.218-.608 1.1-1.124 1.835-2.616 2.73-3.952.618-1.41 1.167-4.57-.3-5.467-3.808-.063-4.157 3.342-7.294 3.952-5.695-1.312-9.445-5.877-11.845-10.027-.18-.3-.117-.565-.306-.91-1.673-3.076-3.692-6.136-4.865-9.42-.896-.725-1.443-1.798-2.123-2.734-.533-.274-.945-.682-1.216-1.215-.59.147-1.55-.813-.91-.91zm17.93-45.88c.013.02.277-.572.304-.61.017-.02-.025-.3 0-.3 1.082-.19.03 1.348-.304.91zm-1.824 7.596c-.622-.09-.597-.824-1.218-.91.43-1.6 1.37-2.684 1.824-4.252.547-.043.642.367 1.22.304.5 2.726-1.39 3.06-1.825 4.86zm2.128 3.04c-.017-1.33.757-1.877 1.216-2.736.533.277.555 1.062.91 1.52.077 1.087-.91 1.114-.91 2.13-.62-.09-.597-.828-1.216-.915zm9.112 11.848c.646.096-.045 1.325-.3 1.52.145.957-.436 1.186-.61 1.823-.9.718-.852 2.39-2.43 2.43-1.416-.02.358-.696.304-1.216.277-.538.736-.888.914-1.517.946-.776 1.485-1.955 2.123-3.04zm-2.43-2.736c-.014-.925.645-1.18.915-1.82 1.47.388-.22 2.678-.914 1.82zm.31-12.15c.762 1.105 2.208 3.557.907 4.858-1.214-.305-1.216-1.82-2.126-2.428.14-1.075.768-1.664 1.216-2.43zm-.915 14.28c-1.06 1.06-1.962 2.288-2.732 3.647-.98-.806.256-1.952.608-2.432.62-.593.994-1.435 1.515-2.128.374.132.63.39.61.912zm-.912-16.41c-.005.606-.828.387-.606 1.216-1.15-.163-1.34-1.293-1.52-2.43 1.245-.13 1.588.64 2.126 1.214zm-1.213 7.296c1.01.74 2.093 2.406.912 3.644-.96-.258-.866-1.568-1.827-1.824.29-.62.625-1.208.917-1.82zm-1.824 6.984c-1.114-.623-.017-1.583-.305-3.034.675.238.763 1.058 1.216 1.517.15.955-.813.8-.91 1.518zm.61-33.117c.88 1-.588 2.24-.304 3.65-1.298.08-1.32-1.11-2.127-1.524.68-.837 1.908-1.128 2.43-2.125zm-4.56 3.343h.912c.015 2.075 3.06 2.18 2.128 4.256-1.57-.56-2.264-1.992-3.344-3.04-.125-.638.21-.805.306-1.217zm-1.823 3.954c.493-.09.523.284.912.302.1 1.413 1.724 1.31 1.823 2.73-.41.3-.608.814-.91 1.218-1.542-.18-1.548-1.89-2.736-2.43.12-.79.907-.92.91-1.82zm0 16.1c-1.052.212-1.088-1.066-.605-1.522.614.222 1.237.917.606 1.52zm-2.73-16.714c.16-.47.313-.02.302.304-.545.088-.624-.288-.302-.304zm.302 5.165c.492-.083.522.288.91.304.005 1.312 1.516 1.12 1.52 2.432-.953 1.278-1.536 2.923-2.43 4.253-1.362-.156-2.09-.947-3.042-1.518 1.074-1.766 1.966-3.707 3.04-5.473zM91.056 40.59h-3.953c.01-.91.794-1.035.914-1.824.78.036 1.062.56 1.517.913.776.035 1.562.057 1.518.91zM88.63 27.527c-.085-.494.288-.523.302-.914 1.18-.262 1.085.744 1.824.914-.44 1.28-1.576 1.864-1.824 3.342-1.168.55-.91 2.53-2.43 2.734-1.194-.896-.135-2.347.606-3.042.34-1.18.843-2.195 1.523-3.035zm-2.432-.61c-.864 1.264-1.685 2.568-2.428 3.95-2.338-.96-.826-4.954 2.43-3.952zm-2.126 8.814c.6 0 .384.826 1.214.605-.11 1.808-1.288 2.56-.907 4.864-.273-.238-.69-.33-1.222-.304.648-1.137-.034-1.728-.608-2.432.32-1.102 1.01-1.83 1.522-2.733zm-2.13-2.126c-.334 1.585-1.56 2.28-1.824 3.947-.615-.287-1.203-.618-1.822-.91.555-1.568 1.713-2.54 2.125-4.252.895.018 1.132.69 1.522 1.216zm-1.21-6.382c.155.156-.222.386-.307.305-.157-.16.224-.387.306-.304zm-5.17 4.863c.65-.562.803-1.632 1.518-2.127-.088-.49.288-.52.31-.914.618.092.59.825 1.21.914-.204 1.11-1.15 1.483-1.52 2.432-.683.635-.74 1.89-1.824 2.128-1.003-.747-.068-1.48.306-2.434zm2.427 8.203c-.132.683-1.497.123-2.128.304.112-.398.537-.477.608-.91.94-.23.585.833 1.52.605zM67.05 27.22h8.204c-.38 2.046-2.115 2.745-2.73 4.56-.908-.004-1.033-.79-1.825-.912.228-1.295 1.42-1.62 1.215-3.343-1.538-.125-1.778 1.06-2.734 1.515-.76.056-.948-.465-1.21-.91-.29-.323-1.123-.094-.918-.908zm6.69 13.37c-.524.698-2.32.11-3.348.306.736-1.298 1.643-2.413 2.13-3.95.45.155.767.45 1.215.606-.663.727-.834 2.34 0 3.038zm-4.865-3.038c-.89-.02-1.125-.696-1.52-1.216.23-1.193 1.188-1.65 1.52-2.733.706.203.813 1.006 1.517 1.213-.472.944-.9 1.936-1.517 2.736zm-1.52 3.344c-.82.186-2.41-.384-2.732.302-.907-.632.762-1.235.605-2.127.768.55 2.083.55 2.13 1.825zm-2.73-10.94c.97.24 1.323 1.1 2.123 1.52-.252 1.364-1.568 1.67-1.824 3.04-.995-.12-1.337-.89-2.126-1.215.156-1.57 1.596-1.85 1.826-3.344zm-7.296-2.734v.305c2.497-.725 3.4 1.21 5.774.3.053 1.066-1.027 1.004-1.22 1.827-.8.21-.64 1.38-1.516 1.517-1.46-.46-2.323-1.522-3.345-2.43-.068-.573.346-.667.304-1.213-.732-.125-.66.555-1.52.3-.31-1.02.945-.47 1.52-.604zm5.166 9.725c-.427 1.998-2.32 2.542-2.432 4.86-.88-.234-1.747-.48-2.128-1.215.47-1.86 1.853-2.807 2.432-4.557 1.178-.165 1.252.774 2.128.912zm-7.294-5.472c.16.16-.22.392-.306.307-.153-.16.222-.39.306-.306zm.606.608c.667.653 1.692.945 2.127 1.824-.84 1.893-2.347 3.12-3.04 5.165-1.24-.476-2.283-1.16-3.342-1.824.74-2.402 3.343-2.942 4.256-5.165zm-3.037 12.46c-1.012.2-1.485.945-2.425 1.217-1.198-.228-1.656-1.186-2.74-1.525.388-1.74 1.526-2.726 2.13-4.25 1.77.047 2.258 1.386 3.644 1.823-.327.786-.74 1.49-.61 2.736zm-6.683-4.257c-.562.533-.917 2.272-1.824 1.52.5-1.83 1.582-3.074 2.432-4.557.402.11.48.535.91.607-.206 1.11-1.15 1.483-1.517 2.43zm2.433-5.47c.157.16-.22.387-.305.306-.158-.155.224-.388.305-.304zm6.08-8.806c-.822.894-1.686-.736-2.435-.914.718-.797 1.58.832 2.432.914zm-2.436 2.73c-.9 1.84-2.564 2.91-3.345 4.864-.62-.09-.594-.824-1.215-.913.664-2.168 1.963-3.71 3.04-5.466.8.208.642 1.38 1.52 1.515zm-6.686-3.033v-4.562c1.44.79 3.153 1.305 4.56 2.13-.624.286-.844.98-1.22 1.52.166 1.072-1.076.746-.91 1.82-.988.832-1.578 2.07-2.124 3.344-.704-.822-.107-2.934-.306-4.252zm-.91 6.982c.16-.47.318-.022.305.305-.544.085-.622-.288-.304-.306zm-.607 2.127c1.4.55-.714 1.33-.603 2.432-.888.432-.69 1.947-1.827 2.128.208-2.123 1.6-3.06 2.432-4.56zm-3.643 15.8c.77-2.157 1.602-4.266 2.427-6.38h.914c-.584 1.778-1.795 4.103-.915 6.382-.755.767-1.57 1.466-1.822 2.736-.778-.338-.598-1.634-.604-2.738zm6.68-2.428c-.84.07-.69 1.13-1.21 1.52-.126.732.55.658.3 1.517-2.605 2.83-3.38 10.58-1.215 14.586.368-.032.188.442 0 0-1.807-1.534-2.57-4.112-3.343-6.686.45-2.894 1.866-4.82 2.43-7.598.705-.204.815-1.007 1.518-1.217-.213-1.126.52-1.303.307-2.43.354-.184.442-2.14 1.213-.913 1.338-.043.085.862 0 1.218zm15.5 23.092c-3.065-.384-6.112-.78-9.117-1.216-1.133-.996-2.23-2.023-3.035-3.35-.474-.64-.875-1.35-1.22-2.12-.537-.48-.4-1.63-.91-2.132-.025-2.96.274-5.597.606-8.2.442-1.788 1.906-2.553 2.735-3.954 1.29-.94 2.192-2.267 3.648-3.034.697-.22 1.553-.272 2.128-.608.545-.37 1.77-.053 2.127-.605 7.403.41 12.653-1.325 20.053-.912 1.563.246 1.995-.643 3.343-.605h6.686c.486.08.526-.29.91-.31.928-.22.898.527 1.828.31.768.035 1.177.437 1.212 1.216.4.308 1.12.295 1.52.604.908 2.74 2.032 5.265 2.735 8.208v4.86c-.96 3.29-2.333 6.175-3.947 8.812-1.082.848-2.82 1.03-3.952 1.824-.677.24-1.184.64-2.13.604-.106.806-1.546.277-1.823.91-8.18.694-15.26-.205-23.394-.298zm24.915-9.42c2.438.207 2.77-1.69 3.643-3.04-.043-3.8.62-8.316-3.036-8.513h-.61c-1.28 1.252-2.703 2.37-3.34 4.26-.05 1.664-.033 3.272.305 4.555 1.144.78 1.148 2.702 3.038 2.735zm-30.994.908c1.33.875 3.047 1.058 4.563.306 2.205-2.227 1.185-8.173-.308-10.332-5.083-1.522-6.174 6.31-4.253 10.027zm17.323.306c.05-.352.48-.328.912-.306.61-.715.802-2.035.306-3.034-1.14-1.09-3.282-.483-3.35 1.216.184 1.24.894 1.94 2.134 2.123zm1.217 3.344c-1.003.01-1.515.512-2.736.3-1.988-.135-2.1-2.15-4.25-2.12-.172.433-.478.74-.916.906.48 3.17 3.292 4 6.686 4.258.71-.098 1.136-.48 2.125-.307 1.48-.98 4.946-2.437 3.04-4.856-2.11-.19-2.592 1.25-3.947 1.823z" fill="#444"/></svg>