<svg xmlns="http://www.w3.org/2000/svg" width="128" height="128" viewBox="0 0 128 128"><path d="M72.117 79.115c-2.216-2.673-5.237-4.54-8.29-6.38-1.43-1.012-3.154-1.738-4.785-2.553-1.184-1.365-3.403-1.696-3.51-4.144.703-.888 2.06-1.13 3.192-1.596.708-.885 1.776-1.412 2.553-2.23 2.18-1.01 3.605-2.772 5.1-4.466.927-1.893 1.1-3.622 1.28-6.06.065-.927.335-1.68.317-2.553-.083-4.205-1.792-8.094-3.187-10.845.942-1.18 1.76-2.49 2.23-4.144.658-2.322.91-5.045 1.274-7.655-.75-1.798.315-5.414-1.273-6.38h-1.91c-.463.178-.78.497-.96.955-2.135 3.396-4.872 6.187-9.247 7.34-2.14-.414-3.79-1.315-6.06-1.597h-7.974c-2.26.82-4.162 2.005-6.697 2.55-6.164 5.533-10.177 13.212-11.8 23.284v4.783c.472.482.51 1.4.634 2.23 2.168 3.574 5.87 5.617 9.568 7.657 2.39.48 3.936 1.805 6.7 1.914.874.51 2.11.655 3.506.638 1.538-.048 1.416 1.562 2.235 2.233-2.626.456-5.035 1.133-8.29.96-1.02.683-2.524.88-3.51 1.59-1.344.468-1.96 1.655-3.51 1.915-1.828 1.786-3.912 3.315-5.74 5.102-.275 1.105-.996 1.766-1.594 2.552-.253 1.237-1.007 1.973-1.596 2.867-.712 2.268-2.096 3.86-2.552 6.38-.56 1.94-.418 5.37 0 7.334 1.803 4.68 4.398 8.57 8.29 11.165 1.984.78 4.13 1.397 6.7 1.594 1.766.928 3.935 1.95 6.695 2.23 3.02.314 6.363-.466 9.252.323 1.066-.633 2.35-1.05 3.823-1.276 3.058-2.048 6.866-3.344 9.89-5.422 3.34-1.763 5.746-4.464 7.973-7.337.718-2.684 1.43-5.376 2.233-7.973.138-5.053.733-10.195-.637-14.35-.252-.067-.376-.263-.323-.637zm-44.01-22.643c.17-.494.333-.02.322.32-.17.487-.335.016-.323-.32zm39.865 38.91c-.474.06-.292.77-.32 1.274-2.216 4.27-5.568 7.403-9.568 9.888-3.872.38-6.283 2.224-9.89 2.87-2.51-.068-4.838.052-6.694.64-4.875-.763-9.323-1.95-12.12-4.785-1.047-.71-1.404.664-2.233 0-1.363-1.718-2.503-3.664-3.51-5.743-.32-4.043.6-6.844.957-10.204 1.045-1.515 2.192-2.912 3.51-4.145 2.172-4.954 5.908-8.338 11.164-10.205.738.1 1.224-.053 1.594-.322 1.44.585 4.024.02 4.147 1.917.377 1.338-1.347.57-1.597 1.275-.92.04-2.087-.175-2.553.32-2.498.587-3.077 3.088-6.06 3.19-1.356 1.514-2.145 3.594-3.507 5.1-.232.726-.288 1.63-.64 2.236-.557.5-.416 1.707-.956 2.23.043 3.672-.576 6.465 0 9.89.836 1.82 3.066 2.252 4.467 3.508 2.293.358 5.026.285 6.696 1.274 2.935-.04 5.43-.525 8.612-.32 2.372-.82 4.132-2.25 6.38-3.19.07-.244.266-.37.637-.32.07-.244.266-.37.64-.317-.035-.384.46-.198 0 0v.318c1.702.09-.114-1.364 1.593-1.274.505-.773 1.14-1.412 1.913-1.915 1.1-1.347 2.002-2.887 2.87-4.464V86.13c-.396-1.623-1.18-2.86-1.914-4.148-.465-.808-1.694-.85-2.234-1.59-.504-.775-1.137-1.41-1.913-1.913-1.522-1.14-2.83-2.486-4.466-3.51-.716-1.624-2.262-2.417-2.87-4.146-1.003-1.442-2.13-2.76-2.553-4.783H43.73c-2.592-.492-4.62-1.54-7.014-2.233-2.315-2.365-4.803-4.555-6.062-7.973V48.5c-.227-1.436-.357-2.836-.318-4.146.213-7.218 3.84-12.126 8.93-14.67 3.044.175 4.63-1.114 7.337-1.275.75.413 2.2.13 2.87.634 2.033.52 3.252 1.845 5.103 2.553 1 .273 1.344 1.205 2.55 1.278.61.66 1.223 1.327 2.23 1.592.277-1.444-.352-1.987-1.276-2.233 1.628-.926 3.005-2.1 4.787-2.87.136 1.622-.49 2.49-.958 3.51.19 1.357-.228 2.108-.32 3.19-.042.783-.046 1.535.32 1.91 1.053.478-.662.78-.32 1.596 1.458 2.584 2.252 5.827 1.912 10.205-.318 1.063-.57 2.193-.955 3.19-.658 1.154-.46 1.716-.64 2.868-1.158 1.393-3.06 2.044-4.145 3.51-1.3 1.25-2.477 2.625-4.467 3.185-.418 1.493-1.813 2.016-2.55 3.19.515.976.554 2.42.96 3.512.61 1.267 1.495.373 2.228 1.274 1.03 1.415 2.172 2.722 3.51 3.83.767.4 1.93.41 2.553.954 1.577 1.715 3.147 3.443 5.103 4.782 1.24 2.477 2.278 5.16 2.868 8.29v7.022h.002v.002zm-11.8-13.078c2.417 1.728 4.827 3.467 4.465 7.974.092 1.685-1.502 1.69-1.913 2.87-.82.774-1.506 1.682-2.234 2.553-1.762.68-2.782 2.11-4.782 2.553-.773.398-1.554.79-2.55.956-.633.543-1.976.366-2.552.955-2.684-.126-4.998.107-7.337.32-1.868-1.22-2.867-3.303-4.15-5.103V90.28c2.13-3.294 4.837-6.006 8.293-7.975 3.877-.33 8.94-.606 12.76 0zm-7.654-5.42h1.91c.035.762-3.86.18-1.91 0zM53.3 60.298c.51-.556 1.196-.936 1.914-1.277.322-.422.304-1.187.96-1.275.81-3.34.907-7.388.956-11.484-.525-2.773-1.323-5.27-1.917-7.974-.917-.46-1.227-1.534-1.914-2.23-1.657-1.112-3.753-1.778-5.742-2.55-5.314-.427-9.414.366-11.16 3.505-.235 1.508.454 2.096.952 2.87-.4.447-1.68.018-1.27 1.275.178 1.035-.22 1.486-.322 2.234-.47 7.273 1.167 12.444 4.464 15.947 1.598.53 2.933 1.324 4.786 1.596 2.264-.184 4.427-.463 7.02-.32.052-.47.767-.288 1.27-.316zm-3.506-4.466c-2.246.096-5.184-.505-5.74 1.277-1.924-2.012-2.983-4.887-3.83-7.972.207-3.61-.55-6.253-.32-9.888.504-.557.633-.943 1.277-1.276 1.04-.536 2.245-.26 3.83-.32 1.42.815 2.313 2.153 3.51 3.19.464-.176 1.647.372 1.592-.32 1.216 1.335 2.147 2.956 2.55 5.103v6.38c-.884 1.346-1.844 2.62-2.868 3.828zm68.25 16.586c.53-1.067.11-3.083.64-4.15-.227-1.47-.853-2.548-1.91-3.188-1.73-.34-1.904.867-3.51.64-1.902-.6-4.843-.945-7.016-.318v-3.83c-.386-2.164-.653-4.445-.64-7.015-.405-1.462-.337-3.396-.642-4.15-.296-.75-1.088-.94-1.27-1.593h-1.913c-3.264 1.2-5.54 3.392-8.93 4.466-.918 1.523-.595 4.3-.64 6.696-.468 1.658-.292 3.958-.32 6.062h-6.377c-.592.974-1.515-.37-2.552 0-.006.526-.883.176-.957.638-.456.075-.54.526-.956.638-.5 1.468.34 2.067.318 3.827-.405 2.466-.62 5.12-.632 7.972.654.514.802 1.536 1.272 2.234 2.347 1.185 6.67.528 9.568.32-.17 4.315.445 7.847.957 11.485 1.21.81 1.993 2.044 3.192 2.87 1.952-.172 4.613.365 6.055-.32.632.76 2.222.754 3.185.32 1.498-1.398.95-4.14.96-6.7.015-2.645.2-5.493.32-7.656 2.06-.065 3.97-.283 5.74-.64 1.347.357 1.693 1.712 3.828 1.276 1.216-.8 2.155-1.88 1.914-4.146.164-1.858.475-3.568.32-5.74zm-30.298-.96c.427.21.597.683.64 1.277-.994.15-1.14-.8-.64-1.275zm.32 2.553v-.638c.27.06.3-.126.32-.318.615-.128.464 1.453-.32.955zm8.928-4.784c.693-.054.146 1.13.32 1.593h-1.272c-.157-1 .856-.843.95-1.594zm15.627 7.015c-1.903-.717-3.505.153-5.738 0-.707.175-.456-.608-.957-.64h-3.51c.172-.47.475-.803.64-1.272-1.354-.398-.85 1.06-1.592 1.272v14.67c-.675-.28-.944-.968-1.916-.955.187-1.144-.37-1.543-.637-2.235.51-1.824 1.397-3.275 1.912-5.102-.133-1.14-1.016-1.534-2.23-1.594.093-.844-.67-.822-1.28-.957V77.52c-.467-1.215 1.428-.065.956-1.276.025-1.088-1.18-.946-2.23-.956.27-.687.786-1.13 1.915-.956.68-.153.608.454.64.956.256.275.873.192.956.64 1.09.132.96-.957 1.596-1.278-.15-1.873-.45-3.59-1.28-4.782-.354-1.525.49-2.542-.954-3.19-1.006-.045-1.1.818-1.276 1.595-.75-.666-.34-2.87.635-2.87-.24-2.634 2.312-3.99 1.277-6.378-1.547-.273-1.81.742-2.235 1.596-.73-.65-.11-2.647-.318-3.826.156-1.006-.573-1.127-.32-2.234 1.344-.572 2.81-1.02 3.83-1.91.372-.054.566.067.64.32-.244 5.552.385 10.242.32 15.626.895.48 2.2.563 3.503.638 1.218.378 2.773.42 3.832.955h2.228c.896-.166 1.658-.467 2.554-.638-.625 1.927-.49 4.62-.96 6.695zM57.13 101.76h-.64v.32c.37.053.57-.07.64-.32zm-.64.32h-.64c.083.4.638.323.64 0z" fill="#444"/></svg>