<svg xmlns="http://www.w3.org/2000/svg" width="128" height="128" viewBox="0 0 128 128"><path d="M114.808 34.35c-2.203-2.573-4.338-5.22-7.016-7.323-2.272-2.61-5.365-4.392-8.544-6.1-.46-.054-1.127.11-1.222-.306-3.032-.084-5.952-.052-7.933.915-.99 1.348-2.048 2.628-3.05 3.966-.054.46.11 1.126-.304 1.222v4.576c.295 1.634.84 3.024 1.22 4.576-1.036 1.408-1.684 3.196-2.134 5.187-4.075 5.18-7.936 10.575-12.82 14.95-.204 1.116-1.153 1.49-1.522 2.444-.734.59-.933 1.71-2.135 1.83-.268-1.773-.2-3.876-2.444-3.664-.96.467-.508 2.34-.61 3.664.666.043.653.768.61 1.523.705.085.698.816.305 1.222-1.145-1.296-2.15-2.737-2.442-4.882.818-.712 1.488-1.565 2.136-2.443.384-1.9.73-3.168 0-4.88-3.043-1.55-7.087-.1-8.544 1.832-.048.356.053.864-.306.912.083 1.034-.233 2.474.307 3.05-1.11.22-.522 2.325-.306 3.05 1.056.47 2.782.27 4.273.306.395 2.25 1.643 3.648 2.745 5.19-2.603.343-3.566 2.33-5.795 3.05-1.154-1.594-2.325-3.168-3.356-4.883.862-.768 1.484-1.77 1.526-3.356-.102-1.525-.94-2.315-1.525-3.356-.96-.463-1.828-1.015-3.053-1.22-1.344-.124-2.357.084-3.047.61-1.54-.212-2.1.548-3.05.915-.406.712-.52 1.72-.92 2.44.17 1.564 1.412 2.05 1.53 3.663 1.268.46 2.588.868 3.353 1.83.602 2.655 1.81 4.7 2.44 7.324-.606.914-1.762 1.286-2.743 1.832-.973-.757-1.288-2.17-2.746-2.443-.448.673-.924 1.313-.91 2.444.347.384 1.392 1.62.607 2.133-.87-.755-1.533-1.722-2.135-2.745 1.163-1.582 3.07-2.42 2.745-5.49-1.2-1.508-4.59-.796-6.71-.607-.628.69-1.56 1.085-2.442 1.525-.658.663-1.05 1.595-1.523 2.44.142 2.796 2.907 4.29 5.796 3.357.515 1.216 1.438 2.02 1.83 3.356-1.198.123-1.3 1.342-2.44 1.525-.555.868-1.677 1.173-2.443 1.832-.497.823-1.19 1.45-2.133 1.832-.6.82-1.39 1.457-2.443 1.83-1.264 1.482-3.49 1.998-4.882 3.356-1.89.955-2.717 2.976-5.49 3.05.368-1.688-.874-1.77-.916-3.05-.744-.17-1.568-.26-1.525-1.22-2.008.074-3.034-.83-5.186-.61-1.488.545-2.578 1.49-3.66 2.44-.866 2.287-1.717 4.59-1.525 7.933.256.353.4.822.304 1.526 2.606 4.413 5.658 8.378 9.15 11.9 1.2.53 2.37 1.09 3.36 1.83 1.343.078 2.358.49 3.965.305 1.583-1.164 3.03-2.463 4.27-3.967.226-2.462-.495-3.98-.305-6.407-.896-.732-1.073-2.18-2.136-2.743 1.488-.142 1.924-1.338 3.36-1.528.017 1.102.76 1.477.914 2.443 1.6 1.653 3.403 3.104 4.88 4.88 2.05.697 3.28 2.213 4.882 3.355 1.348 1.397 3.217 2.276 4.273 3.968 4.22 1.983 8.75 3.657 15.56 3.052 1.4-.53 3.078-.786 4.272-1.528 1.11.096 1.98-.048 2.74-.303 4.306-2.107 8.345-4.466 11.596-7.626 3.713-2.8 6.494-6.526 10.07-9.46.762-1.578 2-2.68 3.05-3.967 1.147-3.125 2.414-6.13 3.048-9.76-.723-.805-.413-2.645-1.22-3.357-.065-1.463-.758-2.293-1.222-3.356-.843-2.212-2.46-3.644-3.356-5.8-1.7-.43-1.872-2.4-3.662-2.744-.003-1.826-1.91-1.75-1.83-3.662.72.096.566 1.06 1.526.913.942-1.192 2.06-2.207 3.05-3.354 2.657-1.312 5.18-2.755 8.85-3.05 3.3 3.713 6.71 7.32 12.512 8.54 2.17.14 3.893-.17 5.488-.607 2.76-1.718 4.06-4.897 4.576-8.852v-3.966c-1.344-8.213-5.307-13.807-9.45-19.226zm-54.31 22.272c-.47-.443-.268-1.562-.304-2.44 1.09-.843 2.046-1.816 4.272-1.525-.512 2.13-1.97 3.32-3.968 3.965zM48.6 60.896c-.368.032-.188-.445 0 0 .913.06-.293 1.265 0 0zm-6.407 10.066c-.747.273-1.326.713-2.44.61.76-1.378 2.376-1.894 4.27-2.136.047 1.167-1.245.992-1.83 1.525zm44.243-20.747c.154.157-.222.39-.31.305-.157-.158.225-.39.31-.304zm0 .612c.154.156-.222.39-.31.304-.157-.16.225-.387.31-.303zm-.92-1.526c.792-1.05.74 1.57 0 0zM52.57 62.116c-.658-.464-.94-1.303-1.525-1.83-.045-.975-1.127-.907-1.22-1.83 1.663-.838 4.54-.87 5.185.913v1.528c-.77.448-1.365 1.077-2.44 1.22zm1.83 2.44c-.14.446-.267-.028-.612 0 .075-.38.608-.308.612 0zm34.477 4.273c.592 1.34 1.675 2.19 2.746 3.047 1.065 2.498 2.428 4.69 3.66 7.02v5.49c-.206 2.64-1.362 4.33-2.133 6.41-.638.175-.87.754-1.832.608-1.788 2.587-4.27 4.476-5.8 7.32-1.525 1.02-2.745 2.34-4.27 3.356-1.537 1.002-3.036 2.05-4.273 3.355-.862-.25-.79.43-1.528.305-3.067 2.424-6.848 4.133-10.98 5.49-.75-.04-1.47-.045-1.832.303-1.134-.49-3.002-.25-4.578-.3-2.123-.214-3.98-.698-5.794-1.223-2.027-1.94-4.555-3.377-6.714-5.184.18-1.603-.536-2.31-.305-3.968-1.102-.085-.697 1.338-1.22 1.83-2.124-2.045-4.335-4-4.88-7.625 1.076-.245 1.418-1.23 2.75-1.222.225 1.4 1.204 2.05 1.52 3.357 2.566 3.435 5.432 6.57 8.242 9.76 1.07-.688 2.157.772 3.356.915h5.186c2.208-.435 3.998-1.286 6.1-1.828 3.3-2.296 7.265-3.925 9.766-7.02.693-.22 1.56-.272 2.133-.607 1.248-.994 2.368-2.112 3.36-3.357 1.51-.624 2.016-2.253 3.962-2.443.555-2.6 3.134-3.173 3.666-5.798 1.11.2 1.622-.204 2.134-.61.205-1.117.424-2.218.306-3.66-.243-1.79-1.282-2.788-1.528-4.577-.99-.944-1.662-2.205-2.135-3.664-1.68-2.182-3.474-4.253-4.88-6.713.548-.774 1.495-1.147 2.438-1.525 1.845.208 1.872 2.216 3.363 2.757zm-25.323 33.56c.604.005.386.833 1.22.61.554-.85-.586-2.12-.918-3.05-.62-.805-1.045-1.8-1.525-2.747-1.302-1.647-2.252-3.647-3.966-4.88-.942-2.21-2.203-4.104-3.05-6.41-.12-1.237 1.3-.936 1.527-1.828.257-.056.287.117.305.304.256-.056.288.117.305.304 1.544 3.134 2.95 6.404 4.576 9.458 1.726 2.852 2.776 6.38 5.188 8.544-1.465 1.387-2.86 2.835-4.885 3.662-1.302.18-2.017-.22-3.052-.303-3.083-1.797-5.954-3.807-8.544-6.102-1.092-1.35-2.31-2.57-3.66-3.662-.96-1.38-2.394-2.29-3.052-3.968 2.354-1.312 4.163-3.16 7.02-3.968.187 1.13.855 1.786 1.22 2.746 1.8 2.27 3.723 4.41 5.49 6.712 1.212 2.754 2.978 4.954 4.88 7.016.8-.315.997-1.235.918-2.436zm9.76-28.986c.496-.085.527.288.917.31.923 1.204.93 3.338 2.132 4.27.285 1.85 1.415 2.853 1.828 4.575 1.1 1.04 1.634 2.64 2.44 3.968 1.015 1.12 1.666 2.606 2.75 3.66-.27.64-1.706-.097-1.53-.913-.61-.402-1.03-1-1.222-1.832-1.056-.977-1.852-2.214-2.746-3.356-.864-1.17-1.76-2.304-2.44-3.663-.957-1.074-1.332-2.733-2.135-3.967-.168-.678.584-.432.608-.915-.33-.576-.382-1.44-.605-2.138zm1.528-.608c.156.158-.22.39-.304.304-.158-.157.22-.388.304-.305zm10.984 5.187c.537.278.504 1.123 1.22 1.22-.08 1.1.56 1.472.608 2.443-.3 2.443-1.277 4.21-2.443 5.797-1.78-1.775-2.654-4.464-4.268-6.41-.913-2.543-2.274-4.643-3.357-7.015-.67-.552-1.252-1.19-2.138-1.525 1.058-1.286 3.056-1.626 3.97-3.05.358.047.255.554.303.91 1.118 2.548 3.347 3.98 5.186 5.8-.165 1.082 1.077.75.915 1.83zm-9.152 10.374c.94 1.195 2.06 2.212 3.05 3.356-.318.804-1.214 1.027-1.53 1.83-1.002.113-.613 1.62-1.83 1.527-2.957-5.792-5.436-12.062-8.544-17.698.21-.71 1.013-.82 1.222-1.526 3.123 3.595 4.73 8.697 7.63 12.51zm-6.716 0c.796 1.342 1.344 2.93 2.138 4.272.34 1.792 1.653 2.618 1.83 4.576-2.163-2.514-3.81-5.54-5.49-8.544-.875-1.465-1.69-2.987-2.44-4.576-.534-1.803-2.1-2.58-2.14-4.882.476-.442 1.425-.405 1.83-.914.275.14.552.27.613.61 1.123 3.247 2.733 6.015 3.66 9.458zm-3.66 1.83c.635 1.707 1.784 2.893 2.443 4.576 1.084 1.254 1.588 3.09 3.05 3.968-.59 1.138-1.94 1.515-2.746 2.44-1.26-.778-1.325-2.742-2.748-3.355-.128-1.803-1.26-2.6-1.828-3.968-.416-1.413-1.18-2.478-1.833-3.663-1.283-2.38-2.13-5.187-3.662-7.32.094-.62.827-.6.917-1.222h.91c1.205 3.477 3.655 5.704 5.493 8.544zm30.208-36.002c-4.165 2.447-8.712 4.51-12.51 7.324-4.507 2.105-7.957 5.265-12.205 7.624-1.846 1.51-3.84 2.873-5.798 4.27-1.55 1.71-3.83 2.685-5.493 4.274-3.953 2.656-7.884 5.34-11.9 7.934-1.332.262-1.357.066-2.442.302-3.2 2.29-6.59 4.395-9.762 6.715-1.62 1.124-3.648 1.843-4.88 3.356-1.198.23-1.658 1.19-2.745 1.53-.39.93-1.827.815-1.827 2.132.32 1.225 1.237-.04 2.443.307 1.335 1.724 1.27 6.244-.31 7.626-1.986-.048-3.2-.866-4.88-1.222-.652-1.28-2.152-1.713-2.748-3.05-1.032-.8-1.453-2.205-2.443-3.052-.446-2.296-1.232-4.256-1.828-6.407.21-1.723.444-3.42 1.525-4.27 1.454-.03 2.276.566 3.358.913.313.91.226 2.21.913 2.748 1.747.216 2.73-.328 4.274-.307 1.338-.017 1.635 1.008 2.746 1.22 1.123-.097.717-1.724 1.22-2.438.928.015 1.184-.644 1.83-.914.98-.27.417 1.003 1.223.914-.094.702.878.337.913.913 1.22-.203.882-1.963.916-3.356 1.1-.934 2.825-1.245 3.66-2.444 1.692-.34 2.262-1.803 3.97-2.133.973-.245.867-1.57 1.52-2.136 2.636-.722 4.358-2.36 6.717-3.357 1.97-1.383 3.67-3.04 6.1-3.966 1.695-1.667 4.027-2.688 5.492-4.578 1.973-1.383 3.806-2.904 5.8-4.27 3.71-2.9 6.197-7.025 9.453-10.377 1.007.218 1.032 1.413 2.14 1.524 2.676-.57-.458-3.683 1.22-4.88.704 1.124.625 3.035 1.835 3.662 1.423-.013.58-.868.608-1.833.568.6 1.115.096 1.836 0 .376-1.304-.023-1.51 0-3.048 1.112.405.643 2.4 2.435 2.133.246-.058.304-.306.612-.306 1.024-1.845-.62-3.645-.61-5.49-.043-1.077-.875-1.365-.913-2.44 1.02-1.22 2.116-2.358 2.438-4.273 1.474.583-.448 1.35-.303 2.442-.213 1.294.55 2.24.612 3.355.02.43.14.807.303 1.22.347.875.98 3.475 3.05 3.358.83-.853-.36-2.272-.61-3.05-.447-.98-1.044-1.804-.914-3.358 1.647 3.232 4.834 4.928 5.8 8.848-.756-.04-1.476-.046-1.833.307zm20.136 8.544c-1.847.02-3.106-.555-4.576-.917-1.15-.68-2.053-1.607-3.357-2.134-3.99-4.045-7.056-9.013-10.07-14.035-.25-1.78-1.876-2.19-1.827-4.27-1.344-.592-.97-2.898-2.136-3.662-.43-1.603-1.3-2.768-2.14-3.968-.076-.935-.662-1.368-.91-2.133-.443-.474-.406-1.422-.914-1.832-.19-1.816 1.658-1.596 1.224-3.66 3.656.303 7.054.873 10.067 1.83 2.227 2.045 4.385 4.155 7.02 5.796 4.902 5.27 8.62 11.724 10.677 19.835.306 4.384-.275 7.87-3.056 9.152zm-4.576-16.782c-1.173 1.608-.187 3.83-.305 6.1-4.018-4.12-7.58-8.694-9.155-15.254 1 .523 1.287 1.762 3.05 1.528 1.078-1.624-.765-2.59-.914-3.968-.756-.563-1.72-.92-2.134-1.83-1.483.06-.956-1.888-2.443-1.83h-.61c-.38.738-.754 1.483-.914 2.443.324 5.472 2.05 9.544 4.27 13.12 1.87 4.032 5.27 6.528 7.63 10.067 1.016.2 1.49.95 2.44 1.22 1.113-.51 1.367-1.886 2.132-2.744v-3.968c-.866-1.777-.565-4.72-3.05-4.882zM25.107 99.032c-.188-.826-.606-1.43-1.22-1.83.012-1.13-.47-1.77-.918-2.443-.436-.073-.513-.502-.913-.61-.053.358-.484.335-.915.306-1.367 4.043 1.483 6.427 3.05 8.544.236.067.603.008.61.304 1.356.367 3.412.62 3.66-.912-.123-2.115-2.447-2.032-3.354-3.36z" fill="#444"/></svg>